<?xml version="1.0" encoding="utf-8" standalone="no"?>
<!DOCTYPE svg PUBLIC "-//W3C//DTD SVG 1.1//EN"
  "http://www.w3.org/Graphics/SVG/1.1/DTD/svg11.dtd">
<!-- Created with matplotlib (https://matplotlib.org/) -->
<svg height="345.6pt" version="1.1" viewBox="0 0 460.8 345.6" width="460.8pt" xmlns="http://www.w3.org/2000/svg" xmlns:xlink="http://www.w3.org/1999/xlink">
 <metadata>
  <rdf:RDF xmlns:cc="http://creativecommons.org/ns#" xmlns:dc="http://purl.org/dc/elements/1.1/" xmlns:rdf="http://www.w3.org/1999/02/22-rdf-syntax-ns#">
   <cc:Work>
    <dc:type rdf:resource="http://purl.org/dc/dcmitype/StillImage"/>
    <dc:date>2022-04-20T20:28:49.779966</dc:date>
    <dc:format>image/svg+xml</dc:format>
    <dc:creator>
     <cc:Agent>
      <dc:title>Matplotlib v3.3.3, https://matplotlib.org/</dc:title>
     </cc:Agent>
    </dc:creator>
   </cc:Work>
  </rdf:RDF>
 </metadata>
 <defs>
  <style type="text/css">*{stroke-linecap:butt;stroke-linejoin:round;}</style>
 </defs>
 <g id="figure_1">
  <g id="patch_1">
   <path d="M 0 345.6 
L 460.8 345.6 
L 460.8 0 
L 0 0 
z
" style="fill:#ffffff;"/>
  </g>
  <g id="axes_1">
   <g id="patch_2">
    <path d="M 57.6 307.584 
L 414.72 307.584 
L 414.72 41.472 
L 57.6 41.472 
z
" style="fill:#ffffff;"/>
   </g>
   <g id="matplotlib.axis_1">
    <g id="xtick_1">
     <g id="line2d_1">
      <defs>
       <path d="M 0 0 
L 0 3.5 
" id="md3cf14521b" style="stroke:#000000;stroke-width:0.8;"/>
      </defs>
      <g>
       <use style="stroke:#000000;stroke-width:0.8;" x="73.832727" xlink:href="#md3cf14521b" y="307.584"/>
      </g>
     </g>
     <g id="text_1">
      <!-- 0.0 -->
      <g transform="translate(66.772571 322.184)scale(0.1 -0.1)">
       <defs>
        <path d="M 52.296875 35.796875 
Q 52.296875 24.203125 49.890625 16 
Q 47.5 7.796875 42.25 3.390625 
Q 37 -1 28.5 -1 
Q 16.40625 -1 10.65625 8.75 
Q 4.90625 18.5 4.90625 35.796875 
Q 4.90625 47.40625 7.25 55.59375 
Q 9.59375 63.796875 14.796875 68.140625 
Q 20 72.5 28.5 72.5 
Q 40.5 72.5 46.390625 62.84375 
Q 52.296875 53.203125 52.296875 35.796875 
z
M 13.703125 35.796875 
Q 13.703125 21.09375 17.046875 13.796875 
Q 20.40625 6.5 28.5 6.5 
Q 36.5 6.5 39.953125 13.75 
Q 43.40625 21 43.40625 35.796875 
Q 43.40625 50.40625 39.953125 57.703125 
Q 36.5 65 28.5 65 
Q 20.40625 65 17.046875 57.703125 
Q 13.703125 50.40625 13.703125 35.796875 
z
" id="NotoSans-Regular-48"/>
        <path d="M 7.203125 5.40625 
Q 7.203125 9.09375 9 10.59375 
Q 10.796875 12.09375 13.296875 12.09375 
Q 15.796875 12.09375 17.6875 10.59375 
Q 19.59375 9.09375 19.59375 5.40625 
Q 19.59375 1.796875 17.6875 0.1875 
Q 15.796875 -1.40625 13.296875 -1.40625 
Q 10.796875 -1.40625 9 0.1875 
Q 7.203125 1.796875 7.203125 5.40625 
z
" id="NotoSans-Regular-46"/>
       </defs>
       <use xlink:href="#NotoSans-Regular-48"/>
       <use x="57.199997" xlink:href="#NotoSans-Regular-46"/>
       <use x="83.999985" xlink:href="#NotoSans-Regular-48"/>
      </g>
     </g>
    </g>
    <g id="xtick_2">
     <g id="line2d_2">
      <g>
       <use style="stroke:#000000;stroke-width:0.8;" x="138.763636" xlink:href="#md3cf14521b" y="307.584"/>
      </g>
     </g>
     <g id="text_2">
      <!-- 0.2 -->
      <g transform="translate(131.70348 322.184)scale(0.1 -0.1)">
       <defs>
        <path d="M 52 0 
L 4.796875 0 
L 4.796875 7.296875 
L 23.5 26.203125 
Q 28.796875 31.59375 32.546875 35.796875 
Q 36.296875 40 38.1875 44 
Q 40.09375 48 40.09375 52.90625 
Q 40.09375 58.796875 36.59375 61.84375 
Q 33.09375 64.90625 27.5 64.90625 
Q 22.203125 64.90625 18.296875 63.09375 
Q 14.40625 61.296875 10.296875 58.09375 
L 5.59375 64 
Q 9.796875 67.5 15.25 69.953125 
Q 20.703125 72.40625 27.5 72.40625 
Q 37.5 72.40625 43.296875 67.296875 
Q 49.09375 62.203125 49.09375 53.40625 
Q 49.09375 47.796875 46.796875 42.890625 
Q 44.5 38 40.390625 33.203125 
Q 36.296875 28.40625 30.796875 23.09375 
L 15.90625 8.40625 
L 15.90625 8 
L 52 8 
z
" id="NotoSans-Regular-50"/>
       </defs>
       <use xlink:href="#NotoSans-Regular-48"/>
       <use x="57.199997" xlink:href="#NotoSans-Regular-46"/>
       <use x="83.999985" xlink:href="#NotoSans-Regular-50"/>
      </g>
     </g>
    </g>
    <g id="xtick_3">
     <g id="line2d_3">
      <g>
       <use style="stroke:#000000;stroke-width:0.8;" x="203.694545" xlink:href="#md3cf14521b" y="307.584"/>
      </g>
     </g>
     <g id="text_3">
      <!-- 0.4 -->
      <g transform="translate(196.634389 322.184)scale(0.1 -0.1)">
       <defs>
        <path d="M 55.203125 16.203125 
L 44.796875 16.203125 
L 44.796875 0 
L 36.296875 0 
L 36.296875 16.203125 
L 2.09375 16.203125 
L 2.09375 23.703125 
L 35.703125 71.796875 
L 44.796875 71.796875 
L 44.796875 24.09375 
L 55.203125 24.09375 
z
M 36.296875 24.09375 
L 36.296875 46.59375 
Q 36.296875 51.796875 36.4375 55.4375 
Q 36.59375 59.09375 36.796875 62.40625 
L 36.40625 62.40625 
Q 35.59375 60.5 34.390625 58.296875 
Q 33.203125 56.09375 32.09375 54.59375 
L 10.703125 24.09375 
z
" id="NotoSans-Regular-52"/>
       </defs>
       <use xlink:href="#NotoSans-Regular-48"/>
       <use x="57.199997" xlink:href="#NotoSans-Regular-46"/>
       <use x="83.999985" xlink:href="#NotoSans-Regular-52"/>
      </g>
     </g>
    </g>
    <g id="xtick_4">
     <g id="line2d_4">
      <g>
       <use style="stroke:#000000;stroke-width:0.8;" x="268.625455" xlink:href="#md3cf14521b" y="307.584"/>
      </g>
     </g>
     <g id="text_4">
      <!-- 0.6 -->
      <g transform="translate(261.565298 322.184)scale(0.1 -0.1)">
       <defs>
        <path d="M 5.5 30.5 
Q 5.5 38.203125 6.84375 45.640625 
Q 8.203125 53.09375 11.75 59.140625 
Q 15.296875 65.203125 21.6875 68.796875 
Q 28.09375 72.40625 38.203125 72.40625 
Q 40.296875 72.40625 42.84375 72.203125 
Q 45.40625 72 47 71.5 
L 47 64 
Q 45.203125 64.59375 42.890625 64.890625 
Q 40.59375 65.203125 38.40625 65.203125 
Q 31.5 65.203125 26.890625 62.890625 
Q 22.296875 60.59375 19.640625 56.59375 
Q 17 52.59375 15.796875 47.390625 
Q 14.59375 42.203125 14.296875 36.296875 
L 14.90625 36.296875 
Q 17.203125 39.796875 21.296875 42.25 
Q 25.40625 44.703125 31.796875 44.703125 
Q 41.09375 44.703125 46.796875 39.046875 
Q 52.5 33.40625 52.5 23 
Q 52.5 11.796875 46.34375 5.390625 
Q 40.203125 -1 29.796875 -1 
Q 23 -1 17.5 2.390625 
Q 12 5.796875 8.75 12.796875 
Q 5.5 19.796875 5.5 30.5 
z
M 29.703125 6.40625 
Q 36 6.40625 39.890625 10.453125 
Q 43.796875 14.5 43.796875 23 
Q 43.796875 29.796875 40.34375 33.796875 
Q 36.90625 37.796875 30 37.796875 
Q 25.296875 37.796875 21.796875 35.84375 
Q 18.296875 33.90625 16.34375 30.84375 
Q 14.40625 27.796875 14.40625 24.703125 
Q 14.40625 20.40625 16.09375 16.15625 
Q 17.796875 11.90625 21.1875 9.15625 
Q 24.59375 6.40625 29.703125 6.40625 
z
" id="NotoSans-Regular-54"/>
       </defs>
       <use xlink:href="#NotoSans-Regular-48"/>
       <use x="57.199997" xlink:href="#NotoSans-Regular-46"/>
       <use x="83.999985" xlink:href="#NotoSans-Regular-54"/>
      </g>
     </g>
    </g>
    <g id="xtick_5">
     <g id="line2d_5">
      <g>
       <use style="stroke:#000000;stroke-width:0.8;" x="333.556364" xlink:href="#md3cf14521b" y="307.584"/>
      </g>
     </g>
     <g id="text_5">
      <!-- 0.8 -->
      <g transform="translate(326.496207 322.184)scale(0.1 -0.1)">
       <defs>
        <path d="M 28.5 72.40625 
Q 37.90625 72.40625 43.90625 68 
Q 49.90625 63.59375 49.90625 55.296875 
Q 49.90625 51 48.046875 47.796875 
Q 46.203125 44.59375 43.09375 42.140625 
Q 40 39.703125 36.296875 37.796875 
Q 40.703125 35.59375 44.296875 33 
Q 47.90625 30.40625 50.046875 26.90625 
Q 52.203125 23.40625 52.203125 18.5 
Q 52.203125 9.5 45.796875 4.25 
Q 39.40625 -1 28.796875 -1 
Q 17.203125 -1 11.046875 4.046875 
Q 4.90625 9.09375 4.90625 18.203125 
Q 4.90625 23 6.953125 26.640625 
Q 9 30.296875 12.390625 32.890625 
Q 15.796875 35.5 19.703125 37.296875 
Q 14.40625 40.296875 10.796875 44.546875 
Q 7.203125 48.796875 7.203125 55.40625 
Q 7.203125 60.796875 10 64.59375 
Q 12.796875 68.40625 17.59375 70.40625 
Q 22.40625 72.40625 28.5 72.40625 
z
M 28.40625 65.296875 
Q 22.796875 65.296875 19.296875 62.640625 
Q 15.796875 60 15.796875 55 
Q 15.796875 51.296875 17.546875 48.796875 
Q 19.296875 46.296875 22.296875 44.546875 
Q 25.296875 42.796875 28.90625 41.203125 
Q 34.09375 43.40625 37.640625 46.5 
Q 41.203125 49.59375 41.203125 55 
Q 41.203125 60 37.703125 62.640625 
Q 34.203125 65.296875 28.40625 65.296875 
z
M 13.5 18.09375 
Q 13.5 12.90625 17.203125 9.453125 
Q 20.90625 6 28.59375 6 
Q 35.90625 6 39.75 9.453125 
Q 43.59375 12.90625 43.59375 18.40625 
Q 43.59375 23.59375 39.5 27.046875 
Q 35.40625 30.5 28.59375 33.09375 
L 27 33.703125 
Q 20.40625 30.796875 16.953125 27.1875 
Q 13.5 23.59375 13.5 18.09375 
z
" id="NotoSans-Regular-56"/>
       </defs>
       <use xlink:href="#NotoSans-Regular-48"/>
       <use x="57.199997" xlink:href="#NotoSans-Regular-46"/>
       <use x="83.999985" xlink:href="#NotoSans-Regular-56"/>
      </g>
     </g>
    </g>
    <g id="xtick_6">
     <g id="line2d_6">
      <g>
       <use style="stroke:#000000;stroke-width:0.8;" x="398.487273" xlink:href="#md3cf14521b" y="307.584"/>
      </g>
     </g>
     <g id="text_6">
      <!-- 1.0 -->
      <g transform="translate(391.427116 322.184)scale(0.1 -0.1)">
       <defs>
        <path d="M 35.5 0 
L 26.90625 0 
L 26.90625 49.90625 
Q 26.90625 54.203125 27 56.796875 
Q 27.09375 59.40625 27.296875 62.203125 
Q 25.703125 60.59375 24.34375 59.5 
Q 23 58.40625 21.09375 56.703125 
L 13.5 50.5 
L 8.90625 56.40625 
L 28.203125 71.40625 
L 35.5 71.40625 
z
" id="NotoSans-Regular-49"/>
       </defs>
       <use xlink:href="#NotoSans-Regular-49"/>
       <use x="57.199997" xlink:href="#NotoSans-Regular-46"/>
       <use x="83.999985" xlink:href="#NotoSans-Regular-48"/>
      </g>
     </g>
    </g>
    <g id="text_7">
     <!-- HVRatio -->
     <g transform="translate(217.420938 336.184)scale(0.1 -0.1)">
      <defs>
       <path d="M 64.296875 0 
L 55.296875 0 
L 55.296875 33.296875 
L 18.703125 33.296875 
L 18.703125 0 
L 9.703125 0 
L 9.703125 71.40625 
L 18.703125 71.40625 
L 18.703125 41.203125 
L 55.296875 41.203125 
L 55.296875 71.40625 
L 64.296875 71.40625 
z
" id="NotoSans-Regular-72"/>
       <path d="M 60 71.40625 
L 34.5 0 
L 25.5 0 
L 0 71.40625 
L 9.40625 71.40625 
L 25.5 25.59375 
Q 27.09375 21.203125 28.140625 17.34375 
Q 29.203125 13.5 30 10 
Q 30.703125 13.5 31.796875 17.390625 
Q 32.90625 21.296875 34.5 25.796875 
L 50.5 71.40625 
z
" id="NotoSans-Regular-86"/>
       <path d="M 29.40625 71.40625 
Q 42.703125 71.40625 49.046875 66.34375 
Q 55.40625 61.296875 55.40625 51.09375 
Q 55.40625 45.40625 53.296875 41.59375 
Q 51.203125 37.796875 47.953125 35.5 
Q 44.703125 33.203125 41.09375 32 
L 60.703125 0 
L 50.203125 0 
L 32.90625 29.5 
L 18.703125 29.5 
L 18.703125 0 
L 9.703125 0 
L 9.703125 71.40625 
z
M 28.90625 63.59375 
L 18.703125 63.59375 
L 18.703125 37.09375 
L 29.40625 37.09375 
Q 38.09375 37.09375 42.09375 40.546875 
Q 46.09375 44 46.09375 50.703125 
Q 46.09375 57.703125 41.890625 60.640625 
Q 37.703125 63.59375 28.90625 63.59375 
z
" id="NotoSans-Regular-82"/>
       <path d="M 28.796875 54.5 
Q 38.59375 54.5 43.296875 50.203125 
Q 48 45.90625 48 36.5 
L 48 0 
L 41.59375 0 
L 39.90625 7.59375 
L 39.5 7.59375 
Q 36 3.203125 32.09375 1.09375 
Q 28.203125 -1 21.5 -1 
Q 14.203125 -1 9.390625 2.84375 
Q 4.59375 6.703125 4.59375 14.90625 
Q 4.59375 22.90625 10.890625 27.25 
Q 17.203125 31.59375 30.296875 32 
L 39.40625 32.296875 
L 39.40625 35.5 
Q 39.40625 42.203125 36.5 44.796875 
Q 33.59375 47.40625 28.296875 47.40625 
Q 24.09375 47.40625 20.296875 46.15625 
Q 16.5 44.90625 13.203125 43.296875 
L 10.5 49.90625 
Q 14 51.796875 18.796875 53.140625 
Q 23.59375 54.5 28.796875 54.5 
z
M 39.296875 26.203125 
L 31.40625 25.90625 
Q 21.40625 25.5 17.546875 22.703125 
Q 13.703125 19.90625 13.703125 14.796875 
Q 13.703125 10.296875 16.453125 8.1875 
Q 19.203125 6.09375 23.5 6.09375 
Q 30.203125 6.09375 34.75 9.84375 
Q 39.296875 13.59375 39.296875 21.40625 
z
" id="NotoSans-Regular-97"/>
       <path d="M 26.40625 6.203125 
Q 28.40625 6.203125 30.5 6.5 
Q 32.59375 6.796875 33.90625 7.296875 
L 33.90625 0.59375 
Q 32.5 -0.09375 29.890625 -0.546875 
Q 27.296875 -1 24.90625 -1 
Q 20.703125 -1 17.140625 0.453125 
Q 13.59375 1.90625 11.390625 5.5 
Q 9.203125 9.09375 9.203125 15.59375 
L 9.203125 46.796875 
L 1.59375 46.796875 
L 1.59375 51 
L 9.296875 54.5 
L 12.796875 65.90625 
L 18 65.90625 
L 18 53.59375 
L 33.5 53.59375 
L 33.5 46.796875 
L 18 46.796875 
L 18 15.796875 
Q 18 10.90625 20.34375 8.546875 
Q 22.703125 6.203125 26.40625 6.203125 
z
" id="NotoSans-Regular-116"/>
       <path d="M 13 73.703125 
Q 15 73.703125 16.546875 72.34375 
Q 18.09375 71 18.09375 68.09375 
Q 18.09375 65.203125 16.546875 63.84375 
Q 15 62.5 13 62.5 
Q 10.796875 62.5 9.296875 63.84375 
Q 7.796875 65.203125 7.796875 68.09375 
Q 7.796875 71 9.296875 72.34375 
Q 10.796875 73.703125 13 73.703125 
z
M 17.296875 53.59375 
L 17.296875 0 
L 8.5 0 
L 8.5 53.59375 
z
" id="NotoSans-Regular-105"/>
       <path d="M 55.09375 26.90625 
Q 55.09375 13.59375 48.34375 6.296875 
Q 41.59375 -1 30.09375 -1 
Q 23 -1 17.453125 2.25 
Q 11.90625 5.5 8.703125 11.75 
Q 5.5 18 5.5 26.90625 
Q 5.5 40.203125 12.140625 47.390625 
Q 18.796875 54.59375 30.40625 54.59375 
Q 37.59375 54.59375 43.1875 51.34375 
Q 48.796875 48.09375 51.9375 41.9375 
Q 55.09375 35.796875 55.09375 26.90625 
z
M 14.59375 26.90625 
Q 14.59375 17.40625 18.34375 11.84375 
Q 22.09375 6.296875 30.296875 6.296875 
Q 38.40625 6.296875 42.203125 11.84375 
Q 46 17.40625 46 26.90625 
Q 46 36.40625 42.203125 41.796875 
Q 38.40625 47.203125 30.203125 47.203125 
Q 22 47.203125 18.296875 41.796875 
Q 14.59375 36.40625 14.59375 26.90625 
z
" id="NotoSans-Regular-111"/>
      </defs>
      <use xlink:href="#NotoSans-Regular-72"/>
      <use x="74.099991" xlink:href="#NotoSans-Regular-86"/>
      <use x="134.099976" xlink:href="#NotoSans-Regular-82"/>
      <use x="196.299973" xlink:href="#NotoSans-Regular-97"/>
      <use x="252.399963" xlink:href="#NotoSans-Regular-116"/>
      <use x="288.499954" xlink:href="#NotoSans-Regular-105"/>
      <use x="314.299942" xlink:href="#NotoSans-Regular-111"/>
     </g>
    </g>
   </g>
   <g id="matplotlib.axis_2">
    <g id="ytick_1">
     <g id="line2d_7">
      <defs>
       <path d="M 0 0 
L -3.5 0 
" id="mdfe2db9b26" style="stroke:#000000;stroke-width:0.8;"/>
      </defs>
      <g>
       <use style="stroke:#000000;stroke-width:0.8;" x="57.6" xlink:href="#mdfe2db9b26" y="287.32626"/>
      </g>
     </g>
     <g id="text_8">
      <!-- 10 -->
      <g transform="translate(39.159375 291.12626)scale(0.1 -0.1)">
       <use xlink:href="#NotoSans-Regular-49"/>
       <use x="57.199997" xlink:href="#NotoSans-Regular-48"/>
      </g>
     </g>
    </g>
    <g id="ytick_2">
     <g id="line2d_8">
      <g>
       <use style="stroke:#000000;stroke-width:0.8;" x="57.6" xlink:href="#mdfe2db9b26" y="229.469329"/>
      </g>
     </g>
     <g id="text_9">
      <!-- 20 -->
      <g transform="translate(39.159375 233.269329)scale(0.1 -0.1)">
       <use xlink:href="#NotoSans-Regular-50"/>
       <use x="57.199997" xlink:href="#NotoSans-Regular-48"/>
      </g>
     </g>
    </g>
    <g id="ytick_3">
     <g id="line2d_9">
      <g>
       <use style="stroke:#000000;stroke-width:0.8;" x="57.6" xlink:href="#mdfe2db9b26" y="171.612397"/>
      </g>
     </g>
     <g id="text_10">
      <!-- 30 -->
      <g transform="translate(39.159375 175.412397)scale(0.1 -0.1)">
       <defs>
        <path d="M 49.296875 54.703125 
Q 49.296875 47.5 45.25 43.25 
Q 41.203125 39 34.5 37.59375 
L 34.5 37.203125 
Q 43 36.203125 47.25 31.796875 
Q 51.5 27.40625 51.5 20.296875 
Q 51.5 14 48.59375 9.203125 
Q 45.703125 4.40625 39.640625 1.703125 
Q 33.59375 -1 24.09375 -1 
Q 18.5 -1 13.703125 -0.140625 
Q 8.90625 0.703125 4.5 2.90625 
L 4.5 11.09375 
Q 9 8.796875 14.203125 7.59375 
Q 19.40625 6.40625 24.203125 6.40625 
Q 33.796875 6.40625 38.046875 10.15625 
Q 42.296875 13.90625 42.296875 20.5 
Q 42.296875 27.203125 37.046875 30.140625 
Q 31.796875 33.09375 22.296875 33.09375 
L 15.40625 33.09375 
L 15.40625 40.59375 
L 22.40625 40.59375 
Q 31.203125 40.59375 35.75 44.296875 
Q 40.296875 48 40.296875 54.09375 
Q 40.296875 59.296875 36.796875 62.140625 
Q 33.296875 65 27.296875 65 
Q 21.5 65 17.390625 63.296875 
Q 13.296875 61.59375 9.296875 59 
L 4.90625 65 
Q 8.703125 68 14.34375 70.203125 
Q 20 72.40625 27.203125 72.40625 
Q 38.40625 72.40625 43.84375 67.40625 
Q 49.296875 62.40625 49.296875 54.703125 
z
" id="NotoSans-Regular-51"/>
       </defs>
       <use xlink:href="#NotoSans-Regular-51"/>
       <use x="57.199997" xlink:href="#NotoSans-Regular-48"/>
      </g>
     </g>
    </g>
    <g id="ytick_4">
     <g id="line2d_10">
      <g>
       <use style="stroke:#000000;stroke-width:0.8;" x="57.6" xlink:href="#mdfe2db9b26" y="113.755466"/>
      </g>
     </g>
     <g id="text_11">
      <!-- 40 -->
      <g transform="translate(39.159375 117.555466)scale(0.1 -0.1)">
       <use xlink:href="#NotoSans-Regular-52"/>
       <use x="57.199997" xlink:href="#NotoSans-Regular-48"/>
      </g>
     </g>
    </g>
    <g id="ytick_5">
     <g id="line2d_11">
      <g>
       <use style="stroke:#000000;stroke-width:0.8;" x="57.6" xlink:href="#mdfe2db9b26" y="55.898534"/>
      </g>
     </g>
     <g id="text_12">
      <!-- 50 -->
      <g transform="translate(39.159375 59.698534)scale(0.1 -0.1)">
       <defs>
        <path d="M 27.5 43.796875 
Q 38.40625 43.796875 44.953125 38.296875 
Q 51.5 32.796875 51.5 22.796875 
Q 51.5 11.703125 44.453125 5.34375 
Q 37.40625 -1 24.796875 -1 
Q 19.203125 -1 14.390625 0 
Q 9.59375 1 6.296875 2.90625 
L 6.296875 11.203125 
Q 9.90625 9 15.046875 7.75 
Q 20.203125 6.5 24.90625 6.5 
Q 32.796875 6.5 37.640625 10.25 
Q 42.5 14 42.5 21.90625 
Q 42.5 28.90625 38.203125 32.65625 
Q 33.90625 36.40625 24.59375 36.40625 
Q 21.796875 36.40625 18.1875 35.90625 
Q 14.59375 35.40625 12.40625 34.90625 
L 8 37.703125 
L 10.703125 71.40625 
L 46.5 71.40625 
L 46.5 63.40625 
L 18.203125 63.40625 
L 16.5 42.703125 
Q 18.203125 43 21.09375 43.390625 
Q 24 43.796875 27.5 43.796875 
z
" id="NotoSans-Regular-53"/>
       </defs>
       <use xlink:href="#NotoSans-Regular-53"/>
       <use x="57.199997" xlink:href="#NotoSans-Regular-48"/>
      </g>
     </g>
    </g>
    <g id="text_13">
     <!-- Cost -->
     <g transform="translate(32.759375 184.913156)rotate(-90)scale(0.1 -0.1)">
      <defs>
       <path d="M 40.296875 64.5 
Q 28.796875 64.5 22.1875 56.796875 
Q 15.59375 49.09375 15.59375 35.703125 
Q 15.59375 22.40625 21.75 14.65625 
Q 27.90625 6.90625 40.203125 6.90625 
Q 44.796875 6.90625 49 7.703125 
Q 53.203125 8.5 57.296875 9.703125 
L 57.296875 1.90625 
Q 53.296875 0.40625 49.046875 -0.296875 
Q 44.796875 -1 38.90625 -1 
Q 28 -1 20.703125 3.5 
Q 13.40625 8 9.75 16.296875 
Q 6.09375 24.59375 6.09375 35.796875 
Q 6.09375 46.59375 10.046875 54.84375 
Q 14 63.09375 21.703125 67.75 
Q 29.40625 72.40625 40.40625 72.40625 
Q 51.703125 72.40625 60.09375 68.203125 
L 56.5 60.59375 
Q 53.203125 62.09375 49.140625 63.296875 
Q 45.09375 64.5 40.296875 64.5 
z
" id="NotoSans-Regular-67"/>
       <path d="M 43.40625 14.796875 
Q 43.40625 7 37.59375 3 
Q 31.796875 -1 22 -1 
Q 16.40625 -1 12.34375 -0.09375 
Q 8.296875 0.796875 5.203125 2.40625 
L 5.203125 10.40625 
Q 8.40625 8.796875 12.953125 7.4375 
Q 17.5 6.09375 22.203125 6.09375 
Q 28.90625 6.09375 31.90625 8.25 
Q 34.90625 10.40625 34.90625 14 
Q 34.90625 16 33.796875 17.59375 
Q 32.703125 19.203125 29.84375 20.796875 
Q 27 22.40625 21.703125 24.40625 
Q 16.5 26.40625 12.796875 28.40625 
Q 9.09375 30.40625 7.09375 33.203125 
Q 5.09375 36 5.09375 40.40625 
Q 5.09375 47.203125 10.640625 50.890625 
Q 16.203125 54.59375 25.203125 54.59375 
Q 30.09375 54.59375 34.34375 53.59375 
Q 38.59375 52.59375 42.296875 51 
L 39.296875 44 
Q 35.90625 45.40625 32.203125 46.40625 
Q 28.5 47.40625 24.59375 47.40625 
Q 19.203125 47.40625 16.34375 45.65625 
Q 13.5 43.90625 13.5 40.90625 
Q 13.5 38.59375 14.796875 37.09375 
Q 16.09375 35.59375 19.140625 34.09375 
Q 22.203125 32.59375 27.296875 30.703125 
Q 32.40625 28.796875 36 26.796875 
Q 39.59375 24.796875 41.5 21.9375 
Q 43.40625 19.09375 43.40625 14.796875 
z
" id="NotoSans-Regular-115"/>
      </defs>
      <use xlink:href="#NotoSans-Regular-67"/>
      <use x="63.199997" xlink:href="#NotoSans-Regular-111"/>
      <use x="123.699982" xlink:href="#NotoSans-Regular-115"/>
      <use x="171.599976" xlink:href="#NotoSans-Regular-116"/>
     </g>
    </g>
   </g>
   <g id="line2d_12">
    <path clip-path="url(#pf8d3fca0aa)" d="M 73.832727 279.871273 
L 106.298182 261.317864 
L 138.763636 237.895793 
L 171.229091 206.917382 
L 203.694545 196.432683 
L 236.16 191.204273 
L 268.625455 152.282278 
L 301.090909 121.054231 
L 333.556364 101.447542 
L 366.021818 68.285716 
L 398.487273 79.434676 
" style="fill:none;stroke:#1f77b4;stroke-linecap:square;stroke-width:1.5;"/>
   </g>
   <g id="line2d_13">
    <path clip-path="url(#pf8d3fca0aa)" d="M 73.832727 295.488 
L 106.298182 282.448175 
L 138.763636 264.75067 
L 171.229091 236.002179 
L 203.694545 217.24299 
L 236.16 189.068801 
L 268.625455 175.872539 
L 301.090909 152.109097 
L 333.556364 104.970352 
L 366.021818 84.968457 
L 398.487273 53.568 
" style="fill:none;stroke:#ff7f0e;stroke-linecap:square;stroke-width:1.5;"/>
   </g>
   <g id="patch_3">
    <path d="M 57.6 307.584 
L 57.6 41.472 
" style="fill:none;stroke:#000000;stroke-linecap:square;stroke-linejoin:miter;stroke-width:0.8;"/>
   </g>
   <g id="patch_4">
    <path d="M 414.72 307.584 
L 414.72 41.472 
" style="fill:none;stroke:#000000;stroke-linecap:square;stroke-linejoin:miter;stroke-width:0.8;"/>
   </g>
   <g id="patch_5">
    <path d="M 57.6 307.584 
L 414.72 307.584 
" style="fill:none;stroke:#000000;stroke-linecap:square;stroke-linejoin:miter;stroke-width:0.8;"/>
   </g>
   <g id="patch_6">
    <path d="M 57.6 41.472 
L 414.72 41.472 
" style="fill:none;stroke:#000000;stroke-linecap:square;stroke-linejoin:miter;stroke-width:0.8;"/>
   </g>
   <g id="legend_1">
    <g id="patch_7">
     <path d="M 64.6 79.472 
L 146.001563 79.472 
Q 148.001563 79.472 148.001563 77.472 
L 148.001563 48.472 
Q 148.001563 46.472 146.001563 46.472 
L 64.6 46.472 
Q 62.6 46.472 62.6 48.472 
L 62.6 77.472 
Q 62.6 79.472 64.6 79.472 
z
" style="fill:#ffffff;opacity:0.8;stroke:#cccccc;stroke-linejoin:miter;"/>
    </g>
    <g id="line2d_14">
     <path d="M 66.6 54.572 
L 86.6 54.572 
" style="fill:none;stroke:#1f77b4;stroke-linecap:square;stroke-width:1.5;"/>
    </g>
    <g id="line2d_15"/>
    <g id="text_14">
     <!-- subcase=2 -->
     <g transform="translate(94.6 58.072)scale(0.1 -0.1)">
      <defs>
       <path d="M 53.296875 53.59375 
L 53.296875 0 
L 46.09375 0 
L 44.796875 7.09375 
L 44.40625 7.09375 
Q 41.796875 2.90625 37.1875 0.953125 
Q 32.59375 -1 27.40625 -1 
Q 17.703125 -1 12.796875 3.640625 
Q 7.90625 8.296875 7.90625 18.5 
L 7.90625 53.59375 
L 16.796875 53.59375 
L 16.796875 19.09375 
Q 16.796875 6.296875 28.703125 6.296875 
Q 37.59375 6.296875 41.046875 11.296875 
Q 44.5 16.296875 44.5 25.703125 
L 44.5 53.59375 
z
" id="NotoSans-Regular-117"/>
       <path d="M 17.296875 76 
L 17.296875 57.5 
Q 17.296875 54.09375 17.140625 51.140625 
Q 17 48.203125 16.796875 46.5 
L 17.296875 46.5 
Q 19.59375 49.90625 23.59375 52.203125 
Q 27.59375 54.5 33.90625 54.5 
Q 43.90625 54.5 49.953125 47.546875 
Q 56 40.59375 56 26.796875 
Q 56 13 49.890625 6 
Q 43.796875 -1 33.90625 -1 
Q 27.59375 -1 23.59375 1.296875 
Q 19.59375 3.59375 17.296875 6.796875 
L 16.59375 6.796875 
L 14.796875 0 
L 8.5 0 
L 8.5 76 
z
M 32.40625 47.203125 
Q 23.796875 47.203125 20.546875 42.296875 
Q 17.296875 37.40625 17.296875 27.09375 
L 17.296875 26.703125 
Q 17.296875 16.796875 20.546875 11.546875 
Q 23.796875 6.296875 32.59375 6.296875 
Q 39.796875 6.296875 43.34375 11.59375 
Q 46.90625 16.90625 46.90625 26.90625 
Q 46.90625 47.203125 32.40625 47.203125 
z
" id="NotoSans-Regular-98"/>
       <path d="M 30 -1 
Q 22.796875 -1 17.296875 1.890625 
Q 11.796875 4.796875 8.640625 10.890625 
Q 5.5 17 5.5 26.5 
Q 5.5 36.40625 8.75 42.59375 
Q 12 48.796875 17.703125 51.6875 
Q 23.40625 54.59375 30.59375 54.59375 
Q 34.59375 54.59375 38.4375 53.75 
Q 42.296875 52.90625 44.703125 51.703125 
L 42 44.40625 
Q 39.59375 45.296875 36.390625 46.09375 
Q 33.203125 46.90625 30.40625 46.90625 
Q 14.59375 46.90625 14.59375 26.59375 
Q 14.59375 16.90625 18.4375 11.75 
Q 22.296875 6.59375 29.90625 6.59375 
Q 34.203125 6.59375 37.59375 7.5 
Q 41 8.40625 43.796875 9.703125 
L 43.796875 1.90625 
Q 41.09375 0.5 37.84375 -0.25 
Q 34.59375 -1 30 -1 
z
" id="NotoSans-Regular-99"/>
       <path d="M 29.203125 54.59375 
Q 36 54.59375 41 51.59375 
Q 46 48.59375 48.640625 43.140625 
Q 51.296875 37.703125 51.296875 30.40625 
L 51.296875 25.09375 
L 14.59375 25.09375 
Q 14.796875 16 19.25 11.25 
Q 23.703125 6.5 31.703125 6.5 
Q 36.796875 6.5 40.75 7.453125 
Q 44.703125 8.40625 48.90625 10.203125 
L 48.90625 2.5 
Q 44.796875 0.703125 40.796875 -0.140625 
Q 36.796875 -1 31.296875 -1 
Q 23.59375 -1 17.796875 2.09375 
Q 12 5.203125 8.75 11.296875 
Q 5.5 17.40625 5.5 26.40625 
Q 5.5 35.203125 8.453125 41.5 
Q 11.40625 47.796875 16.75 51.1875 
Q 22.09375 54.59375 29.203125 54.59375 
z
M 29.09375 47.40625 
Q 22.796875 47.40625 19.140625 43.34375 
Q 15.5 39.296875 14.796875 32.09375 
L 42.09375 32.09375 
Q 42 38.90625 38.890625 43.15625 
Q 35.796875 47.40625 29.09375 47.40625 
z
" id="NotoSans-Regular-101"/>
       <path d="M 5.59375 41.59375 
L 5.59375 48.703125 
L 51.40625 48.703125 
L 51.40625 41.59375 
z
M 5.59375 21.703125 
L 5.59375 28.796875 
L 51.40625 28.796875 
L 51.40625 21.703125 
z
" id="NotoSans-Regular-61"/>
      </defs>
      <use xlink:href="#NotoSans-Regular-115"/>
      <use x="47.899994" xlink:href="#NotoSans-Regular-117"/>
      <use x="109.699982" xlink:href="#NotoSans-Regular-98"/>
      <use x="171.199966" xlink:href="#NotoSans-Regular-99"/>
      <use x="219.199951" xlink:href="#NotoSans-Regular-97"/>
      <use x="275.299942" xlink:href="#NotoSans-Regular-115"/>
      <use x="323.199936" xlink:href="#NotoSans-Regular-101"/>
      <use x="379.59993" xlink:href="#NotoSans-Regular-61"/>
      <use x="436.799927" xlink:href="#NotoSans-Regular-50"/>
     </g>
    </g>
    <g id="line2d_16">
     <path d="M 66.6 69.572 
L 86.6 69.572 
" style="fill:none;stroke:#ff7f0e;stroke-linecap:square;stroke-width:1.5;"/>
    </g>
    <g id="line2d_17"/>
    <g id="text_15">
     <!-- subcase=4 -->
     <g transform="translate(94.6 73.072)scale(0.1 -0.1)">
      <use xlink:href="#NotoSans-Regular-115"/>
      <use x="47.899994" xlink:href="#NotoSans-Regular-117"/>
      <use x="109.699982" xlink:href="#NotoSans-Regular-98"/>
      <use x="171.199966" xlink:href="#NotoSans-Regular-99"/>
      <use x="219.199951" xlink:href="#NotoSans-Regular-97"/>
      <use x="275.299942" xlink:href="#NotoSans-Regular-115"/>
      <use x="323.199936" xlink:href="#NotoSans-Regular-101"/>
      <use x="379.59993" xlink:href="#NotoSans-Regular-61"/>
      <use x="436.799927" xlink:href="#NotoSans-Regular-52"/>
     </g>
    </g>
   </g>
  </g>
 </g>
 <defs>
  <clipPath id="pf8d3fca0aa">
   <rect height="266.112" width="357.12" x="57.6" y="41.472"/>
  </clipPath>
 </defs>
</svg>
