<?xml version="1.0" encoding="utf-8" standalone="no"?>
<!DOCTYPE svg PUBLIC "-//W3C//DTD SVG 1.1//EN"
  "http://www.w3.org/Graphics/SVG/1.1/DTD/svg11.dtd">
<!-- Created with matplotlib (https://matplotlib.org/) -->
<svg height="345.6pt" version="1.1" viewBox="0 0 460.8 345.6" width="460.8pt" xmlns="http://www.w3.org/2000/svg" xmlns:xlink="http://www.w3.org/1999/xlink">
 <metadata>
  <rdf:RDF xmlns:cc="http://creativecommons.org/ns#" xmlns:dc="http://purl.org/dc/elements/1.1/" xmlns:rdf="http://www.w3.org/1999/02/22-rdf-syntax-ns#">
   <cc:Work>
    <dc:type rdf:resource="http://purl.org/dc/dcmitype/StillImage"/>
    <dc:date>2022-05-04T03:33:08.192549</dc:date>
    <dc:format>image/svg+xml</dc:format>
    <dc:creator>
     <cc:Agent>
      <dc:title>Matplotlib v3.3.3, https://matplotlib.org/</dc:title>
     </cc:Agent>
    </dc:creator>
   </cc:Work>
  </rdf:RDF>
 </metadata>
 <defs>
  <style type="text/css">*{stroke-linecap:butt;stroke-linejoin:round;}</style>
 </defs>
 <g id="figure_1">
  <g id="patch_1">
   <path d="M 0 345.6 
L 460.8 345.6 
L 460.8 0 
L 0 0 
z
" style="fill:#ffffff;"/>
  </g>
  <g id="axes_1">
   <g id="patch_2">
    <path d="M 57.6 307.584 
L 414.72 307.584 
L 414.72 41.472 
L 57.6 41.472 
z
" style="fill:#ffffff;"/>
   </g>
   <g id="matplotlib.axis_1">
    <g id="xtick_1">
     <g id="line2d_1">
      <defs>
       <path d="M 0 0 
L 0 3.5 
" id="m7c80d02083" style="stroke:#000000;stroke-width:0.8;"/>
      </defs>
      <g>
       <use style="stroke:#000000;stroke-width:0.8;" x="73.832727" xlink:href="#m7c80d02083" y="307.584"/>
      </g>
     </g>
     <g id="text_1">
      <!-- 0.0 -->
      <g transform="translate(66.772571 322.184)scale(0.1 -0.1)">
       <defs>
        <path d="M 52.296875 35.796875 
Q 52.296875 24.203125 49.890625 16 
Q 47.5 7.796875 42.25 3.390625 
Q 37 -1 28.5 -1 
Q 16.40625 -1 10.65625 8.75 
Q 4.90625 18.5 4.90625 35.796875 
Q 4.90625 47.40625 7.25 55.59375 
Q 9.59375 63.796875 14.796875 68.140625 
Q 20 72.5 28.5 72.5 
Q 40.5 72.5 46.390625 62.84375 
Q 52.296875 53.203125 52.296875 35.796875 
z
M 13.703125 35.796875 
Q 13.703125 21.09375 17.046875 13.796875 
Q 20.40625 6.5 28.5 6.5 
Q 36.5 6.5 39.953125 13.75 
Q 43.40625 21 43.40625 35.796875 
Q 43.40625 50.40625 39.953125 57.703125 
Q 36.5 65 28.5 65 
Q 20.40625 65 17.046875 57.703125 
Q 13.703125 50.40625 13.703125 35.796875 
z
" id="NotoSans-Regular-48"/>
        <path d="M 7.203125 5.40625 
Q 7.203125 9.09375 9 10.59375 
Q 10.796875 12.09375 13.296875 12.09375 
Q 15.796875 12.09375 17.6875 10.59375 
Q 19.59375 9.09375 19.59375 5.40625 
Q 19.59375 1.796875 17.6875 0.1875 
Q 15.796875 -1.40625 13.296875 -1.40625 
Q 10.796875 -1.40625 9 0.1875 
Q 7.203125 1.796875 7.203125 5.40625 
z
" id="NotoSans-Regular-46"/>
       </defs>
       <use xlink:href="#NotoSans-Regular-48"/>
       <use x="57.199997" xlink:href="#NotoSans-Regular-46"/>
       <use x="83.999985" xlink:href="#NotoSans-Regular-48"/>
      </g>
     </g>
    </g>
    <g id="xtick_2">
     <g id="line2d_2">
      <g>
       <use style="stroke:#000000;stroke-width:0.8;" x="138.763636" xlink:href="#m7c80d02083" y="307.584"/>
      </g>
     </g>
     <g id="text_2">
      <!-- 0.2 -->
      <g transform="translate(131.70348 322.184)scale(0.1 -0.1)">
       <defs>
        <path d="M 52 0 
L 4.796875 0 
L 4.796875 7.296875 
L 23.5 26.203125 
Q 28.796875 31.59375 32.546875 35.796875 
Q 36.296875 40 38.1875 44 
Q 40.09375 48 40.09375 52.90625 
Q 40.09375 58.796875 36.59375 61.84375 
Q 33.09375 64.90625 27.5 64.90625 
Q 22.203125 64.90625 18.296875 63.09375 
Q 14.40625 61.296875 10.296875 58.09375 
L 5.59375 64 
Q 9.796875 67.5 15.25 69.953125 
Q 20.703125 72.40625 27.5 72.40625 
Q 37.5 72.40625 43.296875 67.296875 
Q 49.09375 62.203125 49.09375 53.40625 
Q 49.09375 47.796875 46.796875 42.890625 
Q 44.5 38 40.390625 33.203125 
Q 36.296875 28.40625 30.796875 23.09375 
L 15.90625 8.40625 
L 15.90625 8 
L 52 8 
z
" id="NotoSans-Regular-50"/>
       </defs>
       <use xlink:href="#NotoSans-Regular-48"/>
       <use x="57.199997" xlink:href="#NotoSans-Regular-46"/>
       <use x="83.999985" xlink:href="#NotoSans-Regular-50"/>
      </g>
     </g>
    </g>
    <g id="xtick_3">
     <g id="line2d_3">
      <g>
       <use style="stroke:#000000;stroke-width:0.8;" x="203.694545" xlink:href="#m7c80d02083" y="307.584"/>
      </g>
     </g>
     <g id="text_3">
      <!-- 0.4 -->
      <g transform="translate(196.634389 322.184)scale(0.1 -0.1)">
       <defs>
        <path d="M 55.203125 16.203125 
L 44.796875 16.203125 
L 44.796875 0 
L 36.296875 0 
L 36.296875 16.203125 
L 2.09375 16.203125 
L 2.09375 23.703125 
L 35.703125 71.796875 
L 44.796875 71.796875 
L 44.796875 24.09375 
L 55.203125 24.09375 
z
M 36.296875 24.09375 
L 36.296875 46.59375 
Q 36.296875 51.796875 36.4375 55.4375 
Q 36.59375 59.09375 36.796875 62.40625 
L 36.40625 62.40625 
Q 35.59375 60.5 34.390625 58.296875 
Q 33.203125 56.09375 32.09375 54.59375 
L 10.703125 24.09375 
z
" id="NotoSans-Regular-52"/>
       </defs>
       <use xlink:href="#NotoSans-Regular-48"/>
       <use x="57.199997" xlink:href="#NotoSans-Regular-46"/>
       <use x="83.999985" xlink:href="#NotoSans-Regular-52"/>
      </g>
     </g>
    </g>
    <g id="xtick_4">
     <g id="line2d_4">
      <g>
       <use style="stroke:#000000;stroke-width:0.8;" x="268.625455" xlink:href="#m7c80d02083" y="307.584"/>
      </g>
     </g>
     <g id="text_4">
      <!-- 0.6 -->
      <g transform="translate(261.565298 322.184)scale(0.1 -0.1)">
       <defs>
        <path d="M 5.5 30.5 
Q 5.5 38.203125 6.84375 45.640625 
Q 8.203125 53.09375 11.75 59.140625 
Q 15.296875 65.203125 21.6875 68.796875 
Q 28.09375 72.40625 38.203125 72.40625 
Q 40.296875 72.40625 42.84375 72.203125 
Q 45.40625 72 47 71.5 
L 47 64 
Q 45.203125 64.59375 42.890625 64.890625 
Q 40.59375 65.203125 38.40625 65.203125 
Q 31.5 65.203125 26.890625 62.890625 
Q 22.296875 60.59375 19.640625 56.59375 
Q 17 52.59375 15.796875 47.390625 
Q 14.59375 42.203125 14.296875 36.296875 
L 14.90625 36.296875 
Q 17.203125 39.796875 21.296875 42.25 
Q 25.40625 44.703125 31.796875 44.703125 
Q 41.09375 44.703125 46.796875 39.046875 
Q 52.5 33.40625 52.5 23 
Q 52.5 11.796875 46.34375 5.390625 
Q 40.203125 -1 29.796875 -1 
Q 23 -1 17.5 2.390625 
Q 12 5.796875 8.75 12.796875 
Q 5.5 19.796875 5.5 30.5 
z
M 29.703125 6.40625 
Q 36 6.40625 39.890625 10.453125 
Q 43.796875 14.5 43.796875 23 
Q 43.796875 29.796875 40.34375 33.796875 
Q 36.90625 37.796875 30 37.796875 
Q 25.296875 37.796875 21.796875 35.84375 
Q 18.296875 33.90625 16.34375 30.84375 
Q 14.40625 27.796875 14.40625 24.703125 
Q 14.40625 20.40625 16.09375 16.15625 
Q 17.796875 11.90625 21.1875 9.15625 
Q 24.59375 6.40625 29.703125 6.40625 
z
" id="NotoSans-Regular-54"/>
       </defs>
       <use xlink:href="#NotoSans-Regular-48"/>
       <use x="57.199997" xlink:href="#NotoSans-Regular-46"/>
       <use x="83.999985" xlink:href="#NotoSans-Regular-54"/>
      </g>
     </g>
    </g>
    <g id="xtick_5">
     <g id="line2d_5">
      <g>
       <use style="stroke:#000000;stroke-width:0.8;" x="333.556364" xlink:href="#m7c80d02083" y="307.584"/>
      </g>
     </g>
     <g id="text_5">
      <!-- 0.8 -->
      <g transform="translate(326.496207 322.184)scale(0.1 -0.1)">
       <defs>
        <path d="M 28.5 72.40625 
Q 37.90625 72.40625 43.90625 68 
Q 49.90625 63.59375 49.90625 55.296875 
Q 49.90625 51 48.046875 47.796875 
Q 46.203125 44.59375 43.09375 42.140625 
Q 40 39.703125 36.296875 37.796875 
Q 40.703125 35.59375 44.296875 33 
Q 47.90625 30.40625 50.046875 26.90625 
Q 52.203125 23.40625 52.203125 18.5 
Q 52.203125 9.5 45.796875 4.25 
Q 39.40625 -1 28.796875 -1 
Q 17.203125 -1 11.046875 4.046875 
Q 4.90625 9.09375 4.90625 18.203125 
Q 4.90625 23 6.953125 26.640625 
Q 9 30.296875 12.390625 32.890625 
Q 15.796875 35.5 19.703125 37.296875 
Q 14.40625 40.296875 10.796875 44.546875 
Q 7.203125 48.796875 7.203125 55.40625 
Q 7.203125 60.796875 10 64.59375 
Q 12.796875 68.40625 17.59375 70.40625 
Q 22.40625 72.40625 28.5 72.40625 
z
M 28.40625 65.296875 
Q 22.796875 65.296875 19.296875 62.640625 
Q 15.796875 60 15.796875 55 
Q 15.796875 51.296875 17.546875 48.796875 
Q 19.296875 46.296875 22.296875 44.546875 
Q 25.296875 42.796875 28.90625 41.203125 
Q 34.09375 43.40625 37.640625 46.5 
Q 41.203125 49.59375 41.203125 55 
Q 41.203125 60 37.703125 62.640625 
Q 34.203125 65.296875 28.40625 65.296875 
z
M 13.5 18.09375 
Q 13.5 12.90625 17.203125 9.453125 
Q 20.90625 6 28.59375 6 
Q 35.90625 6 39.75 9.453125 
Q 43.59375 12.90625 43.59375 18.40625 
Q 43.59375 23.59375 39.5 27.046875 
Q 35.40625 30.5 28.59375 33.09375 
L 27 33.703125 
Q 20.40625 30.796875 16.953125 27.1875 
Q 13.5 23.59375 13.5 18.09375 
z
" id="NotoSans-Regular-56"/>
       </defs>
       <use xlink:href="#NotoSans-Regular-48"/>
       <use x="57.199997" xlink:href="#NotoSans-Regular-46"/>
       <use x="83.999985" xlink:href="#NotoSans-Regular-56"/>
      </g>
     </g>
    </g>
    <g id="xtick_6">
     <g id="line2d_6">
      <g>
       <use style="stroke:#000000;stroke-width:0.8;" x="398.487273" xlink:href="#m7c80d02083" y="307.584"/>
      </g>
     </g>
     <g id="text_6">
      <!-- 1.0 -->
      <g transform="translate(391.427116 322.184)scale(0.1 -0.1)">
       <defs>
        <path d="M 35.5 0 
L 26.90625 0 
L 26.90625 49.90625 
Q 26.90625 54.203125 27 56.796875 
Q 27.09375 59.40625 27.296875 62.203125 
Q 25.703125 60.59375 24.34375 59.5 
Q 23 58.40625 21.09375 56.703125 
L 13.5 50.5 
L 8.90625 56.40625 
L 28.203125 71.40625 
L 35.5 71.40625 
z
" id="NotoSans-Regular-49"/>
       </defs>
       <use xlink:href="#NotoSans-Regular-49"/>
       <use x="57.199997" xlink:href="#NotoSans-Regular-46"/>
       <use x="83.999985" xlink:href="#NotoSans-Regular-48"/>
      </g>
     </g>
    </g>
    <g id="text_7">
     <!-- HV Ratio -->
     <g transform="translate(216.120937 336.184)scale(0.1 -0.1)">
      <defs>
       <path d="M 64.296875 0 
L 55.296875 0 
L 55.296875 33.296875 
L 18.703125 33.296875 
L 18.703125 0 
L 9.703125 0 
L 9.703125 71.40625 
L 18.703125 71.40625 
L 18.703125 41.203125 
L 55.296875 41.203125 
L 55.296875 71.40625 
L 64.296875 71.40625 
z
" id="NotoSans-Regular-72"/>
       <path d="M 60 71.40625 
L 34.5 0 
L 25.5 0 
L 0 71.40625 
L 9.40625 71.40625 
L 25.5 25.59375 
Q 27.09375 21.203125 28.140625 17.34375 
Q 29.203125 13.5 30 10 
Q 30.703125 13.5 31.796875 17.390625 
Q 32.90625 21.296875 34.5 25.796875 
L 50.5 71.40625 
z
" id="NotoSans-Regular-86"/>
       <path id="NotoSans-Regular-32"/>
       <path d="M 29.40625 71.40625 
Q 42.703125 71.40625 49.046875 66.34375 
Q 55.40625 61.296875 55.40625 51.09375 
Q 55.40625 45.40625 53.296875 41.59375 
Q 51.203125 37.796875 47.953125 35.5 
Q 44.703125 33.203125 41.09375 32 
L 60.703125 0 
L 50.203125 0 
L 32.90625 29.5 
L 18.703125 29.5 
L 18.703125 0 
L 9.703125 0 
L 9.703125 71.40625 
z
M 28.90625 63.59375 
L 18.703125 63.59375 
L 18.703125 37.09375 
L 29.40625 37.09375 
Q 38.09375 37.09375 42.09375 40.546875 
Q 46.09375 44 46.09375 50.703125 
Q 46.09375 57.703125 41.890625 60.640625 
Q 37.703125 63.59375 28.90625 63.59375 
z
" id="NotoSans-Regular-82"/>
       <path d="M 28.796875 54.5 
Q 38.59375 54.5 43.296875 50.203125 
Q 48 45.90625 48 36.5 
L 48 0 
L 41.59375 0 
L 39.90625 7.59375 
L 39.5 7.59375 
Q 36 3.203125 32.09375 1.09375 
Q 28.203125 -1 21.5 -1 
Q 14.203125 -1 9.390625 2.84375 
Q 4.59375 6.703125 4.59375 14.90625 
Q 4.59375 22.90625 10.890625 27.25 
Q 17.203125 31.59375 30.296875 32 
L 39.40625 32.296875 
L 39.40625 35.5 
Q 39.40625 42.203125 36.5 44.796875 
Q 33.59375 47.40625 28.296875 47.40625 
Q 24.09375 47.40625 20.296875 46.15625 
Q 16.5 44.90625 13.203125 43.296875 
L 10.5 49.90625 
Q 14 51.796875 18.796875 53.140625 
Q 23.59375 54.5 28.796875 54.5 
z
M 39.296875 26.203125 
L 31.40625 25.90625 
Q 21.40625 25.5 17.546875 22.703125 
Q 13.703125 19.90625 13.703125 14.796875 
Q 13.703125 10.296875 16.453125 8.1875 
Q 19.203125 6.09375 23.5 6.09375 
Q 30.203125 6.09375 34.75 9.84375 
Q 39.296875 13.59375 39.296875 21.40625 
z
" id="NotoSans-Regular-97"/>
       <path d="M 26.40625 6.203125 
Q 28.40625 6.203125 30.5 6.5 
Q 32.59375 6.796875 33.90625 7.296875 
L 33.90625 0.59375 
Q 32.5 -0.09375 29.890625 -0.546875 
Q 27.296875 -1 24.90625 -1 
Q 20.703125 -1 17.140625 0.453125 
Q 13.59375 1.90625 11.390625 5.5 
Q 9.203125 9.09375 9.203125 15.59375 
L 9.203125 46.796875 
L 1.59375 46.796875 
L 1.59375 51 
L 9.296875 54.5 
L 12.796875 65.90625 
L 18 65.90625 
L 18 53.59375 
L 33.5 53.59375 
L 33.5 46.796875 
L 18 46.796875 
L 18 15.796875 
Q 18 10.90625 20.34375 8.546875 
Q 22.703125 6.203125 26.40625 6.203125 
z
" id="NotoSans-Regular-116"/>
       <path d="M 13 73.703125 
Q 15 73.703125 16.546875 72.34375 
Q 18.09375 71 18.09375 68.09375 
Q 18.09375 65.203125 16.546875 63.84375 
Q 15 62.5 13 62.5 
Q 10.796875 62.5 9.296875 63.84375 
Q 7.796875 65.203125 7.796875 68.09375 
Q 7.796875 71 9.296875 72.34375 
Q 10.796875 73.703125 13 73.703125 
z
M 17.296875 53.59375 
L 17.296875 0 
L 8.5 0 
L 8.5 53.59375 
z
" id="NotoSans-Regular-105"/>
       <path d="M 55.09375 26.90625 
Q 55.09375 13.59375 48.34375 6.296875 
Q 41.59375 -1 30.09375 -1 
Q 23 -1 17.453125 2.25 
Q 11.90625 5.5 8.703125 11.75 
Q 5.5 18 5.5 26.90625 
Q 5.5 40.203125 12.140625 47.390625 
Q 18.796875 54.59375 30.40625 54.59375 
Q 37.59375 54.59375 43.1875 51.34375 
Q 48.796875 48.09375 51.9375 41.9375 
Q 55.09375 35.796875 55.09375 26.90625 
z
M 14.59375 26.90625 
Q 14.59375 17.40625 18.34375 11.84375 
Q 22.09375 6.296875 30.296875 6.296875 
Q 38.40625 6.296875 42.203125 11.84375 
Q 46 17.40625 46 26.90625 
Q 46 36.40625 42.203125 41.796875 
Q 38.40625 47.203125 30.203125 47.203125 
Q 22 47.203125 18.296875 41.796875 
Q 14.59375 36.40625 14.59375 26.90625 
z
" id="NotoSans-Regular-111"/>
      </defs>
      <use xlink:href="#NotoSans-Regular-72"/>
      <use x="74.099991" xlink:href="#NotoSans-Regular-86"/>
      <use x="134.099976" xlink:href="#NotoSans-Regular-32"/>
      <use x="160.09996" xlink:href="#NotoSans-Regular-82"/>
      <use x="222.299957" xlink:href="#NotoSans-Regular-97"/>
      <use x="278.399948" xlink:href="#NotoSans-Regular-116"/>
      <use x="314.499939" xlink:href="#NotoSans-Regular-105"/>
      <use x="340.299927" xlink:href="#NotoSans-Regular-111"/>
     </g>
    </g>
   </g>
   <g id="matplotlib.axis_2">
    <g id="ytick_1">
     <g id="line2d_7">
      <defs>
       <path d="M 0 0 
L -3.5 0 
" id="mb2636f9734" style="stroke:#000000;stroke-width:0.8;"/>
      </defs>
      <g>
       <use style="stroke:#000000;stroke-width:0.8;" x="57.6" xlink:href="#mb2636f9734" y="295.488"/>
      </g>
     </g>
     <g id="text_8">
      <!-- 0 -->
      <g transform="translate(44.879688 299.288)scale(0.1 -0.1)">
       <use xlink:href="#NotoSans-Regular-48"/>
      </g>
     </g>
    </g>
    <g id="ytick_2">
     <g id="line2d_8">
      <g>
       <use style="stroke:#000000;stroke-width:0.8;" x="57.6" xlink:href="#mb2636f9734" y="250.150669"/>
      </g>
     </g>
     <g id="text_9">
      <!-- 500 -->
      <g transform="translate(33.439063 253.950669)scale(0.1 -0.1)">
       <defs>
        <path d="M 27.5 43.796875 
Q 38.40625 43.796875 44.953125 38.296875 
Q 51.5 32.796875 51.5 22.796875 
Q 51.5 11.703125 44.453125 5.34375 
Q 37.40625 -1 24.796875 -1 
Q 19.203125 -1 14.390625 0 
Q 9.59375 1 6.296875 2.90625 
L 6.296875 11.203125 
Q 9.90625 9 15.046875 7.75 
Q 20.203125 6.5 24.90625 6.5 
Q 32.796875 6.5 37.640625 10.25 
Q 42.5 14 42.5 21.90625 
Q 42.5 28.90625 38.203125 32.65625 
Q 33.90625 36.40625 24.59375 36.40625 
Q 21.796875 36.40625 18.1875 35.90625 
Q 14.59375 35.40625 12.40625 34.90625 
L 8 37.703125 
L 10.703125 71.40625 
L 46.5 71.40625 
L 46.5 63.40625 
L 18.203125 63.40625 
L 16.5 42.703125 
Q 18.203125 43 21.09375 43.390625 
Q 24 43.796875 27.5 43.796875 
z
" id="NotoSans-Regular-53"/>
       </defs>
       <use xlink:href="#NotoSans-Regular-53"/>
       <use x="57.199997" xlink:href="#NotoSans-Regular-48"/>
       <use x="114.399994" xlink:href="#NotoSans-Regular-48"/>
      </g>
     </g>
    </g>
    <g id="ytick_3">
     <g id="line2d_9">
      <g>
       <use style="stroke:#000000;stroke-width:0.8;" x="57.6" xlink:href="#mb2636f9734" y="204.813337"/>
      </g>
     </g>
     <g id="text_10">
      <!-- 1000 -->
      <g transform="translate(27.71875 208.613337)scale(0.1 -0.1)">
       <use xlink:href="#NotoSans-Regular-49"/>
       <use x="57.199997" xlink:href="#NotoSans-Regular-48"/>
       <use x="114.399994" xlink:href="#NotoSans-Regular-48"/>
       <use x="171.599991" xlink:href="#NotoSans-Regular-48"/>
      </g>
     </g>
    </g>
    <g id="ytick_4">
     <g id="line2d_10">
      <g>
       <use style="stroke:#000000;stroke-width:0.8;" x="57.6" xlink:href="#mb2636f9734" y="159.476006"/>
      </g>
     </g>
     <g id="text_11">
      <!-- 1500 -->
      <g transform="translate(27.71875 163.276006)scale(0.1 -0.1)">
       <use xlink:href="#NotoSans-Regular-49"/>
       <use x="57.199997" xlink:href="#NotoSans-Regular-53"/>
       <use x="114.399994" xlink:href="#NotoSans-Regular-48"/>
       <use x="171.599991" xlink:href="#NotoSans-Regular-48"/>
      </g>
     </g>
    </g>
    <g id="ytick_5">
     <g id="line2d_11">
      <g>
       <use style="stroke:#000000;stroke-width:0.8;" x="57.6" xlink:href="#mb2636f9734" y="114.138675"/>
      </g>
     </g>
     <g id="text_12">
      <!-- 2000 -->
      <g transform="translate(27.71875 117.938675)scale(0.1 -0.1)">
       <use xlink:href="#NotoSans-Regular-50"/>
       <use x="57.199997" xlink:href="#NotoSans-Regular-48"/>
       <use x="114.399994" xlink:href="#NotoSans-Regular-48"/>
       <use x="171.599991" xlink:href="#NotoSans-Regular-48"/>
      </g>
     </g>
    </g>
    <g id="ytick_6">
     <g id="line2d_12">
      <g>
       <use style="stroke:#000000;stroke-width:0.8;" x="57.6" xlink:href="#mb2636f9734" y="68.801343"/>
      </g>
     </g>
     <g id="text_13">
      <!-- 2500 -->
      <g transform="translate(27.71875 72.601343)scale(0.1 -0.1)">
       <use xlink:href="#NotoSans-Regular-50"/>
       <use x="57.199997" xlink:href="#NotoSans-Regular-53"/>
       <use x="114.399994" xlink:href="#NotoSans-Regular-48"/>
       <use x="171.599991" xlink:href="#NotoSans-Regular-48"/>
      </g>
     </g>
    </g>
    <g id="text_14">
     <!-- Cost(s) -->
     <g transform="translate(21.31875 190.308469)rotate(-90)scale(0.1 -0.1)">
      <defs>
       <path d="M 40.296875 64.5 
Q 28.796875 64.5 22.1875 56.796875 
Q 15.59375 49.09375 15.59375 35.703125 
Q 15.59375 22.40625 21.75 14.65625 
Q 27.90625 6.90625 40.203125 6.90625 
Q 44.796875 6.90625 49 7.703125 
Q 53.203125 8.5 57.296875 9.703125 
L 57.296875 1.90625 
Q 53.296875 0.40625 49.046875 -0.296875 
Q 44.796875 -1 38.90625 -1 
Q 28 -1 20.703125 3.5 
Q 13.40625 8 9.75 16.296875 
Q 6.09375 24.59375 6.09375 35.796875 
Q 6.09375 46.59375 10.046875 54.84375 
Q 14 63.09375 21.703125 67.75 
Q 29.40625 72.40625 40.40625 72.40625 
Q 51.703125 72.40625 60.09375 68.203125 
L 56.5 60.59375 
Q 53.203125 62.09375 49.140625 63.296875 
Q 45.09375 64.5 40.296875 64.5 
z
" id="NotoSans-Regular-67"/>
       <path d="M 43.40625 14.796875 
Q 43.40625 7 37.59375 3 
Q 31.796875 -1 22 -1 
Q 16.40625 -1 12.34375 -0.09375 
Q 8.296875 0.796875 5.203125 2.40625 
L 5.203125 10.40625 
Q 8.40625 8.796875 12.953125 7.4375 
Q 17.5 6.09375 22.203125 6.09375 
Q 28.90625 6.09375 31.90625 8.25 
Q 34.90625 10.40625 34.90625 14 
Q 34.90625 16 33.796875 17.59375 
Q 32.703125 19.203125 29.84375 20.796875 
Q 27 22.40625 21.703125 24.40625 
Q 16.5 26.40625 12.796875 28.40625 
Q 9.09375 30.40625 7.09375 33.203125 
Q 5.09375 36 5.09375 40.40625 
Q 5.09375 47.203125 10.640625 50.890625 
Q 16.203125 54.59375 25.203125 54.59375 
Q 30.09375 54.59375 34.34375 53.59375 
Q 38.59375 52.59375 42.296875 51 
L 39.296875 44 
Q 35.90625 45.40625 32.203125 46.40625 
Q 28.5 47.40625 24.59375 47.40625 
Q 19.203125 47.40625 16.34375 45.65625 
Q 13.5 43.90625 13.5 40.90625 
Q 13.5 38.59375 14.796875 37.09375 
Q 16.09375 35.59375 19.140625 34.09375 
Q 22.203125 32.59375 27.296875 30.703125 
Q 32.40625 28.796875 36 26.796875 
Q 39.59375 24.796875 41.5 21.9375 
Q 43.40625 19.09375 43.40625 14.796875 
z
" id="NotoSans-Regular-115"/>
       <path d="M 4 27.40625 
Q 4 39.59375 7.546875 50.9375 
Q 11.09375 62.296875 18.703125 71.40625 
L 27 71.40625 
Q 20 62 16.453125 50.703125 
Q 12.90625 39.40625 12.90625 27.5 
Q 12.90625 15.90625 16.453125 4.75 
Q 20 -6.40625 26.90625 -15.796875 
L 18.703125 -15.796875 
Q 11.09375 -7 7.546875 4.140625 
Q 4 15.296875 4 27.40625 
z
" id="NotoSans-Regular-40"/>
       <path d="M 26 27.40625 
Q 26 15.296875 22.453125 4.140625 
Q 18.90625 -7 11.296875 -15.796875 
L 3.09375 -15.796875 
Q 10 -6.40625 13.546875 4.75 
Q 17.09375 15.90625 17.09375 27.5 
Q 17.09375 39.40625 13.546875 50.703125 
Q 10 62 3 71.40625 
L 11.296875 71.40625 
Q 18.90625 62.296875 22.453125 50.9375 
Q 26 39.59375 26 27.40625 
z
" id="NotoSans-Regular-41"/>
      </defs>
      <use xlink:href="#NotoSans-Regular-67"/>
      <use x="63.199997" xlink:href="#NotoSans-Regular-111"/>
      <use x="123.699982" xlink:href="#NotoSans-Regular-115"/>
      <use x="171.599976" xlink:href="#NotoSans-Regular-116"/>
      <use x="207.699966" xlink:href="#NotoSans-Regular-40"/>
      <use x="237.699951" xlink:href="#NotoSans-Regular-115"/>
      <use x="285.599945" xlink:href="#NotoSans-Regular-41"/>
     </g>
    </g>
   </g>
   <g id="line2d_13">
    <path clip-path="url(#pf149cdb17d)" d="M 73.832727 295.487025 
L 106.298182 292.372451 
L 138.763636 291.611107 
L 171.229091 291.062477 
L 203.694545 291.038284 
L 236.16 290.502517 
L 268.625455 290.190792 
L 301.090909 290.490036 
L 333.556364 289.841121 
L 366.021818 289.860088 
L 398.487273 289.211041 
" style="fill:none;stroke:#1f77b4;stroke-linecap:square;stroke-width:1.5;"/>
   </g>
   <g id="line2d_14">
    <path clip-path="url(#pf149cdb17d)" d="M 73.832727 295.457775 
L 106.298182 198.103412 
L 138.763636 170.810339 
L 171.229091 172.533157 
L 203.694545 192.239784 
L 236.16 210.76764 
L 268.625455 199.765781 
L 301.090909 231.532138 
L 333.556364 241.899274 
L 366.021818 266.139634 
L 398.487273 295.488 
" style="fill:none;stroke:#ff7f0e;stroke-linecap:square;stroke-width:1.5;"/>
   </g>
   <g id="line2d_15">
    <path clip-path="url(#pf149cdb17d)" d="M 73.832727 295.488 
L 106.298182 262.361523 
L 138.763636 249.78797 
L 171.229091 245.224012 
L 203.694545 225.426711 
L 236.16 200.098255 
L 268.625455 181.600624 
L 301.090909 159.506231 
L 333.556364 122.450519 
L 366.021818 85.304132 
L 398.487273 53.568 
" style="fill:none;stroke:#2ca02c;stroke-linecap:square;stroke-width:1.5;"/>
   </g>
   <g id="line2d_16">
    <path clip-path="url(#pf149cdb17d)" d="M 73.832727 295.487025 
L 106.298182 289.559087 
L 138.763636 289.731009 
L 171.229091 289.445328 
L 203.694545 289.643651 
L 236.16 289.369845 
L 268.625455 289.160618 
L 301.090909 289.251999 
L 333.556364 289.548442 
L 366.021818 289.290912 
L 398.487273 289.211041 
" style="fill:none;stroke:#d62728;stroke-linecap:square;stroke-width:1.5;"/>
   </g>
   <g id="line2d_17">
    <path clip-path="url(#pf149cdb17d)" d="M 73.832727 295.457775 
L 106.298182 90.170339 
L 138.763636 102.04872 
L 171.229091 126.712228 
L 203.694545 161.893997 
L 236.16 198.76836 
L 268.625455 186.255256 
L 301.090909 223.885241 
L 333.556364 242.382873 
L 366.021818 267.439304 
L 398.487273 295.488 
" style="fill:none;stroke:#9467bd;stroke-linecap:square;stroke-width:1.5;"/>
   </g>
   <g id="line2d_18">
    <path clip-path="url(#pf149cdb17d)" d="M 73.832727 295.488 
L 106.298182 256.135196 
L 138.763636 239.02791 
L 171.229091 229.869769 
L 203.694545 200.309829 
L 236.16 169.480444 
L 268.625455 155.60722 
L 301.090909 116.949589 
L 333.556364 109.000444 
L 366.021818 59.461853 
L 398.487273 53.568 
" style="fill:none;stroke:#8c564b;stroke-linecap:square;stroke-width:1.5;"/>
   </g>
   <g id="patch_3">
    <path d="M 57.6 307.584 
L 57.6 41.472 
" style="fill:none;stroke:#000000;stroke-linecap:square;stroke-linejoin:miter;stroke-width:0.8;"/>
   </g>
   <g id="patch_4">
    <path d="M 414.72 307.584 
L 414.72 41.472 
" style="fill:none;stroke:#000000;stroke-linecap:square;stroke-linejoin:miter;stroke-width:0.8;"/>
   </g>
   <g id="patch_5">
    <path d="M 57.6 307.584 
L 414.72 307.584 
" style="fill:none;stroke:#000000;stroke-linecap:square;stroke-linejoin:miter;stroke-width:0.8;"/>
   </g>
   <g id="patch_6">
    <path d="M 57.6 41.472 
L 414.72 41.472 
" style="fill:none;stroke:#000000;stroke-linecap:square;stroke-linejoin:miter;stroke-width:0.8;"/>
   </g>
   <g id="legend_1">
    <g id="patch_7">
     <path d="M 64.6 139.472 
L 228.295312 139.472 
Q 230.295312 139.472 230.295312 137.472 
L 230.295312 48.472 
Q 230.295312 46.472 228.295312 46.472 
L 64.6 46.472 
Q 62.6 46.472 62.6 48.472 
L 62.6 137.472 
Q 62.6 139.472 64.6 139.472 
z
" style="fill:#ffffff;opacity:0.8;stroke:#cccccc;stroke-linejoin:miter;"/>
    </g>
    <g id="line2d_19">
     <path d="M 66.6 54.572 
L 86.6 54.572 
" style="fill:none;stroke:#1f77b4;stroke-linecap:square;stroke-width:1.5;"/>
    </g>
    <g id="line2d_20"/>
    <g id="text_15">
     <!-- Scheduled total wait time -->
     <g transform="translate(94.6 58.072)scale(0.1 -0.1)">
      <defs>
       <path d="M 50.203125 19.09375 
Q 50.203125 9.59375 43.296875 4.296875 
Q 36.40625 -1 24.703125 -1 
Q 18.703125 -1 13.59375 -0.09375 
Q 8.5 0.796875 5.09375 2.40625 
L 5.09375 11 
Q 8.703125 9.40625 14.046875 8.09375 
Q 19.40625 6.796875 25.09375 6.796875 
Q 33 6.796875 37.09375 9.890625 
Q 41.203125 13 41.203125 18.296875 
Q 41.203125 21.796875 39.703125 24.1875 
Q 38.203125 26.59375 34.5 28.59375 
Q 30.796875 30.59375 24.40625 33 
Q 15.203125 36.296875 10.59375 41.09375 
Q 6 45.90625 6 54.203125 
Q 6 59.796875 8.890625 63.890625 
Q 11.796875 68 16.890625 70.203125 
Q 22 72.40625 28.796875 72.40625 
Q 34.59375 72.40625 39.5 71.296875 
Q 44.40625 70.203125 48.5 68.40625 
L 45.703125 60.703125 
Q 42 62.296875 37.59375 63.390625 
Q 33.203125 64.5 28.59375 64.5 
Q 21.90625 64.5 18.5 61.640625 
Q 15.09375 58.796875 15.09375 54.09375 
Q 15.09375 50.5 16.59375 48.09375 
Q 18.09375 45.703125 21.5 43.75 
Q 24.90625 41.796875 30.703125 39.703125 
Q 37 37.40625 41.34375 34.75 
Q 45.703125 32.09375 47.953125 28.390625 
Q 50.203125 24.703125 50.203125 19.09375 
z
" id="NotoSans-Regular-83"/>
       <path d="M 30 -1 
Q 22.796875 -1 17.296875 1.890625 
Q 11.796875 4.796875 8.640625 10.890625 
Q 5.5 17 5.5 26.5 
Q 5.5 36.40625 8.75 42.59375 
Q 12 48.796875 17.703125 51.6875 
Q 23.40625 54.59375 30.59375 54.59375 
Q 34.59375 54.59375 38.4375 53.75 
Q 42.296875 52.90625 44.703125 51.703125 
L 42 44.40625 
Q 39.59375 45.296875 36.390625 46.09375 
Q 33.203125 46.90625 30.40625 46.90625 
Q 14.59375 46.90625 14.59375 26.59375 
Q 14.59375 16.90625 18.4375 11.75 
Q 22.296875 6.59375 29.90625 6.59375 
Q 34.203125 6.59375 37.59375 7.5 
Q 41 8.40625 43.796875 9.703125 
L 43.796875 1.90625 
Q 41.09375 0.5 37.84375 -0.25 
Q 34.59375 -1 30 -1 
z
" id="NotoSans-Regular-99"/>
       <path d="M 17.296875 76 
L 17.296875 53.703125 
Q 17.296875 49.703125 16.796875 46.203125 
L 17.40625 46.203125 
Q 20 50.296875 24.453125 52.390625 
Q 28.90625 54.5 34.09375 54.5 
Q 43.796875 54.5 48.75 49.84375 
Q 53.703125 45.203125 53.703125 34.90625 
L 53.703125 0 
L 45 0 
L 45 34.296875 
Q 45 47.203125 33 47.203125 
Q 24 47.203125 20.640625 42.140625 
Q 17.296875 37.09375 17.296875 27.703125 
L 17.296875 0 
L 8.5 0 
L 8.5 76 
z
" id="NotoSans-Regular-104"/>
       <path d="M 29.203125 54.59375 
Q 36 54.59375 41 51.59375 
Q 46 48.59375 48.640625 43.140625 
Q 51.296875 37.703125 51.296875 30.40625 
L 51.296875 25.09375 
L 14.59375 25.09375 
Q 14.796875 16 19.25 11.25 
Q 23.703125 6.5 31.703125 6.5 
Q 36.796875 6.5 40.75 7.453125 
Q 44.703125 8.40625 48.90625 10.203125 
L 48.90625 2.5 
Q 44.796875 0.703125 40.796875 -0.140625 
Q 36.796875 -1 31.296875 -1 
Q 23.59375 -1 17.796875 2.09375 
Q 12 5.203125 8.75 11.296875 
Q 5.5 17.40625 5.5 26.40625 
Q 5.5 35.203125 8.453125 41.5 
Q 11.40625 47.796875 16.75 51.1875 
Q 22.09375 54.59375 29.203125 54.59375 
z
M 29.09375 47.40625 
Q 22.796875 47.40625 19.140625 43.34375 
Q 15.5 39.296875 14.796875 32.09375 
L 42.09375 32.09375 
Q 42 38.90625 38.890625 43.15625 
Q 35.796875 47.40625 29.09375 47.40625 
z
" id="NotoSans-Regular-101"/>
       <path d="M 27.5 -1 
Q 17.5 -1 11.5 5.953125 
Q 5.5 12.90625 5.5 26.703125 
Q 5.5 40.5 11.546875 47.546875 
Q 17.59375 54.59375 27.59375 54.59375 
Q 33.796875 54.59375 37.75 52.296875 
Q 41.703125 50 44.203125 46.703125 
L 44.796875 46.703125 
Q 44.59375 48 44.390625 50.546875 
Q 44.203125 53.09375 44.203125 54.59375 
L 44.203125 76 
L 53 76 
L 53 0 
L 45.90625 0 
L 44.59375 7.203125 
L 44.203125 7.203125 
Q 41.796875 3.796875 37.796875 1.390625 
Q 33.796875 -1 27.5 -1 
z
M 28.90625 6.296875 
Q 37.40625 6.296875 40.84375 10.9375 
Q 44.296875 15.59375 44.296875 25 
L 44.296875 26.59375 
Q 44.296875 36.59375 41 41.9375 
Q 37.703125 47.296875 28.796875 47.296875 
Q 21.703125 47.296875 18.140625 41.640625 
Q 14.59375 36 14.59375 26.5 
Q 14.59375 16.90625 18.140625 11.59375 
Q 21.703125 6.296875 28.90625 6.296875 
z
" id="NotoSans-Regular-100"/>
       <path d="M 53.296875 53.59375 
L 53.296875 0 
L 46.09375 0 
L 44.796875 7.09375 
L 44.40625 7.09375 
Q 41.796875 2.90625 37.1875 0.953125 
Q 32.59375 -1 27.40625 -1 
Q 17.703125 -1 12.796875 3.640625 
Q 7.90625 8.296875 7.90625 18.5 
L 7.90625 53.59375 
L 16.796875 53.59375 
L 16.796875 19.09375 
Q 16.796875 6.296875 28.703125 6.296875 
Q 37.59375 6.296875 41.046875 11.296875 
Q 44.5 16.296875 44.5 25.703125 
L 44.5 53.59375 
z
" id="NotoSans-Regular-117"/>
       <path d="M 17.296875 0 
L 8.5 0 
L 8.5 76 
L 17.296875 76 
z
" id="NotoSans-Regular-108"/>
       <path d="M 52.296875 0.09375 
L 43.09375 30.296875 
Q 41.796875 34.40625 40.796875 38.296875 
Q 39.796875 42.203125 39.40625 44.5 
L 39 44.5 
Q 38.59375 42.203125 37.6875 38.296875 
Q 36.796875 34.40625 35.40625 30.203125 
L 25.796875 0.09375 
L 15.796875 0.09375 
L 1.09375 53.703125 
L 10.203125 53.703125 
L 17.59375 25.09375 
Q 18.703125 20.796875 19.703125 16.390625 
Q 20.703125 12 21.09375 9.09375 
L 21.5 9.09375 
Q 21.796875 10.796875 22.390625 13.296875 
Q 23 15.796875 23.703125 18.546875 
Q 24.40625 21.296875 25.09375 23.5 
L 34.59375 53.703125 
L 44.203125 53.703125 
L 53.40625 23.5 
Q 54.40625 20 55.5 16 
Q 56.59375 12 57 9.203125 
L 57.40625 9.203125 
Q 57.703125 11.703125 58.75 16.09375 
Q 59.796875 20.5 61 25.09375 
L 68.5 53.703125 
L 77.5 53.703125 
L 62.59375 0.09375 
z
" id="NotoSans-Regular-119"/>
       <path d="M 67.296875 54.59375 
Q 76.40625 54.59375 80.90625 49.890625 
Q 85.40625 45.203125 85.40625 34.90625 
L 85.40625 0 
L 76.703125 0 
L 76.703125 34.5 
Q 76.703125 47.203125 65.796875 47.203125 
Q 58 47.203125 54.640625 42.703125 
Q 51.296875 38.203125 51.296875 29.59375 
L 51.296875 0 
L 42.59375 0 
L 42.59375 34.5 
Q 42.59375 47.203125 31.59375 47.203125 
Q 23.5 47.203125 20.390625 42.203125 
Q 17.296875 37.203125 17.296875 27.796875 
L 17.296875 0 
L 8.5 0 
L 8.5 53.59375 
L 15.59375 53.59375 
L 16.90625 46.296875 
L 17.40625 46.296875 
Q 19.90625 50.5 24.15625 52.546875 
Q 28.40625 54.59375 33.203125 54.59375 
Q 45.796875 54.59375 49.59375 45.59375 
L 50.09375 45.59375 
Q 52.796875 50.203125 57.390625 52.390625 
Q 62 54.59375 67.296875 54.59375 
z
" id="NotoSans-Regular-109"/>
      </defs>
      <use xlink:href="#NotoSans-Regular-83"/>
      <use x="54.899994" xlink:href="#NotoSans-Regular-99"/>
      <use x="102.899979" xlink:href="#NotoSans-Regular-104"/>
      <use x="164.699966" xlink:href="#NotoSans-Regular-101"/>
      <use x="221.09996" xlink:href="#NotoSans-Regular-100"/>
      <use x="282.599945" xlink:href="#NotoSans-Regular-117"/>
      <use x="344.399933" xlink:href="#NotoSans-Regular-108"/>
      <use x="370.199921" xlink:href="#NotoSans-Regular-101"/>
      <use x="426.599915" xlink:href="#NotoSans-Regular-100"/>
      <use x="488.099899" xlink:href="#NotoSans-Regular-32"/>
      <use x="514.099884" xlink:href="#NotoSans-Regular-116"/>
      <use x="550.199875" xlink:href="#NotoSans-Regular-111"/>
      <use x="610.69986" xlink:href="#NotoSans-Regular-116"/>
      <use x="646.79985" xlink:href="#NotoSans-Regular-97"/>
      <use x="702.899841" xlink:href="#NotoSans-Regular-108"/>
      <use x="728.699829" xlink:href="#NotoSans-Regular-32"/>
      <use x="754.699814" xlink:href="#NotoSans-Regular-119"/>
      <use x="833.299805" xlink:href="#NotoSans-Regular-97"/>
      <use x="889.399796" xlink:href="#NotoSans-Regular-105"/>
      <use x="915.199783" xlink:href="#NotoSans-Regular-116"/>
      <use x="951.299774" xlink:href="#NotoSans-Regular-32"/>
      <use x="977.299759" xlink:href="#NotoSans-Regular-116"/>
      <use x="1013.39975" xlink:href="#NotoSans-Regular-105"/>
      <use x="1039.199738" xlink:href="#NotoSans-Regular-109"/>
      <use x="1132.699722" xlink:href="#NotoSans-Regular-101"/>
     </g>
    </g>
    <g id="line2d_21">
     <path d="M 66.6 69.572 
L 86.6 69.572 
" style="fill:none;stroke:#ff7f0e;stroke-linecap:square;stroke-width:1.5;"/>
    </g>
    <g id="line2d_22"/>
    <g id="text_16">
     <!-- Scheduled CAV wait time -->
     <g transform="translate(94.6 73.072)scale(0.1 -0.1)">
      <defs>
       <path d="M 54.5 0 
L 45.90625 22.09375 
L 17.59375 22.09375 
L 9.09375 0 
L 0 0 
L 27.90625 71.703125 
L 36 71.703125 
L 63.796875 0 
z
M 43.203125 30.09375 
L 35.203125 51.703125 
Q 34.90625 52.5 34.203125 54.59375 
Q 33.5 56.703125 32.84375 58.953125 
Q 32.203125 61.203125 31.796875 62.40625 
Q 31 59.296875 30.140625 56.34375 
Q 29.296875 53.40625 28.703125 51.703125 
L 20.59375 30.09375 
z
" id="NotoSans-Regular-65"/>
      </defs>
      <use xlink:href="#NotoSans-Regular-83"/>
      <use x="54.899994" xlink:href="#NotoSans-Regular-99"/>
      <use x="102.899979" xlink:href="#NotoSans-Regular-104"/>
      <use x="164.699966" xlink:href="#NotoSans-Regular-101"/>
      <use x="221.09996" xlink:href="#NotoSans-Regular-100"/>
      <use x="282.599945" xlink:href="#NotoSans-Regular-117"/>
      <use x="344.399933" xlink:href="#NotoSans-Regular-108"/>
      <use x="370.199921" xlink:href="#NotoSans-Regular-101"/>
      <use x="426.599915" xlink:href="#NotoSans-Regular-100"/>
      <use x="488.099899" xlink:href="#NotoSans-Regular-32"/>
      <use x="514.099884" xlink:href="#NotoSans-Regular-67"/>
      <use x="577.299881" xlink:href="#NotoSans-Regular-65"/>
      <use x="641.199875" xlink:href="#NotoSans-Regular-86"/>
      <use x="701.19986" xlink:href="#NotoSans-Regular-32"/>
      <use x="727.199844" xlink:href="#NotoSans-Regular-119"/>
      <use x="805.799835" xlink:href="#NotoSans-Regular-97"/>
      <use x="861.899826" xlink:href="#NotoSans-Regular-105"/>
      <use x="887.699814" xlink:href="#NotoSans-Regular-116"/>
      <use x="923.799805" xlink:href="#NotoSans-Regular-32"/>
      <use x="949.799789" xlink:href="#NotoSans-Regular-116"/>
      <use x="985.89978" xlink:href="#NotoSans-Regular-105"/>
      <use x="1011.699768" xlink:href="#NotoSans-Regular-109"/>
      <use x="1105.199753" xlink:href="#NotoSans-Regular-101"/>
     </g>
    </g>
    <g id="line2d_23">
     <path d="M 66.6 84.572 
L 86.6 84.572 
" style="fill:none;stroke:#2ca02c;stroke-linecap:square;stroke-width:1.5;"/>
    </g>
    <g id="line2d_24"/>
    <g id="text_17">
     <!-- Scheduled HV wait time -->
     <g transform="translate(94.6 88.072)scale(0.1 -0.1)">
      <use xlink:href="#NotoSans-Regular-83"/>
      <use x="54.899994" xlink:href="#NotoSans-Regular-99"/>
      <use x="102.899979" xlink:href="#NotoSans-Regular-104"/>
      <use x="164.699966" xlink:href="#NotoSans-Regular-101"/>
      <use x="221.09996" xlink:href="#NotoSans-Regular-100"/>
      <use x="282.599945" xlink:href="#NotoSans-Regular-117"/>
      <use x="344.399933" xlink:href="#NotoSans-Regular-108"/>
      <use x="370.199921" xlink:href="#NotoSans-Regular-101"/>
      <use x="426.599915" xlink:href="#NotoSans-Regular-100"/>
      <use x="488.099899" xlink:href="#NotoSans-Regular-32"/>
      <use x="514.099884" xlink:href="#NotoSans-Regular-72"/>
      <use x="588.199875" xlink:href="#NotoSans-Regular-86"/>
      <use x="648.19986" xlink:href="#NotoSans-Regular-32"/>
      <use x="674.199844" xlink:href="#NotoSans-Regular-119"/>
      <use x="752.799835" xlink:href="#NotoSans-Regular-97"/>
      <use x="808.899826" xlink:href="#NotoSans-Regular-105"/>
      <use x="834.699814" xlink:href="#NotoSans-Regular-116"/>
      <use x="870.799805" xlink:href="#NotoSans-Regular-32"/>
      <use x="896.799789" xlink:href="#NotoSans-Regular-116"/>
      <use x="932.89978" xlink:href="#NotoSans-Regular-105"/>
      <use x="958.699768" xlink:href="#NotoSans-Regular-109"/>
      <use x="1052.199753" xlink:href="#NotoSans-Regular-101"/>
     </g>
    </g>
    <g id="line2d_25">
     <path d="M 66.6 99.572 
L 86.6 99.572 
" style="fill:none;stroke:#d62728;stroke-linecap:square;stroke-width:1.5;"/>
    </g>
    <g id="line2d_26"/>
    <g id="text_18">
     <!-- Unscheduled total wait time -->
     <g transform="translate(94.6 103.072)scale(0.1 -0.1)">
      <defs>
       <path d="M 64 71.40625 
L 64 25.203125 
Q 64 17.796875 61 11.84375 
Q 58 5.90625 51.796875 2.453125 
Q 45.59375 -1 36.203125 -1 
Q 22.796875 -1 15.890625 6.25 
Q 9 13.5 9 25.40625 
L 9 71.40625 
L 18 71.40625 
L 18 25.09375 
Q 18 16.40625 22.640625 11.59375 
Q 27.296875 6.796875 36.703125 6.796875 
Q 46.40625 6.796875 50.75 11.9375 
Q 55.09375 17.09375 55.09375 25.203125 
L 55.09375 71.40625 
z
" id="NotoSans-Regular-85"/>
       <path d="M 34.296875 54.59375 
Q 43.90625 54.59375 48.796875 49.890625 
Q 53.703125 45.203125 53.703125 34.90625 
L 53.703125 0 
L 45 0 
L 45 34.296875 
Q 45 47.203125 33 47.203125 
Q 24.09375 47.203125 20.6875 42.203125 
Q 17.296875 37.203125 17.296875 27.796875 
L 17.296875 0 
L 8.5 0 
L 8.5 53.59375 
L 15.59375 53.59375 
L 16.90625 46.296875 
L 17.40625 46.296875 
Q 20 50.5 24.59375 52.546875 
Q 29.203125 54.59375 34.296875 54.59375 
z
" id="NotoSans-Regular-110"/>
      </defs>
      <use xlink:href="#NotoSans-Regular-85"/>
      <use x="73.099991" xlink:href="#NotoSans-Regular-110"/>
      <use x="134.899979" xlink:href="#NotoSans-Regular-115"/>
      <use x="182.799973" xlink:href="#NotoSans-Regular-99"/>
      <use x="230.799957" xlink:href="#NotoSans-Regular-104"/>
      <use x="292.599945" xlink:href="#NotoSans-Regular-101"/>
      <use x="348.999939" xlink:href="#NotoSans-Regular-100"/>
      <use x="410.499924" xlink:href="#NotoSans-Regular-117"/>
      <use x="472.299911" xlink:href="#NotoSans-Regular-108"/>
      <use x="498.099899" xlink:href="#NotoSans-Regular-101"/>
      <use x="554.499893" xlink:href="#NotoSans-Regular-100"/>
      <use x="615.999878" xlink:href="#NotoSans-Regular-32"/>
      <use x="641.999863" xlink:href="#NotoSans-Regular-116"/>
      <use x="678.099854" xlink:href="#NotoSans-Regular-111"/>
      <use x="738.599838" xlink:href="#NotoSans-Regular-116"/>
      <use x="774.699829" xlink:href="#NotoSans-Regular-97"/>
      <use x="830.79982" xlink:href="#NotoSans-Regular-108"/>
      <use x="856.599808" xlink:href="#NotoSans-Regular-32"/>
      <use x="882.599792" xlink:href="#NotoSans-Regular-119"/>
      <use x="961.199783" xlink:href="#NotoSans-Regular-97"/>
      <use x="1017.299774" xlink:href="#NotoSans-Regular-105"/>
      <use x="1043.099762" xlink:href="#NotoSans-Regular-116"/>
      <use x="1079.199753" xlink:href="#NotoSans-Regular-32"/>
      <use x="1105.199738" xlink:href="#NotoSans-Regular-116"/>
      <use x="1141.299728" xlink:href="#NotoSans-Regular-105"/>
      <use x="1167.099716" xlink:href="#NotoSans-Regular-109"/>
      <use x="1260.599701" xlink:href="#NotoSans-Regular-101"/>
     </g>
    </g>
    <g id="line2d_27">
     <path d="M 66.6 114.572 
L 86.6 114.572 
" style="fill:none;stroke:#9467bd;stroke-linecap:square;stroke-width:1.5;"/>
    </g>
    <g id="line2d_28"/>
    <g id="text_19">
     <!-- Unscheduled CAV wait time -->
     <g transform="translate(94.6 118.072)scale(0.1 -0.1)">
      <use xlink:href="#NotoSans-Regular-85"/>
      <use x="73.099991" xlink:href="#NotoSans-Regular-110"/>
      <use x="134.899979" xlink:href="#NotoSans-Regular-115"/>
      <use x="182.799973" xlink:href="#NotoSans-Regular-99"/>
      <use x="230.799957" xlink:href="#NotoSans-Regular-104"/>
      <use x="292.599945" xlink:href="#NotoSans-Regular-101"/>
      <use x="348.999939" xlink:href="#NotoSans-Regular-100"/>
      <use x="410.499924" xlink:href="#NotoSans-Regular-117"/>
      <use x="472.299911" xlink:href="#NotoSans-Regular-108"/>
      <use x="498.099899" xlink:href="#NotoSans-Regular-101"/>
      <use x="554.499893" xlink:href="#NotoSans-Regular-100"/>
      <use x="615.999878" xlink:href="#NotoSans-Regular-32"/>
      <use x="641.999863" xlink:href="#NotoSans-Regular-67"/>
      <use x="705.19986" xlink:href="#NotoSans-Regular-65"/>
      <use x="769.099854" xlink:href="#NotoSans-Regular-86"/>
      <use x="829.099838" xlink:href="#NotoSans-Regular-32"/>
      <use x="855.099823" xlink:href="#NotoSans-Regular-119"/>
      <use x="933.699814" xlink:href="#NotoSans-Regular-97"/>
      <use x="989.799805" xlink:href="#NotoSans-Regular-105"/>
      <use x="1015.599792" xlink:href="#NotoSans-Regular-116"/>
      <use x="1051.699783" xlink:href="#NotoSans-Regular-32"/>
      <use x="1077.699768" xlink:href="#NotoSans-Regular-116"/>
      <use x="1113.799759" xlink:href="#NotoSans-Regular-105"/>
      <use x="1139.599747" xlink:href="#NotoSans-Regular-109"/>
      <use x="1233.099731" xlink:href="#NotoSans-Regular-101"/>
     </g>
    </g>
    <g id="line2d_29">
     <path d="M 66.6 129.572 
L 86.6 129.572 
" style="fill:none;stroke:#8c564b;stroke-linecap:square;stroke-width:1.5;"/>
    </g>
    <g id="line2d_30"/>
    <g id="text_20">
     <!-- Unscheduled HV wait time -->
     <g transform="translate(94.6 133.072)scale(0.1 -0.1)">
      <use xlink:href="#NotoSans-Regular-85"/>
      <use x="73.099991" xlink:href="#NotoSans-Regular-110"/>
      <use x="134.899979" xlink:href="#NotoSans-Regular-115"/>
      <use x="182.799973" xlink:href="#NotoSans-Regular-99"/>
      <use x="230.799957" xlink:href="#NotoSans-Regular-104"/>
      <use x="292.599945" xlink:href="#NotoSans-Regular-101"/>
      <use x="348.999939" xlink:href="#NotoSans-Regular-100"/>
      <use x="410.499924" xlink:href="#NotoSans-Regular-117"/>
      <use x="472.299911" xlink:href="#NotoSans-Regular-108"/>
      <use x="498.099899" xlink:href="#NotoSans-Regular-101"/>
      <use x="554.499893" xlink:href="#NotoSans-Regular-100"/>
      <use x="615.999878" xlink:href="#NotoSans-Regular-32"/>
      <use x="641.999863" xlink:href="#NotoSans-Regular-72"/>
      <use x="716.099854" xlink:href="#NotoSans-Regular-86"/>
      <use x="776.099838" xlink:href="#NotoSans-Regular-32"/>
      <use x="802.099823" xlink:href="#NotoSans-Regular-119"/>
      <use x="880.699814" xlink:href="#NotoSans-Regular-97"/>
      <use x="936.799805" xlink:href="#NotoSans-Regular-105"/>
      <use x="962.599792" xlink:href="#NotoSans-Regular-116"/>
      <use x="998.699783" xlink:href="#NotoSans-Regular-32"/>
      <use x="1024.699768" xlink:href="#NotoSans-Regular-116"/>
      <use x="1060.799759" xlink:href="#NotoSans-Regular-105"/>
      <use x="1086.599747" xlink:href="#NotoSans-Regular-109"/>
      <use x="1180.099731" xlink:href="#NotoSans-Regular-101"/>
     </g>
    </g>
   </g>
  </g>
 </g>
 <defs>
  <clipPath id="pf149cdb17d">
   <rect height="266.112" width="357.12" x="57.6" y="41.472"/>
  </clipPath>
 </defs>
</svg>
