<?xml version="1.0" encoding="utf-8" standalone="no"?>
<!DOCTYPE svg PUBLIC "-//W3C//DTD SVG 1.1//EN"
  "http://www.w3.org/Graphics/SVG/1.1/DTD/svg11.dtd">
<!-- Created with matplotlib (https://matplotlib.org/) -->
<svg height="345.6pt" version="1.1" viewBox="0 0 460.8 345.6" width="460.8pt" xmlns="http://www.w3.org/2000/svg" xmlns:xlink="http://www.w3.org/1999/xlink">
 <metadata>
  <rdf:RDF xmlns:cc="http://creativecommons.org/ns#" xmlns:dc="http://purl.org/dc/elements/1.1/" xmlns:rdf="http://www.w3.org/1999/02/22-rdf-syntax-ns#">
   <cc:Work>
    <dc:type rdf:resource="http://purl.org/dc/dcmitype/StillImage"/>
    <dc:date>2022-04-20T11:00:17.390061</dc:date>
    <dc:format>image/svg+xml</dc:format>
    <dc:creator>
     <cc:Agent>
      <dc:title>Matplotlib v3.3.3, https://matplotlib.org/</dc:title>
     </cc:Agent>
    </dc:creator>
   </cc:Work>
  </rdf:RDF>
 </metadata>
 <defs>
  <style type="text/css">*{stroke-linecap:butt;stroke-linejoin:round;}</style>
 </defs>
 <g id="figure_1">
  <g id="patch_1">
   <path d="M 0 345.6 
L 460.8 345.6 
L 460.8 0 
L 0 0 
z
" style="fill:#ffffff;"/>
  </g>
  <g id="axes_1">
   <g id="patch_2">
    <path d="M 57.6 307.584 
L 414.72 307.584 
L 414.72 41.472 
L 57.6 41.472 
z
" style="fill:#ffffff;"/>
   </g>
   <g id="matplotlib.axis_1">
    <g id="xtick_1">
     <g id="line2d_1">
      <defs>
       <path d="M 0 0 
L 0 3.5 
" id="m4b3d7cce94" style="stroke:#000000;stroke-width:0.8;"/>
      </defs>
      <g>
       <use style="stroke:#000000;stroke-width:0.8;" x="73.832727" xlink:href="#m4b3d7cce94" y="307.584"/>
      </g>
     </g>
     <g id="text_1">
      <!-- 0.0 -->
      <g transform="translate(66.772571 322.184)scale(0.1 -0.1)">
       <defs>
        <path d="M 52.296875 35.796875 
Q 52.296875 24.203125 49.890625 16 
Q 47.5 7.796875 42.25 3.390625 
Q 37 -1 28.5 -1 
Q 16.40625 -1 10.65625 8.75 
Q 4.90625 18.5 4.90625 35.796875 
Q 4.90625 47.40625 7.25 55.59375 
Q 9.59375 63.796875 14.796875 68.140625 
Q 20 72.5 28.5 72.5 
Q 40.5 72.5 46.390625 62.84375 
Q 52.296875 53.203125 52.296875 35.796875 
z
M 13.703125 35.796875 
Q 13.703125 21.09375 17.046875 13.796875 
Q 20.40625 6.5 28.5 6.5 
Q 36.5 6.5 39.953125 13.75 
Q 43.40625 21 43.40625 35.796875 
Q 43.40625 50.40625 39.953125 57.703125 
Q 36.5 65 28.5 65 
Q 20.40625 65 17.046875 57.703125 
Q 13.703125 50.40625 13.703125 35.796875 
z
" id="NotoSans-Regular-48"/>
        <path d="M 7.203125 5.40625 
Q 7.203125 9.09375 9 10.59375 
Q 10.796875 12.09375 13.296875 12.09375 
Q 15.796875 12.09375 17.6875 10.59375 
Q 19.59375 9.09375 19.59375 5.40625 
Q 19.59375 1.796875 17.6875 0.1875 
Q 15.796875 -1.40625 13.296875 -1.40625 
Q 10.796875 -1.40625 9 0.1875 
Q 7.203125 1.796875 7.203125 5.40625 
z
" id="NotoSans-Regular-46"/>
       </defs>
       <use xlink:href="#NotoSans-Regular-48"/>
       <use x="57.199997" xlink:href="#NotoSans-Regular-46"/>
       <use x="83.999985" xlink:href="#NotoSans-Regular-48"/>
      </g>
     </g>
    </g>
    <g id="xtick_2">
     <g id="line2d_2">
      <g>
       <use style="stroke:#000000;stroke-width:0.8;" x="138.763636" xlink:href="#m4b3d7cce94" y="307.584"/>
      </g>
     </g>
     <g id="text_2">
      <!-- 0.2 -->
      <g transform="translate(131.70348 322.184)scale(0.1 -0.1)">
       <defs>
        <path d="M 52 0 
L 4.796875 0 
L 4.796875 7.296875 
L 23.5 26.203125 
Q 28.796875 31.59375 32.546875 35.796875 
Q 36.296875 40 38.1875 44 
Q 40.09375 48 40.09375 52.90625 
Q 40.09375 58.796875 36.59375 61.84375 
Q 33.09375 64.90625 27.5 64.90625 
Q 22.203125 64.90625 18.296875 63.09375 
Q 14.40625 61.296875 10.296875 58.09375 
L 5.59375 64 
Q 9.796875 67.5 15.25 69.953125 
Q 20.703125 72.40625 27.5 72.40625 
Q 37.5 72.40625 43.296875 67.296875 
Q 49.09375 62.203125 49.09375 53.40625 
Q 49.09375 47.796875 46.796875 42.890625 
Q 44.5 38 40.390625 33.203125 
Q 36.296875 28.40625 30.796875 23.09375 
L 15.90625 8.40625 
L 15.90625 8 
L 52 8 
z
" id="NotoSans-Regular-50"/>
       </defs>
       <use xlink:href="#NotoSans-Regular-48"/>
       <use x="57.199997" xlink:href="#NotoSans-Regular-46"/>
       <use x="83.999985" xlink:href="#NotoSans-Regular-50"/>
      </g>
     </g>
    </g>
    <g id="xtick_3">
     <g id="line2d_3">
      <g>
       <use style="stroke:#000000;stroke-width:0.8;" x="203.694545" xlink:href="#m4b3d7cce94" y="307.584"/>
      </g>
     </g>
     <g id="text_3">
      <!-- 0.4 -->
      <g transform="translate(196.634389 322.184)scale(0.1 -0.1)">
       <defs>
        <path d="M 55.203125 16.203125 
L 44.796875 16.203125 
L 44.796875 0 
L 36.296875 0 
L 36.296875 16.203125 
L 2.09375 16.203125 
L 2.09375 23.703125 
L 35.703125 71.796875 
L 44.796875 71.796875 
L 44.796875 24.09375 
L 55.203125 24.09375 
z
M 36.296875 24.09375 
L 36.296875 46.59375 
Q 36.296875 51.796875 36.4375 55.4375 
Q 36.59375 59.09375 36.796875 62.40625 
L 36.40625 62.40625 
Q 35.59375 60.5 34.390625 58.296875 
Q 33.203125 56.09375 32.09375 54.59375 
L 10.703125 24.09375 
z
" id="NotoSans-Regular-52"/>
       </defs>
       <use xlink:href="#NotoSans-Regular-48"/>
       <use x="57.199997" xlink:href="#NotoSans-Regular-46"/>
       <use x="83.999985" xlink:href="#NotoSans-Regular-52"/>
      </g>
     </g>
    </g>
    <g id="xtick_4">
     <g id="line2d_4">
      <g>
       <use style="stroke:#000000;stroke-width:0.8;" x="268.625455" xlink:href="#m4b3d7cce94" y="307.584"/>
      </g>
     </g>
     <g id="text_4">
      <!-- 0.6 -->
      <g transform="translate(261.565298 322.184)scale(0.1 -0.1)">
       <defs>
        <path d="M 5.5 30.5 
Q 5.5 38.203125 6.84375 45.640625 
Q 8.203125 53.09375 11.75 59.140625 
Q 15.296875 65.203125 21.6875 68.796875 
Q 28.09375 72.40625 38.203125 72.40625 
Q 40.296875 72.40625 42.84375 72.203125 
Q 45.40625 72 47 71.5 
L 47 64 
Q 45.203125 64.59375 42.890625 64.890625 
Q 40.59375 65.203125 38.40625 65.203125 
Q 31.5 65.203125 26.890625 62.890625 
Q 22.296875 60.59375 19.640625 56.59375 
Q 17 52.59375 15.796875 47.390625 
Q 14.59375 42.203125 14.296875 36.296875 
L 14.90625 36.296875 
Q 17.203125 39.796875 21.296875 42.25 
Q 25.40625 44.703125 31.796875 44.703125 
Q 41.09375 44.703125 46.796875 39.046875 
Q 52.5 33.40625 52.5 23 
Q 52.5 11.796875 46.34375 5.390625 
Q 40.203125 -1 29.796875 -1 
Q 23 -1 17.5 2.390625 
Q 12 5.796875 8.75 12.796875 
Q 5.5 19.796875 5.5 30.5 
z
M 29.703125 6.40625 
Q 36 6.40625 39.890625 10.453125 
Q 43.796875 14.5 43.796875 23 
Q 43.796875 29.796875 40.34375 33.796875 
Q 36.90625 37.796875 30 37.796875 
Q 25.296875 37.796875 21.796875 35.84375 
Q 18.296875 33.90625 16.34375 30.84375 
Q 14.40625 27.796875 14.40625 24.703125 
Q 14.40625 20.40625 16.09375 16.15625 
Q 17.796875 11.90625 21.1875 9.15625 
Q 24.59375 6.40625 29.703125 6.40625 
z
" id="NotoSans-Regular-54"/>
       </defs>
       <use xlink:href="#NotoSans-Regular-48"/>
       <use x="57.199997" xlink:href="#NotoSans-Regular-46"/>
       <use x="83.999985" xlink:href="#NotoSans-Regular-54"/>
      </g>
     </g>
    </g>
    <g id="xtick_5">
     <g id="line2d_5">
      <g>
       <use style="stroke:#000000;stroke-width:0.8;" x="333.556364" xlink:href="#m4b3d7cce94" y="307.584"/>
      </g>
     </g>
     <g id="text_5">
      <!-- 0.8 -->
      <g transform="translate(326.496207 322.184)scale(0.1 -0.1)">
       <defs>
        <path d="M 28.5 72.40625 
Q 37.90625 72.40625 43.90625 68 
Q 49.90625 63.59375 49.90625 55.296875 
Q 49.90625 51 48.046875 47.796875 
Q 46.203125 44.59375 43.09375 42.140625 
Q 40 39.703125 36.296875 37.796875 
Q 40.703125 35.59375 44.296875 33 
Q 47.90625 30.40625 50.046875 26.90625 
Q 52.203125 23.40625 52.203125 18.5 
Q 52.203125 9.5 45.796875 4.25 
Q 39.40625 -1 28.796875 -1 
Q 17.203125 -1 11.046875 4.046875 
Q 4.90625 9.09375 4.90625 18.203125 
Q 4.90625 23 6.953125 26.640625 
Q 9 30.296875 12.390625 32.890625 
Q 15.796875 35.5 19.703125 37.296875 
Q 14.40625 40.296875 10.796875 44.546875 
Q 7.203125 48.796875 7.203125 55.40625 
Q 7.203125 60.796875 10 64.59375 
Q 12.796875 68.40625 17.59375 70.40625 
Q 22.40625 72.40625 28.5 72.40625 
z
M 28.40625 65.296875 
Q 22.796875 65.296875 19.296875 62.640625 
Q 15.796875 60 15.796875 55 
Q 15.796875 51.296875 17.546875 48.796875 
Q 19.296875 46.296875 22.296875 44.546875 
Q 25.296875 42.796875 28.90625 41.203125 
Q 34.09375 43.40625 37.640625 46.5 
Q 41.203125 49.59375 41.203125 55 
Q 41.203125 60 37.703125 62.640625 
Q 34.203125 65.296875 28.40625 65.296875 
z
M 13.5 18.09375 
Q 13.5 12.90625 17.203125 9.453125 
Q 20.90625 6 28.59375 6 
Q 35.90625 6 39.75 9.453125 
Q 43.59375 12.90625 43.59375 18.40625 
Q 43.59375 23.59375 39.5 27.046875 
Q 35.40625 30.5 28.59375 33.09375 
L 27 33.703125 
Q 20.40625 30.796875 16.953125 27.1875 
Q 13.5 23.59375 13.5 18.09375 
z
" id="NotoSans-Regular-56"/>
       </defs>
       <use xlink:href="#NotoSans-Regular-48"/>
       <use x="57.199997" xlink:href="#NotoSans-Regular-46"/>
       <use x="83.999985" xlink:href="#NotoSans-Regular-56"/>
      </g>
     </g>
    </g>
    <g id="xtick_6">
     <g id="line2d_6">
      <g>
       <use style="stroke:#000000;stroke-width:0.8;" x="398.487273" xlink:href="#m4b3d7cce94" y="307.584"/>
      </g>
     </g>
     <g id="text_6">
      <!-- 1.0 -->
      <g transform="translate(391.427116 322.184)scale(0.1 -0.1)">
       <defs>
        <path d="M 35.5 0 
L 26.90625 0 
L 26.90625 49.90625 
Q 26.90625 54.203125 27 56.796875 
Q 27.09375 59.40625 27.296875 62.203125 
Q 25.703125 60.59375 24.34375 59.5 
Q 23 58.40625 21.09375 56.703125 
L 13.5 50.5 
L 8.90625 56.40625 
L 28.203125 71.40625 
L 35.5 71.40625 
z
" id="NotoSans-Regular-49"/>
       </defs>
       <use xlink:href="#NotoSans-Regular-49"/>
       <use x="57.199997" xlink:href="#NotoSans-Regular-46"/>
       <use x="83.999985" xlink:href="#NotoSans-Regular-48"/>
      </g>
     </g>
    </g>
    <g id="text_7">
     <!-- HV Ratio -->
     <g transform="translate(216.120937 336.184)scale(0.1 -0.1)">
      <defs>
       <path d="M 64.296875 0 
L 55.296875 0 
L 55.296875 33.296875 
L 18.703125 33.296875 
L 18.703125 0 
L 9.703125 0 
L 9.703125 71.40625 
L 18.703125 71.40625 
L 18.703125 41.203125 
L 55.296875 41.203125 
L 55.296875 71.40625 
L 64.296875 71.40625 
z
" id="NotoSans-Regular-72"/>
       <path d="M 60 71.40625 
L 34.5 0 
L 25.5 0 
L 0 71.40625 
L 9.40625 71.40625 
L 25.5 25.59375 
Q 27.09375 21.203125 28.140625 17.34375 
Q 29.203125 13.5 30 10 
Q 30.703125 13.5 31.796875 17.390625 
Q 32.90625 21.296875 34.5 25.796875 
L 50.5 71.40625 
z
" id="NotoSans-Regular-86"/>
       <path id="NotoSans-Regular-32"/>
       <path d="M 29.40625 71.40625 
Q 42.703125 71.40625 49.046875 66.34375 
Q 55.40625 61.296875 55.40625 51.09375 
Q 55.40625 45.40625 53.296875 41.59375 
Q 51.203125 37.796875 47.953125 35.5 
Q 44.703125 33.203125 41.09375 32 
L 60.703125 0 
L 50.203125 0 
L 32.90625 29.5 
L 18.703125 29.5 
L 18.703125 0 
L 9.703125 0 
L 9.703125 71.40625 
z
M 28.90625 63.59375 
L 18.703125 63.59375 
L 18.703125 37.09375 
L 29.40625 37.09375 
Q 38.09375 37.09375 42.09375 40.546875 
Q 46.09375 44 46.09375 50.703125 
Q 46.09375 57.703125 41.890625 60.640625 
Q 37.703125 63.59375 28.90625 63.59375 
z
" id="NotoSans-Regular-82"/>
       <path d="M 28.796875 54.5 
Q 38.59375 54.5 43.296875 50.203125 
Q 48 45.90625 48 36.5 
L 48 0 
L 41.59375 0 
L 39.90625 7.59375 
L 39.5 7.59375 
Q 36 3.203125 32.09375 1.09375 
Q 28.203125 -1 21.5 -1 
Q 14.203125 -1 9.390625 2.84375 
Q 4.59375 6.703125 4.59375 14.90625 
Q 4.59375 22.90625 10.890625 27.25 
Q 17.203125 31.59375 30.296875 32 
L 39.40625 32.296875 
L 39.40625 35.5 
Q 39.40625 42.203125 36.5 44.796875 
Q 33.59375 47.40625 28.296875 47.40625 
Q 24.09375 47.40625 20.296875 46.15625 
Q 16.5 44.90625 13.203125 43.296875 
L 10.5 49.90625 
Q 14 51.796875 18.796875 53.140625 
Q 23.59375 54.5 28.796875 54.5 
z
M 39.296875 26.203125 
L 31.40625 25.90625 
Q 21.40625 25.5 17.546875 22.703125 
Q 13.703125 19.90625 13.703125 14.796875 
Q 13.703125 10.296875 16.453125 8.1875 
Q 19.203125 6.09375 23.5 6.09375 
Q 30.203125 6.09375 34.75 9.84375 
Q 39.296875 13.59375 39.296875 21.40625 
z
" id="NotoSans-Regular-97"/>
       <path d="M 26.40625 6.203125 
Q 28.40625 6.203125 30.5 6.5 
Q 32.59375 6.796875 33.90625 7.296875 
L 33.90625 0.59375 
Q 32.5 -0.09375 29.890625 -0.546875 
Q 27.296875 -1 24.90625 -1 
Q 20.703125 -1 17.140625 0.453125 
Q 13.59375 1.90625 11.390625 5.5 
Q 9.203125 9.09375 9.203125 15.59375 
L 9.203125 46.796875 
L 1.59375 46.796875 
L 1.59375 51 
L 9.296875 54.5 
L 12.796875 65.90625 
L 18 65.90625 
L 18 53.59375 
L 33.5 53.59375 
L 33.5 46.796875 
L 18 46.796875 
L 18 15.796875 
Q 18 10.90625 20.34375 8.546875 
Q 22.703125 6.203125 26.40625 6.203125 
z
" id="NotoSans-Regular-116"/>
       <path d="M 13 73.703125 
Q 15 73.703125 16.546875 72.34375 
Q 18.09375 71 18.09375 68.09375 
Q 18.09375 65.203125 16.546875 63.84375 
Q 15 62.5 13 62.5 
Q 10.796875 62.5 9.296875 63.84375 
Q 7.796875 65.203125 7.796875 68.09375 
Q 7.796875 71 9.296875 72.34375 
Q 10.796875 73.703125 13 73.703125 
z
M 17.296875 53.59375 
L 17.296875 0 
L 8.5 0 
L 8.5 53.59375 
z
" id="NotoSans-Regular-105"/>
       <path d="M 55.09375 26.90625 
Q 55.09375 13.59375 48.34375 6.296875 
Q 41.59375 -1 30.09375 -1 
Q 23 -1 17.453125 2.25 
Q 11.90625 5.5 8.703125 11.75 
Q 5.5 18 5.5 26.90625 
Q 5.5 40.203125 12.140625 47.390625 
Q 18.796875 54.59375 30.40625 54.59375 
Q 37.59375 54.59375 43.1875 51.34375 
Q 48.796875 48.09375 51.9375 41.9375 
Q 55.09375 35.796875 55.09375 26.90625 
z
M 14.59375 26.90625 
Q 14.59375 17.40625 18.34375 11.84375 
Q 22.09375 6.296875 30.296875 6.296875 
Q 38.40625 6.296875 42.203125 11.84375 
Q 46 17.40625 46 26.90625 
Q 46 36.40625 42.203125 41.796875 
Q 38.40625 47.203125 30.203125 47.203125 
Q 22 47.203125 18.296875 41.796875 
Q 14.59375 36.40625 14.59375 26.90625 
z
" id="NotoSans-Regular-111"/>
      </defs>
      <use xlink:href="#NotoSans-Regular-72"/>
      <use x="74.099991" xlink:href="#NotoSans-Regular-86"/>
      <use x="134.099976" xlink:href="#NotoSans-Regular-32"/>
      <use x="160.09996" xlink:href="#NotoSans-Regular-82"/>
      <use x="222.299957" xlink:href="#NotoSans-Regular-97"/>
      <use x="278.399948" xlink:href="#NotoSans-Regular-116"/>
      <use x="314.499939" xlink:href="#NotoSans-Regular-105"/>
      <use x="340.299927" xlink:href="#NotoSans-Regular-111"/>
     </g>
    </g>
   </g>
   <g id="matplotlib.axis_2">
    <g id="ytick_1">
     <g id="line2d_7">
      <defs>
       <path d="M 0 0 
L -3.5 0 
" id="m2a164fddce" style="stroke:#000000;stroke-width:0.8;"/>
      </defs>
      <g>
       <use style="stroke:#000000;stroke-width:0.8;" x="57.6" xlink:href="#m2a164fddce" y="303.850186"/>
      </g>
     </g>
     <g id="text_8">
      <!-- 0 -->
      <g transform="translate(44.879688 307.650186)scale(0.1 -0.1)">
       <use xlink:href="#NotoSans-Regular-48"/>
      </g>
     </g>
    </g>
    <g id="ytick_2">
     <g id="line2d_8">
      <g>
       <use style="stroke:#000000;stroke-width:0.8;" x="57.6" xlink:href="#m2a164fddce" y="264.956296"/>
      </g>
     </g>
     <g id="text_9">
      <!-- 2 -->
      <g transform="translate(44.879688 268.756296)scale(0.1 -0.1)">
       <use xlink:href="#NotoSans-Regular-50"/>
      </g>
     </g>
    </g>
    <g id="ytick_3">
     <g id="line2d_9">
      <g>
       <use style="stroke:#000000;stroke-width:0.8;" x="57.6" xlink:href="#m2a164fddce" y="226.062405"/>
      </g>
     </g>
     <g id="text_10">
      <!-- 4 -->
      <g transform="translate(44.879688 229.862405)scale(0.1 -0.1)">
       <use xlink:href="#NotoSans-Regular-52"/>
      </g>
     </g>
    </g>
    <g id="ytick_4">
     <g id="line2d_10">
      <g>
       <use style="stroke:#000000;stroke-width:0.8;" x="57.6" xlink:href="#m2a164fddce" y="187.168514"/>
      </g>
     </g>
     <g id="text_11">
      <!-- 6 -->
      <g transform="translate(44.879688 190.968514)scale(0.1 -0.1)">
       <use xlink:href="#NotoSans-Regular-54"/>
      </g>
     </g>
    </g>
    <g id="ytick_5">
     <g id="line2d_11">
      <g>
       <use style="stroke:#000000;stroke-width:0.8;" x="57.6" xlink:href="#m2a164fddce" y="148.274624"/>
      </g>
     </g>
     <g id="text_12">
      <!-- 8 -->
      <g transform="translate(44.879688 152.074624)scale(0.1 -0.1)">
       <use xlink:href="#NotoSans-Regular-56"/>
      </g>
     </g>
    </g>
    <g id="ytick_6">
     <g id="line2d_12">
      <g>
       <use style="stroke:#000000;stroke-width:0.8;" x="57.6" xlink:href="#m2a164fddce" y="109.380733"/>
      </g>
     </g>
     <g id="text_13">
      <!-- 10 -->
      <g transform="translate(39.159375 113.180733)scale(0.1 -0.1)">
       <use xlink:href="#NotoSans-Regular-49"/>
       <use x="57.199997" xlink:href="#NotoSans-Regular-48"/>
      </g>
     </g>
    </g>
    <g id="ytick_7">
     <g id="line2d_13">
      <g>
       <use style="stroke:#000000;stroke-width:0.8;" x="57.6" xlink:href="#m2a164fddce" y="70.486842"/>
      </g>
     </g>
     <g id="text_14">
      <!-- 12 -->
      <g transform="translate(39.159375 74.286842)scale(0.1 -0.1)">
       <use xlink:href="#NotoSans-Regular-49"/>
       <use x="57.199997" xlink:href="#NotoSans-Regular-50"/>
      </g>
     </g>
    </g>
    <g id="text_15">
     <!-- Cost(s) -->
     <g transform="translate(32.759375 190.308469)rotate(-90)scale(0.1 -0.1)">
      <defs>
       <path d="M 40.296875 64.5 
Q 28.796875 64.5 22.1875 56.796875 
Q 15.59375 49.09375 15.59375 35.703125 
Q 15.59375 22.40625 21.75 14.65625 
Q 27.90625 6.90625 40.203125 6.90625 
Q 44.796875 6.90625 49 7.703125 
Q 53.203125 8.5 57.296875 9.703125 
L 57.296875 1.90625 
Q 53.296875 0.40625 49.046875 -0.296875 
Q 44.796875 -1 38.90625 -1 
Q 28 -1 20.703125 3.5 
Q 13.40625 8 9.75 16.296875 
Q 6.09375 24.59375 6.09375 35.796875 
Q 6.09375 46.59375 10.046875 54.84375 
Q 14 63.09375 21.703125 67.75 
Q 29.40625 72.40625 40.40625 72.40625 
Q 51.703125 72.40625 60.09375 68.203125 
L 56.5 60.59375 
Q 53.203125 62.09375 49.140625 63.296875 
Q 45.09375 64.5 40.296875 64.5 
z
" id="NotoSans-Regular-67"/>
       <path d="M 43.40625 14.796875 
Q 43.40625 7 37.59375 3 
Q 31.796875 -1 22 -1 
Q 16.40625 -1 12.34375 -0.09375 
Q 8.296875 0.796875 5.203125 2.40625 
L 5.203125 10.40625 
Q 8.40625 8.796875 12.953125 7.4375 
Q 17.5 6.09375 22.203125 6.09375 
Q 28.90625 6.09375 31.90625 8.25 
Q 34.90625 10.40625 34.90625 14 
Q 34.90625 16 33.796875 17.59375 
Q 32.703125 19.203125 29.84375 20.796875 
Q 27 22.40625 21.703125 24.40625 
Q 16.5 26.40625 12.796875 28.40625 
Q 9.09375 30.40625 7.09375 33.203125 
Q 5.09375 36 5.09375 40.40625 
Q 5.09375 47.203125 10.640625 50.890625 
Q 16.203125 54.59375 25.203125 54.59375 
Q 30.09375 54.59375 34.34375 53.59375 
Q 38.59375 52.59375 42.296875 51 
L 39.296875 44 
Q 35.90625 45.40625 32.203125 46.40625 
Q 28.5 47.40625 24.59375 47.40625 
Q 19.203125 47.40625 16.34375 45.65625 
Q 13.5 43.90625 13.5 40.90625 
Q 13.5 38.59375 14.796875 37.09375 
Q 16.09375 35.59375 19.140625 34.09375 
Q 22.203125 32.59375 27.296875 30.703125 
Q 32.40625 28.796875 36 26.796875 
Q 39.59375 24.796875 41.5 21.9375 
Q 43.40625 19.09375 43.40625 14.796875 
z
" id="NotoSans-Regular-115"/>
       <path d="M 4 27.40625 
Q 4 39.59375 7.546875 50.9375 
Q 11.09375 62.296875 18.703125 71.40625 
L 27 71.40625 
Q 20 62 16.453125 50.703125 
Q 12.90625 39.40625 12.90625 27.5 
Q 12.90625 15.90625 16.453125 4.75 
Q 20 -6.40625 26.90625 -15.796875 
L 18.703125 -15.796875 
Q 11.09375 -7 7.546875 4.140625 
Q 4 15.296875 4 27.40625 
z
" id="NotoSans-Regular-40"/>
       <path d="M 26 27.40625 
Q 26 15.296875 22.453125 4.140625 
Q 18.90625 -7 11.296875 -15.796875 
L 3.09375 -15.796875 
Q 10 -6.40625 13.546875 4.75 
Q 17.09375 15.90625 17.09375 27.5 
Q 17.09375 39.40625 13.546875 50.703125 
Q 10 62 3 71.40625 
L 11.296875 71.40625 
Q 18.90625 62.296875 22.453125 50.9375 
Q 26 39.59375 26 27.40625 
z
" id="NotoSans-Regular-41"/>
      </defs>
      <use xlink:href="#NotoSans-Regular-67"/>
      <use x="63.199997" xlink:href="#NotoSans-Regular-111"/>
      <use x="123.699982" xlink:href="#NotoSans-Regular-115"/>
      <use x="171.599976" xlink:href="#NotoSans-Regular-116"/>
      <use x="207.699966" xlink:href="#NotoSans-Regular-40"/>
      <use x="237.699951" xlink:href="#NotoSans-Regular-115"/>
      <use x="285.599945" xlink:href="#NotoSans-Regular-41"/>
     </g>
    </g>
   </g>
   <g id="line2d_14">
    <path clip-path="url(#p04226a7dfe)" d="M 73.832727 295.488 
L 106.298182 281.875138 
L 138.763636 256.39964 
L 171.229091 230.146264 
L 203.694545 228.590508 
L 236.16 181.5289 
L 268.625455 192.613659 
L 301.090909 154.108707 
L 333.556364 152.358482 
L 366.021818 78.46009 
L 398.487273 67.95874 
" style="fill:none;stroke:#1f77b4;stroke-linecap:square;stroke-width:1.5;"/>
   </g>
   <g id="line2d_15">
    <path clip-path="url(#p04226a7dfe)" d="M 73.832727 292.182019 
L 106.298182 231.896489 
L 138.763636 152.552952 
L 171.229091 116.187164 
L 203.694545 91.878482 
L 236.16 100.824077 
L 268.625455 55.901633 
L 301.090909 75.543048 
L 333.556364 89.739318 
L 366.021818 53.568 
L 398.487273 67.95874 
" style="fill:none;stroke:#ff7f0e;stroke-linecap:square;stroke-width:1.5;"/>
   </g>
   <g id="patch_3">
    <path d="M 57.6 307.584 
L 57.6 41.472 
" style="fill:none;stroke:#000000;stroke-linecap:square;stroke-linejoin:miter;stroke-width:0.8;"/>
   </g>
   <g id="patch_4">
    <path d="M 414.72 307.584 
L 414.72 41.472 
" style="fill:none;stroke:#000000;stroke-linecap:square;stroke-linejoin:miter;stroke-width:0.8;"/>
   </g>
   <g id="patch_5">
    <path d="M 57.6 307.584 
L 414.72 307.584 
" style="fill:none;stroke:#000000;stroke-linecap:square;stroke-linejoin:miter;stroke-width:0.8;"/>
   </g>
   <g id="patch_6">
    <path d="M 57.6 41.472 
L 414.72 41.472 
" style="fill:none;stroke:#000000;stroke-linecap:square;stroke-linejoin:miter;stroke-width:0.8;"/>
   </g>
   <g id="legend_1">
    <g id="patch_7">
     <path d="M 64.6 79.472 
L 120.351562 79.472 
Q 122.351562 79.472 122.351562 77.472 
L 122.351562 48.472 
Q 122.351562 46.472 120.351562 46.472 
L 64.6 46.472 
Q 62.6 46.472 62.6 48.472 
L 62.6 77.472 
Q 62.6 79.472 64.6 79.472 
z
" style="fill:#ffffff;opacity:0.8;stroke:#cccccc;stroke-linejoin:miter;"/>
    </g>
    <g id="line2d_16">
     <path d="M 66.6 54.572 
L 86.6 54.572 
" style="fill:none;stroke:#1f77b4;stroke-linecap:square;stroke-width:1.5;"/>
    </g>
    <g id="line2d_17"/>
    <g id="text_16">
     <!-- MILP -->
     <g transform="translate(94.6 58.072)scale(0.1 -0.1)">
      <defs>
       <path d="M 41.203125 0 
L 17.703125 62.59375 
L 17.296875 62.59375 
Q 17.59375 59.5 17.796875 54.25 
Q 18 49 18 43.296875 
L 18 0 
L 9.703125 0 
L 9.703125 71.40625 
L 23 71.40625 
L 45 12.90625 
L 45.40625 12.90625 
L 67.796875 71.40625 
L 81 71.40625 
L 81 0 
L 72.09375 0 
L 72.09375 43.90625 
Q 72.09375 49.09375 72.34375 54.1875 
Q 72.59375 59.296875 72.796875 62.5 
L 72.40625 62.5 
L 48.59375 0 
z
" id="NotoSans-Regular-77"/>
       <path d="M 29.796875 0 
L 4 0 
L 4 5.203125 
L 12.40625 7.09375 
L 12.40625 64.203125 
L 4 66.203125 
L 4 71.40625 
L 29.796875 71.40625 
L 29.796875 66.203125 
L 21.40625 64.203125 
L 21.40625 7.09375 
L 29.796875 5.203125 
z
" id="NotoSans-Regular-73"/>
       <path d="M 9.703125 0 
L 9.703125 71.40625 
L 18.703125 71.40625 
L 18.703125 8 
L 49.90625 8 
L 49.90625 0 
z
" id="NotoSans-Regular-76"/>
       <path d="M 28.59375 71.40625 
Q 42.59375 71.40625 49 65.90625 
Q 55.40625 60.40625 55.40625 50.40625 
Q 55.40625 44.5 52.75 39.34375 
Q 50.09375 34.203125 43.84375 31 
Q 37.59375 27.796875 26.90625 27.796875 
L 18.703125 27.796875 
L 18.703125 0 
L 9.703125 0 
L 9.703125 71.40625 
z
M 27.796875 63.703125 
L 18.703125 63.703125 
L 18.703125 35.5 
L 25.90625 35.5 
Q 36.09375 35.5 41.09375 38.796875 
Q 46.09375 42.09375 46.09375 50 
Q 46.09375 56.90625 41.640625 60.296875 
Q 37.203125 63.703125 27.796875 63.703125 
z
" id="NotoSans-Regular-80"/>
      </defs>
      <use xlink:href="#NotoSans-Regular-77"/>
      <use x="90.699982" xlink:href="#NotoSans-Regular-73"/>
      <use x="124.599976" xlink:href="#NotoSans-Regular-76"/>
      <use x="176.999969" xlink:href="#NotoSans-Regular-80"/>
     </g>
    </g>
    <g id="line2d_18">
     <path d="M 66.6 69.572 
L 86.6 69.572 
" style="fill:none;stroke:#ff7f0e;stroke-linecap:square;stroke-width:1.5;"/>
    </g>
    <g id="line2d_19"/>
    <g id="text_17">
     <!-- FCFS -->
     <g transform="translate(94.6 73.072)scale(0.1 -0.1)">
      <defs>
       <path d="M 18.703125 0 
L 9.703125 0 
L 9.703125 71.40625 
L 49.59375 71.40625 
L 49.59375 63.5 
L 18.703125 63.5 
L 18.703125 38.203125 
L 47.703125 38.203125 
L 47.703125 30.296875 
L 18.703125 30.296875 
z
" id="NotoSans-Regular-70"/>
       <path d="M 50.203125 19.09375 
Q 50.203125 9.59375 43.296875 4.296875 
Q 36.40625 -1 24.703125 -1 
Q 18.703125 -1 13.59375 -0.09375 
Q 8.5 0.796875 5.09375 2.40625 
L 5.09375 11 
Q 8.703125 9.40625 14.046875 8.09375 
Q 19.40625 6.796875 25.09375 6.796875 
Q 33 6.796875 37.09375 9.890625 
Q 41.203125 13 41.203125 18.296875 
Q 41.203125 21.796875 39.703125 24.1875 
Q 38.203125 26.59375 34.5 28.59375 
Q 30.796875 30.59375 24.40625 33 
Q 15.203125 36.296875 10.59375 41.09375 
Q 6 45.90625 6 54.203125 
Q 6 59.796875 8.890625 63.890625 
Q 11.796875 68 16.890625 70.203125 
Q 22 72.40625 28.796875 72.40625 
Q 34.59375 72.40625 39.5 71.296875 
Q 44.40625 70.203125 48.5 68.40625 
L 45.703125 60.703125 
Q 42 62.296875 37.59375 63.390625 
Q 33.203125 64.5 28.59375 64.5 
Q 21.90625 64.5 18.5 61.640625 
Q 15.09375 58.796875 15.09375 54.09375 
Q 15.09375 50.5 16.59375 48.09375 
Q 18.09375 45.703125 21.5 43.75 
Q 24.90625 41.796875 30.703125 39.703125 
Q 37 37.40625 41.34375 34.75 
Q 45.703125 32.09375 47.953125 28.390625 
Q 50.203125 24.703125 50.203125 19.09375 
z
" id="NotoSans-Regular-83"/>
      </defs>
      <use xlink:href="#NotoSans-Regular-70"/>
      <use x="51.899994" xlink:href="#NotoSans-Regular-67"/>
      <use x="115.099991" xlink:href="#NotoSans-Regular-70"/>
      <use x="166.999985" xlink:href="#NotoSans-Regular-83"/>
     </g>
    </g>
   </g>
  </g>
 </g>
 <defs>
  <clipPath id="p04226a7dfe">
   <rect height="266.112" width="357.12" x="57.6" y="41.472"/>
  </clipPath>
 </defs>
</svg>
