<?xml version="1.0" encoding="utf-8" standalone="no"?>
<!DOCTYPE svg PUBLIC "-//W3C//DTD SVG 1.1//EN"
  "http://www.w3.org/Graphics/SVG/1.1/DTD/svg11.dtd">
<!-- Created with matplotlib (https://matplotlib.org/) -->
<svg height="345.6pt" version="1.1" viewBox="0 0 460.8 345.6" width="460.8pt" xmlns="http://www.w3.org/2000/svg" xmlns:xlink="http://www.w3.org/1999/xlink">
 <metadata>
  <rdf:RDF xmlns:cc="http://creativecommons.org/ns#" xmlns:dc="http://purl.org/dc/elements/1.1/" xmlns:rdf="http://www.w3.org/1999/02/22-rdf-syntax-ns#">
   <cc:Work>
    <dc:type rdf:resource="http://purl.org/dc/dcmitype/StillImage"/>
    <dc:date>2022-03-07T08:08:04.361961</dc:date>
    <dc:format>image/svg+xml</dc:format>
    <dc:creator>
     <cc:Agent>
      <dc:title>Matplotlib v3.3.3, https://matplotlib.org/</dc:title>
     </cc:Agent>
    </dc:creator>
   </cc:Work>
  </rdf:RDF>
 </metadata>
 <defs>
  <style type="text/css">*{stroke-linecap:butt;stroke-linejoin:round;}</style>
 </defs>
 <g id="figure_1">
  <g id="patch_1">
   <path d="M 0 345.6 
L 460.8 345.6 
L 460.8 0 
L 0 0 
z
" style="fill:#ffffff;"/>
  </g>
  <g id="axes_1">
   <g id="patch_2">
    <path d="M 57.6 307.584 
L 414.72 307.584 
L 414.72 41.472 
L 57.6 41.472 
z
" style="fill:#ffffff;"/>
   </g>
   <g id="matplotlib.axis_1">
    <g id="xtick_1">
     <g id="line2d_1">
      <defs>
       <path d="M 0 0 
L 0 3.5 
" id="m8341df8834" style="stroke:#000000;stroke-width:0.8;"/>
      </defs>
      <g>
       <use style="stroke:#000000;stroke-width:0.8;" x="73.832727" xlink:href="#m8341df8834" y="307.584"/>
      </g>
     </g>
     <g id="text_1">
      <!-- 0.1 -->
      <g transform="translate(66.772571 322.184)scale(0.1 -0.1)">
       <defs>
        <path d="M 52.296875 35.796875 
Q 52.296875 24.203125 49.890625 16 
Q 47.5 7.796875 42.25 3.390625 
Q 37 -1 28.5 -1 
Q 16.40625 -1 10.65625 8.75 
Q 4.90625 18.5 4.90625 35.796875 
Q 4.90625 47.40625 7.25 55.59375 
Q 9.59375 63.796875 14.796875 68.140625 
Q 20 72.5 28.5 72.5 
Q 40.5 72.5 46.390625 62.84375 
Q 52.296875 53.203125 52.296875 35.796875 
z
M 13.703125 35.796875 
Q 13.703125 21.09375 17.046875 13.796875 
Q 20.40625 6.5 28.5 6.5 
Q 36.5 6.5 39.953125 13.75 
Q 43.40625 21 43.40625 35.796875 
Q 43.40625 50.40625 39.953125 57.703125 
Q 36.5 65 28.5 65 
Q 20.40625 65 17.046875 57.703125 
Q 13.703125 50.40625 13.703125 35.796875 
z
" id="NotoSans-Regular-48"/>
        <path d="M 7.203125 5.40625 
Q 7.203125 9.09375 9 10.59375 
Q 10.796875 12.09375 13.296875 12.09375 
Q 15.796875 12.09375 17.6875 10.59375 
Q 19.59375 9.09375 19.59375 5.40625 
Q 19.59375 1.796875 17.6875 0.1875 
Q 15.796875 -1.40625 13.296875 -1.40625 
Q 10.796875 -1.40625 9 0.1875 
Q 7.203125 1.796875 7.203125 5.40625 
z
" id="NotoSans-Regular-46"/>
        <path d="M 35.5 0 
L 26.90625 0 
L 26.90625 49.90625 
Q 26.90625 54.203125 27 56.796875 
Q 27.09375 59.40625 27.296875 62.203125 
Q 25.703125 60.59375 24.34375 59.5 
Q 23 58.40625 21.09375 56.703125 
L 13.5 50.5 
L 8.90625 56.40625 
L 28.203125 71.40625 
L 35.5 71.40625 
z
" id="NotoSans-Regular-49"/>
       </defs>
       <use xlink:href="#NotoSans-Regular-48"/>
       <use x="57.199997" xlink:href="#NotoSans-Regular-46"/>
       <use x="83.999985" xlink:href="#NotoSans-Regular-49"/>
      </g>
     </g>
    </g>
    <g id="xtick_2">
     <g id="line2d_2">
      <g>
       <use style="stroke:#000000;stroke-width:0.8;" x="114.414545" xlink:href="#m8341df8834" y="307.584"/>
      </g>
     </g>
     <g id="text_2">
      <!-- 0.2 -->
      <g transform="translate(107.354389 322.184)scale(0.1 -0.1)">
       <defs>
        <path d="M 52 0 
L 4.796875 0 
L 4.796875 7.296875 
L 23.5 26.203125 
Q 28.796875 31.59375 32.546875 35.796875 
Q 36.296875 40 38.1875 44 
Q 40.09375 48 40.09375 52.90625 
Q 40.09375 58.796875 36.59375 61.84375 
Q 33.09375 64.90625 27.5 64.90625 
Q 22.203125 64.90625 18.296875 63.09375 
Q 14.40625 61.296875 10.296875 58.09375 
L 5.59375 64 
Q 9.796875 67.5 15.25 69.953125 
Q 20.703125 72.40625 27.5 72.40625 
Q 37.5 72.40625 43.296875 67.296875 
Q 49.09375 62.203125 49.09375 53.40625 
Q 49.09375 47.796875 46.796875 42.890625 
Q 44.5 38 40.390625 33.203125 
Q 36.296875 28.40625 30.796875 23.09375 
L 15.90625 8.40625 
L 15.90625 8 
L 52 8 
z
" id="NotoSans-Regular-50"/>
       </defs>
       <use xlink:href="#NotoSans-Regular-48"/>
       <use x="57.199997" xlink:href="#NotoSans-Regular-46"/>
       <use x="83.999985" xlink:href="#NotoSans-Regular-50"/>
      </g>
     </g>
    </g>
    <g id="xtick_3">
     <g id="line2d_3">
      <g>
       <use style="stroke:#000000;stroke-width:0.8;" x="154.996364" xlink:href="#m8341df8834" y="307.584"/>
      </g>
     </g>
     <g id="text_3">
      <!-- 0.3 -->
      <g transform="translate(147.936207 322.184)scale(0.1 -0.1)">
       <defs>
        <path d="M 49.296875 54.703125 
Q 49.296875 47.5 45.25 43.25 
Q 41.203125 39 34.5 37.59375 
L 34.5 37.203125 
Q 43 36.203125 47.25 31.796875 
Q 51.5 27.40625 51.5 20.296875 
Q 51.5 14 48.59375 9.203125 
Q 45.703125 4.40625 39.640625 1.703125 
Q 33.59375 -1 24.09375 -1 
Q 18.5 -1 13.703125 -0.140625 
Q 8.90625 0.703125 4.5 2.90625 
L 4.5 11.09375 
Q 9 8.796875 14.203125 7.59375 
Q 19.40625 6.40625 24.203125 6.40625 
Q 33.796875 6.40625 38.046875 10.15625 
Q 42.296875 13.90625 42.296875 20.5 
Q 42.296875 27.203125 37.046875 30.140625 
Q 31.796875 33.09375 22.296875 33.09375 
L 15.40625 33.09375 
L 15.40625 40.59375 
L 22.40625 40.59375 
Q 31.203125 40.59375 35.75 44.296875 
Q 40.296875 48 40.296875 54.09375 
Q 40.296875 59.296875 36.796875 62.140625 
Q 33.296875 65 27.296875 65 
Q 21.5 65 17.390625 63.296875 
Q 13.296875 61.59375 9.296875 59 
L 4.90625 65 
Q 8.703125 68 14.34375 70.203125 
Q 20 72.40625 27.203125 72.40625 
Q 38.40625 72.40625 43.84375 67.40625 
Q 49.296875 62.40625 49.296875 54.703125 
z
" id="NotoSans-Regular-51"/>
       </defs>
       <use xlink:href="#NotoSans-Regular-48"/>
       <use x="57.199997" xlink:href="#NotoSans-Regular-46"/>
       <use x="83.999985" xlink:href="#NotoSans-Regular-51"/>
      </g>
     </g>
    </g>
    <g id="xtick_4">
     <g id="line2d_4">
      <g>
       <use style="stroke:#000000;stroke-width:0.8;" x="195.578182" xlink:href="#m8341df8834" y="307.584"/>
      </g>
     </g>
     <g id="text_4">
      <!-- 0.4 -->
      <g transform="translate(188.518026 322.184)scale(0.1 -0.1)">
       <defs>
        <path d="M 55.203125 16.203125 
L 44.796875 16.203125 
L 44.796875 0 
L 36.296875 0 
L 36.296875 16.203125 
L 2.09375 16.203125 
L 2.09375 23.703125 
L 35.703125 71.796875 
L 44.796875 71.796875 
L 44.796875 24.09375 
L 55.203125 24.09375 
z
M 36.296875 24.09375 
L 36.296875 46.59375 
Q 36.296875 51.796875 36.4375 55.4375 
Q 36.59375 59.09375 36.796875 62.40625 
L 36.40625 62.40625 
Q 35.59375 60.5 34.390625 58.296875 
Q 33.203125 56.09375 32.09375 54.59375 
L 10.703125 24.09375 
z
" id="NotoSans-Regular-52"/>
       </defs>
       <use xlink:href="#NotoSans-Regular-48"/>
       <use x="57.199997" xlink:href="#NotoSans-Regular-46"/>
       <use x="83.999985" xlink:href="#NotoSans-Regular-52"/>
      </g>
     </g>
    </g>
    <g id="xtick_5">
     <g id="line2d_5">
      <g>
       <use style="stroke:#000000;stroke-width:0.8;" x="236.16" xlink:href="#m8341df8834" y="307.584"/>
      </g>
     </g>
     <g id="text_5">
      <!-- 0.5 -->
      <g transform="translate(229.099844 322.184)scale(0.1 -0.1)">
       <defs>
        <path d="M 27.5 43.796875 
Q 38.40625 43.796875 44.953125 38.296875 
Q 51.5 32.796875 51.5 22.796875 
Q 51.5 11.703125 44.453125 5.34375 
Q 37.40625 -1 24.796875 -1 
Q 19.203125 -1 14.390625 0 
Q 9.59375 1 6.296875 2.90625 
L 6.296875 11.203125 
Q 9.90625 9 15.046875 7.75 
Q 20.203125 6.5 24.90625 6.5 
Q 32.796875 6.5 37.640625 10.25 
Q 42.5 14 42.5 21.90625 
Q 42.5 28.90625 38.203125 32.65625 
Q 33.90625 36.40625 24.59375 36.40625 
Q 21.796875 36.40625 18.1875 35.90625 
Q 14.59375 35.40625 12.40625 34.90625 
L 8 37.703125 
L 10.703125 71.40625 
L 46.5 71.40625 
L 46.5 63.40625 
L 18.203125 63.40625 
L 16.5 42.703125 
Q 18.203125 43 21.09375 43.390625 
Q 24 43.796875 27.5 43.796875 
z
" id="NotoSans-Regular-53"/>
       </defs>
       <use xlink:href="#NotoSans-Regular-48"/>
       <use x="57.199997" xlink:href="#NotoSans-Regular-46"/>
       <use x="83.999985" xlink:href="#NotoSans-Regular-53"/>
      </g>
     </g>
    </g>
    <g id="xtick_6">
     <g id="line2d_6">
      <g>
       <use style="stroke:#000000;stroke-width:0.8;" x="276.741818" xlink:href="#m8341df8834" y="307.584"/>
      </g>
     </g>
     <g id="text_6">
      <!-- 0.6 -->
      <g transform="translate(269.681662 322.184)scale(0.1 -0.1)">
       <defs>
        <path d="M 5.5 30.5 
Q 5.5 38.203125 6.84375 45.640625 
Q 8.203125 53.09375 11.75 59.140625 
Q 15.296875 65.203125 21.6875 68.796875 
Q 28.09375 72.40625 38.203125 72.40625 
Q 40.296875 72.40625 42.84375 72.203125 
Q 45.40625 72 47 71.5 
L 47 64 
Q 45.203125 64.59375 42.890625 64.890625 
Q 40.59375 65.203125 38.40625 65.203125 
Q 31.5 65.203125 26.890625 62.890625 
Q 22.296875 60.59375 19.640625 56.59375 
Q 17 52.59375 15.796875 47.390625 
Q 14.59375 42.203125 14.296875 36.296875 
L 14.90625 36.296875 
Q 17.203125 39.796875 21.296875 42.25 
Q 25.40625 44.703125 31.796875 44.703125 
Q 41.09375 44.703125 46.796875 39.046875 
Q 52.5 33.40625 52.5 23 
Q 52.5 11.796875 46.34375 5.390625 
Q 40.203125 -1 29.796875 -1 
Q 23 -1 17.5 2.390625 
Q 12 5.796875 8.75 12.796875 
Q 5.5 19.796875 5.5 30.5 
z
M 29.703125 6.40625 
Q 36 6.40625 39.890625 10.453125 
Q 43.796875 14.5 43.796875 23 
Q 43.796875 29.796875 40.34375 33.796875 
Q 36.90625 37.796875 30 37.796875 
Q 25.296875 37.796875 21.796875 35.84375 
Q 18.296875 33.90625 16.34375 30.84375 
Q 14.40625 27.796875 14.40625 24.703125 
Q 14.40625 20.40625 16.09375 16.15625 
Q 17.796875 11.90625 21.1875 9.15625 
Q 24.59375 6.40625 29.703125 6.40625 
z
" id="NotoSans-Regular-54"/>
       </defs>
       <use xlink:href="#NotoSans-Regular-48"/>
       <use x="57.199997" xlink:href="#NotoSans-Regular-46"/>
       <use x="83.999985" xlink:href="#NotoSans-Regular-54"/>
      </g>
     </g>
    </g>
    <g id="xtick_7">
     <g id="line2d_7">
      <g>
       <use style="stroke:#000000;stroke-width:0.8;" x="317.323636" xlink:href="#m8341df8834" y="307.584"/>
      </g>
     </g>
     <g id="text_7">
      <!-- 0.7 -->
      <g transform="translate(310.26348 322.184)scale(0.1 -0.1)">
       <defs>
        <path d="M 13.59375 0 
L 42.90625 63.40625 
L 4.40625 63.40625 
L 4.40625 71.40625 
L 52.296875 71.40625 
L 52.296875 64.59375 
L 23.296875 0 
z
" id="NotoSans-Regular-55"/>
       </defs>
       <use xlink:href="#NotoSans-Regular-48"/>
       <use x="57.199997" xlink:href="#NotoSans-Regular-46"/>
       <use x="83.999985" xlink:href="#NotoSans-Regular-55"/>
      </g>
     </g>
    </g>
    <g id="xtick_8">
     <g id="line2d_8">
      <g>
       <use style="stroke:#000000;stroke-width:0.8;" x="357.905455" xlink:href="#m8341df8834" y="307.584"/>
      </g>
     </g>
     <g id="text_8">
      <!-- 0.8 -->
      <g transform="translate(350.845298 322.184)scale(0.1 -0.1)">
       <defs>
        <path d="M 28.5 72.40625 
Q 37.90625 72.40625 43.90625 68 
Q 49.90625 63.59375 49.90625 55.296875 
Q 49.90625 51 48.046875 47.796875 
Q 46.203125 44.59375 43.09375 42.140625 
Q 40 39.703125 36.296875 37.796875 
Q 40.703125 35.59375 44.296875 33 
Q 47.90625 30.40625 50.046875 26.90625 
Q 52.203125 23.40625 52.203125 18.5 
Q 52.203125 9.5 45.796875 4.25 
Q 39.40625 -1 28.796875 -1 
Q 17.203125 -1 11.046875 4.046875 
Q 4.90625 9.09375 4.90625 18.203125 
Q 4.90625 23 6.953125 26.640625 
Q 9 30.296875 12.390625 32.890625 
Q 15.796875 35.5 19.703125 37.296875 
Q 14.40625 40.296875 10.796875 44.546875 
Q 7.203125 48.796875 7.203125 55.40625 
Q 7.203125 60.796875 10 64.59375 
Q 12.796875 68.40625 17.59375 70.40625 
Q 22.40625 72.40625 28.5 72.40625 
z
M 28.40625 65.296875 
Q 22.796875 65.296875 19.296875 62.640625 
Q 15.796875 60 15.796875 55 
Q 15.796875 51.296875 17.546875 48.796875 
Q 19.296875 46.296875 22.296875 44.546875 
Q 25.296875 42.796875 28.90625 41.203125 
Q 34.09375 43.40625 37.640625 46.5 
Q 41.203125 49.59375 41.203125 55 
Q 41.203125 60 37.703125 62.640625 
Q 34.203125 65.296875 28.40625 65.296875 
z
M 13.5 18.09375 
Q 13.5 12.90625 17.203125 9.453125 
Q 20.90625 6 28.59375 6 
Q 35.90625 6 39.75 9.453125 
Q 43.59375 12.90625 43.59375 18.40625 
Q 43.59375 23.59375 39.5 27.046875 
Q 35.40625 30.5 28.59375 33.09375 
L 27 33.703125 
Q 20.40625 30.796875 16.953125 27.1875 
Q 13.5 23.59375 13.5 18.09375 
z
" id="NotoSans-Regular-56"/>
       </defs>
       <use xlink:href="#NotoSans-Regular-48"/>
       <use x="57.199997" xlink:href="#NotoSans-Regular-46"/>
       <use x="83.999985" xlink:href="#NotoSans-Regular-56"/>
      </g>
     </g>
    </g>
    <g id="xtick_9">
     <g id="line2d_9">
      <g>
       <use style="stroke:#000000;stroke-width:0.8;" x="398.487273" xlink:href="#m8341df8834" y="307.584"/>
      </g>
     </g>
     <g id="text_9">
      <!-- 0.9 -->
      <g transform="translate(391.427116 322.184)scale(0.1 -0.1)">
       <defs>
        <path d="M 52 40.90625 
Q 52 33.203125 50.640625 25.75 
Q 49.296875 18.296875 45.75 12.25 
Q 42.203125 6.203125 35.75 2.59375 
Q 29.296875 -1 19.203125 -1 
Q 17.203125 -1 14.5 -0.75 
Q 11.796875 -0.5 10.203125 0 
L 10.203125 7.5 
Q 14.09375 6.203125 19 6.203125 
Q 26 6.203125 30.546875 8.5 
Q 35.09375 10.796875 37.796875 14.75 
Q 40.5 18.703125 41.703125 23.953125 
Q 42.90625 29.203125 43.09375 35 
L 42.5 35 
Q 40.203125 31.59375 36.09375 29.140625 
Q 32 26.703125 25.5 26.703125 
Q 16.296875 26.703125 10.640625 32.34375 
Q 5 38 5 48.296875 
Q 5 55.796875 7.796875 61.1875 
Q 10.59375 66.59375 15.75 69.5 
Q 20.90625 72.40625 27.796875 72.40625 
Q 34.59375 72.40625 40.09375 68.953125 
Q 45.59375 65.5 48.796875 58.546875 
Q 52 51.59375 52 40.90625 
z
M 27.796875 65 
Q 21.59375 65 17.640625 60.890625 
Q 13.703125 56.796875 13.703125 48.40625 
Q 13.703125 41.5 17.046875 37.546875 
Q 20.40625 33.59375 27.40625 33.59375 
Q 32.203125 33.59375 35.703125 35.546875 
Q 39.203125 37.5 41.140625 40.5 
Q 43.09375 43.5 43.09375 46.703125 
Q 43.09375 51 41.390625 55.203125 
Q 39.703125 59.40625 36.296875 62.203125 
Q 32.90625 65 27.796875 65 
z
" id="NotoSans-Regular-57"/>
       </defs>
       <use xlink:href="#NotoSans-Regular-48"/>
       <use x="57.199997" xlink:href="#NotoSans-Regular-46"/>
       <use x="83.999985" xlink:href="#NotoSans-Regular-57"/>
      </g>
     </g>
    </g>
    <g id="text_10">
     <!-- HV Ratio -->
     <g transform="translate(216.120937 336.184)scale(0.1 -0.1)">
      <defs>
       <path d="M 64.296875 0 
L 55.296875 0 
L 55.296875 33.296875 
L 18.703125 33.296875 
L 18.703125 0 
L 9.703125 0 
L 9.703125 71.40625 
L 18.703125 71.40625 
L 18.703125 41.203125 
L 55.296875 41.203125 
L 55.296875 71.40625 
L 64.296875 71.40625 
z
" id="NotoSans-Regular-72"/>
       <path d="M 60 71.40625 
L 34.5 0 
L 25.5 0 
L 0 71.40625 
L 9.40625 71.40625 
L 25.5 25.59375 
Q 27.09375 21.203125 28.140625 17.34375 
Q 29.203125 13.5 30 10 
Q 30.703125 13.5 31.796875 17.390625 
Q 32.90625 21.296875 34.5 25.796875 
L 50.5 71.40625 
z
" id="NotoSans-Regular-86"/>
       <path id="NotoSans-Regular-32"/>
       <path d="M 29.40625 71.40625 
Q 42.703125 71.40625 49.046875 66.34375 
Q 55.40625 61.296875 55.40625 51.09375 
Q 55.40625 45.40625 53.296875 41.59375 
Q 51.203125 37.796875 47.953125 35.5 
Q 44.703125 33.203125 41.09375 32 
L 60.703125 0 
L 50.203125 0 
L 32.90625 29.5 
L 18.703125 29.5 
L 18.703125 0 
L 9.703125 0 
L 9.703125 71.40625 
z
M 28.90625 63.59375 
L 18.703125 63.59375 
L 18.703125 37.09375 
L 29.40625 37.09375 
Q 38.09375 37.09375 42.09375 40.546875 
Q 46.09375 44 46.09375 50.703125 
Q 46.09375 57.703125 41.890625 60.640625 
Q 37.703125 63.59375 28.90625 63.59375 
z
" id="NotoSans-Regular-82"/>
       <path d="M 28.796875 54.5 
Q 38.59375 54.5 43.296875 50.203125 
Q 48 45.90625 48 36.5 
L 48 0 
L 41.59375 0 
L 39.90625 7.59375 
L 39.5 7.59375 
Q 36 3.203125 32.09375 1.09375 
Q 28.203125 -1 21.5 -1 
Q 14.203125 -1 9.390625 2.84375 
Q 4.59375 6.703125 4.59375 14.90625 
Q 4.59375 22.90625 10.890625 27.25 
Q 17.203125 31.59375 30.296875 32 
L 39.40625 32.296875 
L 39.40625 35.5 
Q 39.40625 42.203125 36.5 44.796875 
Q 33.59375 47.40625 28.296875 47.40625 
Q 24.09375 47.40625 20.296875 46.15625 
Q 16.5 44.90625 13.203125 43.296875 
L 10.5 49.90625 
Q 14 51.796875 18.796875 53.140625 
Q 23.59375 54.5 28.796875 54.5 
z
M 39.296875 26.203125 
L 31.40625 25.90625 
Q 21.40625 25.5 17.546875 22.703125 
Q 13.703125 19.90625 13.703125 14.796875 
Q 13.703125 10.296875 16.453125 8.1875 
Q 19.203125 6.09375 23.5 6.09375 
Q 30.203125 6.09375 34.75 9.84375 
Q 39.296875 13.59375 39.296875 21.40625 
z
" id="NotoSans-Regular-97"/>
       <path d="M 26.40625 6.203125 
Q 28.40625 6.203125 30.5 6.5 
Q 32.59375 6.796875 33.90625 7.296875 
L 33.90625 0.59375 
Q 32.5 -0.09375 29.890625 -0.546875 
Q 27.296875 -1 24.90625 -1 
Q 20.703125 -1 17.140625 0.453125 
Q 13.59375 1.90625 11.390625 5.5 
Q 9.203125 9.09375 9.203125 15.59375 
L 9.203125 46.796875 
L 1.59375 46.796875 
L 1.59375 51 
L 9.296875 54.5 
L 12.796875 65.90625 
L 18 65.90625 
L 18 53.59375 
L 33.5 53.59375 
L 33.5 46.796875 
L 18 46.796875 
L 18 15.796875 
Q 18 10.90625 20.34375 8.546875 
Q 22.703125 6.203125 26.40625 6.203125 
z
" id="NotoSans-Regular-116"/>
       <path d="M 13 73.703125 
Q 15 73.703125 16.546875 72.34375 
Q 18.09375 71 18.09375 68.09375 
Q 18.09375 65.203125 16.546875 63.84375 
Q 15 62.5 13 62.5 
Q 10.796875 62.5 9.296875 63.84375 
Q 7.796875 65.203125 7.796875 68.09375 
Q 7.796875 71 9.296875 72.34375 
Q 10.796875 73.703125 13 73.703125 
z
M 17.296875 53.59375 
L 17.296875 0 
L 8.5 0 
L 8.5 53.59375 
z
" id="NotoSans-Regular-105"/>
       <path d="M 55.09375 26.90625 
Q 55.09375 13.59375 48.34375 6.296875 
Q 41.59375 -1 30.09375 -1 
Q 23 -1 17.453125 2.25 
Q 11.90625 5.5 8.703125 11.75 
Q 5.5 18 5.5 26.90625 
Q 5.5 40.203125 12.140625 47.390625 
Q 18.796875 54.59375 30.40625 54.59375 
Q 37.59375 54.59375 43.1875 51.34375 
Q 48.796875 48.09375 51.9375 41.9375 
Q 55.09375 35.796875 55.09375 26.90625 
z
M 14.59375 26.90625 
Q 14.59375 17.40625 18.34375 11.84375 
Q 22.09375 6.296875 30.296875 6.296875 
Q 38.40625 6.296875 42.203125 11.84375 
Q 46 17.40625 46 26.90625 
Q 46 36.40625 42.203125 41.796875 
Q 38.40625 47.203125 30.203125 47.203125 
Q 22 47.203125 18.296875 41.796875 
Q 14.59375 36.40625 14.59375 26.90625 
z
" id="NotoSans-Regular-111"/>
      </defs>
      <use xlink:href="#NotoSans-Regular-72"/>
      <use x="74.099991" xlink:href="#NotoSans-Regular-86"/>
      <use x="134.099976" xlink:href="#NotoSans-Regular-32"/>
      <use x="160.09996" xlink:href="#NotoSans-Regular-82"/>
      <use x="222.299957" xlink:href="#NotoSans-Regular-97"/>
      <use x="278.399948" xlink:href="#NotoSans-Regular-116"/>
      <use x="314.499939" xlink:href="#NotoSans-Regular-105"/>
      <use x="340.299927" xlink:href="#NotoSans-Regular-111"/>
     </g>
    </g>
   </g>
   <g id="matplotlib.axis_2">
    <g id="ytick_1">
     <g id="line2d_10">
      <defs>
       <path d="M 0 0 
L -3.5 0 
" id="mf3231c2aae" style="stroke:#000000;stroke-width:0.8;"/>
      </defs>
      <g>
       <use style="stroke:#000000;stroke-width:0.8;" x="57.6" xlink:href="#mf3231c2aae" y="304.700757"/>
      </g>
     </g>
     <g id="text_11">
      <!-- 2.5 -->
      <g transform="translate(36.479687 308.500757)scale(0.1 -0.1)">
       <use xlink:href="#NotoSans-Regular-50"/>
       <use x="57.199997" xlink:href="#NotoSans-Regular-46"/>
       <use x="83.999985" xlink:href="#NotoSans-Regular-53"/>
      </g>
     </g>
    </g>
    <g id="ytick_2">
     <g id="line2d_11">
      <g>
       <use style="stroke:#000000;stroke-width:0.8;" x="57.6" xlink:href="#mf3231c2aae" y="271.798627"/>
      </g>
     </g>
     <g id="text_12">
      <!-- 5.0 -->
      <g transform="translate(36.479687 275.598627)scale(0.1 -0.1)">
       <use xlink:href="#NotoSans-Regular-53"/>
       <use x="57.199997" xlink:href="#NotoSans-Regular-46"/>
       <use x="83.999985" xlink:href="#NotoSans-Regular-48"/>
      </g>
     </g>
    </g>
    <g id="ytick_3">
     <g id="line2d_12">
      <g>
       <use style="stroke:#000000;stroke-width:0.8;" x="57.6" xlink:href="#mf3231c2aae" y="238.896498"/>
      </g>
     </g>
     <g id="text_13">
      <!-- 7.5 -->
      <g transform="translate(36.479687 242.696498)scale(0.1 -0.1)">
       <use xlink:href="#NotoSans-Regular-55"/>
       <use x="57.199997" xlink:href="#NotoSans-Regular-46"/>
       <use x="83.999985" xlink:href="#NotoSans-Regular-53"/>
      </g>
     </g>
    </g>
    <g id="ytick_4">
     <g id="line2d_13">
      <g>
       <use style="stroke:#000000;stroke-width:0.8;" x="57.6" xlink:href="#mf3231c2aae" y="205.994368"/>
      </g>
     </g>
     <g id="text_14">
      <!-- 10.0 -->
      <g transform="translate(30.759375 209.794368)scale(0.1 -0.1)">
       <use xlink:href="#NotoSans-Regular-49"/>
       <use x="57.199997" xlink:href="#NotoSans-Regular-48"/>
       <use x="114.399994" xlink:href="#NotoSans-Regular-46"/>
       <use x="141.199982" xlink:href="#NotoSans-Regular-48"/>
      </g>
     </g>
    </g>
    <g id="ytick_5">
     <g id="line2d_14">
      <g>
       <use style="stroke:#000000;stroke-width:0.8;" x="57.6" xlink:href="#mf3231c2aae" y="173.092238"/>
      </g>
     </g>
     <g id="text_15">
      <!-- 12.5 -->
      <g transform="translate(30.759375 176.892238)scale(0.1 -0.1)">
       <use xlink:href="#NotoSans-Regular-49"/>
       <use x="57.199997" xlink:href="#NotoSans-Regular-50"/>
       <use x="114.399994" xlink:href="#NotoSans-Regular-46"/>
       <use x="141.199982" xlink:href="#NotoSans-Regular-53"/>
      </g>
     </g>
    </g>
    <g id="ytick_6">
     <g id="line2d_15">
      <g>
       <use style="stroke:#000000;stroke-width:0.8;" x="57.6" xlink:href="#mf3231c2aae" y="140.190109"/>
      </g>
     </g>
     <g id="text_16">
      <!-- 15.0 -->
      <g transform="translate(30.759375 143.990109)scale(0.1 -0.1)">
       <use xlink:href="#NotoSans-Regular-49"/>
       <use x="57.199997" xlink:href="#NotoSans-Regular-53"/>
       <use x="114.399994" xlink:href="#NotoSans-Regular-46"/>
       <use x="141.199982" xlink:href="#NotoSans-Regular-48"/>
      </g>
     </g>
    </g>
    <g id="ytick_7">
     <g id="line2d_16">
      <g>
       <use style="stroke:#000000;stroke-width:0.8;" x="57.6" xlink:href="#mf3231c2aae" y="107.287979"/>
      </g>
     </g>
     <g id="text_17">
      <!-- 17.5 -->
      <g transform="translate(30.759375 111.087979)scale(0.1 -0.1)">
       <use xlink:href="#NotoSans-Regular-49"/>
       <use x="57.199997" xlink:href="#NotoSans-Regular-55"/>
       <use x="114.399994" xlink:href="#NotoSans-Regular-46"/>
       <use x="141.199982" xlink:href="#NotoSans-Regular-53"/>
      </g>
     </g>
    </g>
    <g id="ytick_8">
     <g id="line2d_17">
      <g>
       <use style="stroke:#000000;stroke-width:0.8;" x="57.6" xlink:href="#mf3231c2aae" y="74.38585"/>
      </g>
     </g>
     <g id="text_18">
      <!-- 20.0 -->
      <g transform="translate(30.759375 78.18585)scale(0.1 -0.1)">
       <use xlink:href="#NotoSans-Regular-50"/>
       <use x="57.199997" xlink:href="#NotoSans-Regular-48"/>
       <use x="114.399994" xlink:href="#NotoSans-Regular-46"/>
       <use x="141.199982" xlink:href="#NotoSans-Regular-48"/>
      </g>
     </g>
    </g>
    <g id="ytick_9">
     <g id="line2d_18">
      <g>
       <use style="stroke:#000000;stroke-width:0.8;" x="57.6" xlink:href="#mf3231c2aae" y="41.48372"/>
      </g>
     </g>
     <g id="text_19">
      <!-- 22.5 -->
      <g transform="translate(30.759375 45.28372)scale(0.1 -0.1)">
       <use xlink:href="#NotoSans-Regular-50"/>
       <use x="57.199997" xlink:href="#NotoSans-Regular-50"/>
       <use x="114.399994" xlink:href="#NotoSans-Regular-46"/>
       <use x="141.199982" xlink:href="#NotoSans-Regular-53"/>
      </g>
     </g>
    </g>
    <g id="text_20">
     <!-- Avg Wait Time(s) -->
     <g transform="translate(24.359375 213.447531)rotate(-90)scale(0.1 -0.1)">
      <defs>
       <path d="M 54.5 0 
L 45.90625 22.09375 
L 17.59375 22.09375 
L 9.09375 0 
L 0 0 
L 27.90625 71.703125 
L 36 71.703125 
L 63.796875 0 
z
M 43.203125 30.09375 
L 35.203125 51.703125 
Q 34.90625 52.5 34.203125 54.59375 
Q 33.5 56.703125 32.84375 58.953125 
Q 32.203125 61.203125 31.796875 62.40625 
Q 31 59.296875 30.140625 56.34375 
Q 29.296875 53.40625 28.703125 51.703125 
L 20.59375 30.09375 
z
" id="NotoSans-Regular-65"/>
       <path d="M 20.296875 0 
L 0 53.59375 
L 9.40625 53.59375 
L 20.796875 22 
Q 21.59375 19.796875 22.5 17.09375 
Q 23.40625 14.40625 24.09375 11.90625 
Q 24.796875 9.40625 25.09375 7.796875 
L 25.5 7.796875 
Q 25.796875 9.40625 26.59375 11.953125 
Q 27.40625 14.5 28.296875 17.140625 
Q 29.203125 19.796875 30 22 
L 41.40625 53.59375 
L 50.796875 53.59375 
L 30.40625 0 
z
" id="NotoSans-Regular-118"/>
       <path d="M 27.5 54.59375 
Q 32.796875 54.59375 37.046875 52.59375 
Q 41.296875 50.59375 44.296875 46.5 
L 44.796875 46.5 
L 46 53.59375 
L 53 53.59375 
L 53 -0.90625 
Q 53 -12.40625 47.140625 -18.203125 
Q 41.296875 -24 29 -24 
Q 17.203125 -24 9.703125 -20.59375 
L 9.703125 -12.5 
Q 17.59375 -16.703125 29.5 -16.703125 
Q 36.40625 -16.703125 40.34375 -12.640625 
Q 44.296875 -8.59375 44.296875 -1.59375 
L 44.296875 0.5 
Q 44.296875 1.703125 44.390625 3.953125 
Q 44.5 6.203125 44.59375 7.09375 
L 44.203125 7.09375 
Q 38.796875 -1 27.59375 -1 
Q 17.203125 -1 11.34375 6.296875 
Q 5.5 13.59375 5.5 26.703125 
Q 5.5 39.5 11.34375 47.046875 
Q 17.203125 54.59375 27.5 54.59375 
z
M 28.703125 47.203125 
Q 22 47.203125 18.296875 41.84375 
Q 14.59375 36.5 14.59375 26.59375 
Q 14.59375 16.703125 18.1875 11.453125 
Q 21.796875 6.203125 28.90625 6.203125 
Q 37 6.203125 40.703125 10.546875 
Q 44.40625 14.90625 44.40625 24.59375 
L 44.40625 26.703125 
Q 44.40625 37.59375 40.59375 42.390625 
Q 36.796875 47.203125 28.703125 47.203125 
z
" id="NotoSans-Regular-103"/>
       <path d="M 91.703125 71.40625 
L 72.703125 0 
L 63.59375 0 
L 49.703125 46.796875 
Q 48.796875 49.59375 48.046875 52.546875 
Q 47.296875 55.5 46.75 57.75 
Q 46.203125 60 46.09375 60.90625 
Q 46 59.59375 45 55.34375 
Q 44 51.09375 42.703125 46.5 
L 29.203125 0 
L 20.09375 0 
L 1.203125 71.40625 
L 10.59375 71.40625 
L 21.703125 27.796875 
Q 22.90625 23.203125 23.75 18.890625 
Q 24.59375 14.59375 25.09375 10.796875 
Q 25.59375 14.703125 26.59375 19.296875 
Q 27.59375 23.90625 28.90625 28.296875 
L 41.5 71.40625 
L 50.796875 71.40625 
L 63.90625 28 
Q 65.296875 23.40625 66.296875 18.796875 
Q 67.296875 14.203125 67.796875 10.796875 
Q 68.203125 14.5 69.140625 18.84375 
Q 70.09375 23.203125 71.296875 27.90625 
L 82.296875 71.40625 
z
" id="NotoSans-Regular-87"/>
       <path d="M 32.296875 0 
L 23.296875 0 
L 23.296875 63.5 
L 1 63.5 
L 1 71.40625 
L 54.5 71.40625 
L 54.5 63.5 
L 32.296875 63.5 
z
" id="NotoSans-Regular-84"/>
       <path d="M 67.296875 54.59375 
Q 76.40625 54.59375 80.90625 49.890625 
Q 85.40625 45.203125 85.40625 34.90625 
L 85.40625 0 
L 76.703125 0 
L 76.703125 34.5 
Q 76.703125 47.203125 65.796875 47.203125 
Q 58 47.203125 54.640625 42.703125 
Q 51.296875 38.203125 51.296875 29.59375 
L 51.296875 0 
L 42.59375 0 
L 42.59375 34.5 
Q 42.59375 47.203125 31.59375 47.203125 
Q 23.5 47.203125 20.390625 42.203125 
Q 17.296875 37.203125 17.296875 27.796875 
L 17.296875 0 
L 8.5 0 
L 8.5 53.59375 
L 15.59375 53.59375 
L 16.90625 46.296875 
L 17.40625 46.296875 
Q 19.90625 50.5 24.15625 52.546875 
Q 28.40625 54.59375 33.203125 54.59375 
Q 45.796875 54.59375 49.59375 45.59375 
L 50.09375 45.59375 
Q 52.796875 50.203125 57.390625 52.390625 
Q 62 54.59375 67.296875 54.59375 
z
" id="NotoSans-Regular-109"/>
       <path d="M 29.203125 54.59375 
Q 36 54.59375 41 51.59375 
Q 46 48.59375 48.640625 43.140625 
Q 51.296875 37.703125 51.296875 30.40625 
L 51.296875 25.09375 
L 14.59375 25.09375 
Q 14.796875 16 19.25 11.25 
Q 23.703125 6.5 31.703125 6.5 
Q 36.796875 6.5 40.75 7.453125 
Q 44.703125 8.40625 48.90625 10.203125 
L 48.90625 2.5 
Q 44.796875 0.703125 40.796875 -0.140625 
Q 36.796875 -1 31.296875 -1 
Q 23.59375 -1 17.796875 2.09375 
Q 12 5.203125 8.75 11.296875 
Q 5.5 17.40625 5.5 26.40625 
Q 5.5 35.203125 8.453125 41.5 
Q 11.40625 47.796875 16.75 51.1875 
Q 22.09375 54.59375 29.203125 54.59375 
z
M 29.09375 47.40625 
Q 22.796875 47.40625 19.140625 43.34375 
Q 15.5 39.296875 14.796875 32.09375 
L 42.09375 32.09375 
Q 42 38.90625 38.890625 43.15625 
Q 35.796875 47.40625 29.09375 47.40625 
z
" id="NotoSans-Regular-101"/>
       <path d="M 4 27.40625 
Q 4 39.59375 7.546875 50.9375 
Q 11.09375 62.296875 18.703125 71.40625 
L 27 71.40625 
Q 20 62 16.453125 50.703125 
Q 12.90625 39.40625 12.90625 27.5 
Q 12.90625 15.90625 16.453125 4.75 
Q 20 -6.40625 26.90625 -15.796875 
L 18.703125 -15.796875 
Q 11.09375 -7 7.546875 4.140625 
Q 4 15.296875 4 27.40625 
z
" id="NotoSans-Regular-40"/>
       <path d="M 43.40625 14.796875 
Q 43.40625 7 37.59375 3 
Q 31.796875 -1 22 -1 
Q 16.40625 -1 12.34375 -0.09375 
Q 8.296875 0.796875 5.203125 2.40625 
L 5.203125 10.40625 
Q 8.40625 8.796875 12.953125 7.4375 
Q 17.5 6.09375 22.203125 6.09375 
Q 28.90625 6.09375 31.90625 8.25 
Q 34.90625 10.40625 34.90625 14 
Q 34.90625 16 33.796875 17.59375 
Q 32.703125 19.203125 29.84375 20.796875 
Q 27 22.40625 21.703125 24.40625 
Q 16.5 26.40625 12.796875 28.40625 
Q 9.09375 30.40625 7.09375 33.203125 
Q 5.09375 36 5.09375 40.40625 
Q 5.09375 47.203125 10.640625 50.890625 
Q 16.203125 54.59375 25.203125 54.59375 
Q 30.09375 54.59375 34.34375 53.59375 
Q 38.59375 52.59375 42.296875 51 
L 39.296875 44 
Q 35.90625 45.40625 32.203125 46.40625 
Q 28.5 47.40625 24.59375 47.40625 
Q 19.203125 47.40625 16.34375 45.65625 
Q 13.5 43.90625 13.5 40.90625 
Q 13.5 38.59375 14.796875 37.09375 
Q 16.09375 35.59375 19.140625 34.09375 
Q 22.203125 32.59375 27.296875 30.703125 
Q 32.40625 28.796875 36 26.796875 
Q 39.59375 24.796875 41.5 21.9375 
Q 43.40625 19.09375 43.40625 14.796875 
z
" id="NotoSans-Regular-115"/>
       <path d="M 26 27.40625 
Q 26 15.296875 22.453125 4.140625 
Q 18.90625 -7 11.296875 -15.796875 
L 3.09375 -15.796875 
Q 10 -6.40625 13.546875 4.75 
Q 17.09375 15.90625 17.09375 27.5 
Q 17.09375 39.40625 13.546875 50.703125 
Q 10 62 3 71.40625 
L 11.296875 71.40625 
Q 18.90625 62.296875 22.453125 50.9375 
Q 26 39.59375 26 27.40625 
z
" id="NotoSans-Regular-41"/>
      </defs>
      <use xlink:href="#NotoSans-Regular-65"/>
      <use x="63.899994" xlink:href="#NotoSans-Regular-118"/>
      <use x="114.699982" xlink:href="#NotoSans-Regular-103"/>
      <use x="176.199966" xlink:href="#NotoSans-Regular-32"/>
      <use x="202.199951" xlink:href="#NotoSans-Regular-87"/>
      <use x="295.199936" xlink:href="#NotoSans-Regular-97"/>
      <use x="351.299927" xlink:href="#NotoSans-Regular-105"/>
      <use x="377.099915" xlink:href="#NotoSans-Regular-116"/>
      <use x="413.199905" xlink:href="#NotoSans-Regular-32"/>
      <use x="439.19989" xlink:href="#NotoSans-Regular-84"/>
      <use x="494.799881" xlink:href="#NotoSans-Regular-105"/>
      <use x="520.599869" xlink:href="#NotoSans-Regular-109"/>
      <use x="614.099854" xlink:href="#NotoSans-Regular-101"/>
      <use x="670.499847" xlink:href="#NotoSans-Regular-40"/>
      <use x="700.499832" xlink:href="#NotoSans-Regular-115"/>
      <use x="748.399826" xlink:href="#NotoSans-Regular-41"/>
     </g>
    </g>
   </g>
   <g id="line2d_19">
    <path clip-path="url(#peda4c194bf)" d="M 73.832727 295.488 
L 114.414545 282.331811 
L 154.996364 257.681582 
L 195.578182 243.563421 
L 236.16 216.368025 
L 276.741818 195.012548 
L 317.323636 185.899656 
L 357.905455 158.468019 
L 398.487273 121.579662 
" style="fill:none;stroke:#1f77b4;stroke-linecap:square;stroke-width:1.5;"/>
   </g>
   <g id="line2d_20">
    <path clip-path="url(#peda4c194bf)" d="M 73.832727 270.393698 
L 114.414545 263.642032 
L 154.996364 234.763947 
L 195.578182 216.174793 
L 236.16 174.824151 
L 276.741818 145.395791 
L 317.323636 112.516036 
L 357.905455 148.538951 
L 398.487273 104.859981 
" style="fill:none;stroke:#ff7f0e;stroke-linecap:square;stroke-width:1.5;"/>
   </g>
   <g id="line2d_21">
    <path clip-path="url(#peda4c194bf)" d="M 73.832727 190.337405 
L 114.414545 168.115739 
L 154.996364 127.092949 
L 195.578182 86.520768 
L 236.16 75.800573 
L 276.741818 77.408486 
L 317.323636 84.238397 
L 357.905455 63.554233 
L 398.487273 78.996198 
" style="fill:none;stroke:#2ca02c;stroke-linecap:square;stroke-width:1.5;"/>
   </g>
   <g id="line2d_22">
    <path clip-path="url(#peda4c194bf)" d="M 73.832727 183.791427 
L 114.414545 165.961994 
L 154.996364 118.655236 
L 195.578182 105.900965 
L 236.16 105.000996 
L 276.741818 53.568 
L 317.323636 62.400275 
L 357.905455 139.208213 
L 398.487273 117.094279 
" style="fill:none;stroke:#d62728;stroke-linecap:square;stroke-width:1.5;"/>
   </g>
   <g id="patch_3">
    <path d="M 57.6 307.584 
L 57.6 41.472 
" style="fill:none;stroke:#000000;stroke-linecap:square;stroke-linejoin:miter;stroke-width:0.8;"/>
   </g>
   <g id="patch_4">
    <path d="M 414.72 307.584 
L 414.72 41.472 
" style="fill:none;stroke:#000000;stroke-linecap:square;stroke-linejoin:miter;stroke-width:0.8;"/>
   </g>
   <g id="patch_5">
    <path d="M 57.6 307.584 
L 414.72 307.584 
" style="fill:none;stroke:#000000;stroke-linecap:square;stroke-linejoin:miter;stroke-width:0.8;"/>
   </g>
   <g id="patch_6">
    <path d="M 57.6 41.472 
L 414.72 41.472 
" style="fill:none;stroke:#000000;stroke-linecap:square;stroke-linejoin:miter;stroke-width:0.8;"/>
   </g>
   <g id="legend_1">
    <g id="patch_7">
     <path d="M 267.293438 302.584 
L 407.72 302.584 
Q 409.72 302.584 409.72 300.584 
L 409.72 241.584 
Q 409.72 239.584 407.72 239.584 
L 267.293438 239.584 
Q 265.293438 239.584 265.293438 241.584 
L 265.293438 300.584 
Q 265.293438 302.584 267.293438 302.584 
z
" style="fill:#ffffff;opacity:0.8;stroke:#cccccc;stroke-linejoin:miter;"/>
    </g>
    <g id="line2d_23">
     <path d="M 269.293438 247.684 
L 289.293438 247.684 
" style="fill:none;stroke:#1f77b4;stroke-linecap:square;stroke-width:1.5;"/>
    </g>
    <g id="line2d_24"/>
    <g id="text_21">
     <!-- HV Wait Time Optimal -->
     <g transform="translate(297.293438 251.184)scale(0.1 -0.1)">
      <defs>
       <path d="M 72 35.796875 
Q 72 24.703125 68.25 16.453125 
Q 64.5 8.203125 57.140625 3.59375 
Q 49.796875 -1 39.09375 -1 
Q 28 -1 20.640625 3.59375 
Q 13.296875 8.203125 9.6875 16.5 
Q 6.09375 24.796875 6.09375 35.90625 
Q 6.09375 46.796875 9.6875 55.046875 
Q 13.296875 63.296875 20.640625 67.890625 
Q 28 72.5 39.203125 72.5 
Q 49.90625 72.5 57.203125 67.953125 
Q 64.5 63.40625 68.25 55.15625 
Q 72 46.90625 72 35.796875 
z
M 15.59375 35.796875 
Q 15.59375 22.296875 21.296875 14.546875 
Q 27 6.796875 39.09375 6.796875 
Q 51.203125 6.796875 56.84375 14.546875 
Q 62.5 22.296875 62.5 35.796875 
Q 62.5 49.296875 56.890625 56.9375 
Q 51.296875 64.59375 39.203125 64.59375 
Q 27 64.59375 21.296875 56.9375 
Q 15.59375 49.296875 15.59375 35.796875 
z
" id="NotoSans-Regular-79"/>
       <path d="M 34 54.59375 
Q 43.90625 54.59375 49.953125 47.6875 
Q 56 40.796875 56 26.90625 
Q 56 13.203125 49.953125 6.09375 
Q 43.90625 -1 33.90625 -1 
Q 27.703125 -1 23.640625 1.296875 
Q 19.59375 3.59375 17.296875 6.796875 
L 16.703125 6.796875 
Q 16.796875 5.09375 17.046875 2.5 
Q 17.296875 -0.09375 17.296875 -2 
L 17.296875 -24 
L 8.5 -24 
L 8.5 53.59375 
L 15.703125 53.59375 
L 16.90625 46.296875 
L 17.296875 46.296875 
Q 19.703125 49.796875 23.59375 52.1875 
Q 27.5 54.59375 34 54.59375 
z
M 32.40625 47.203125 
Q 24.203125 47.203125 20.796875 42.59375 
Q 17.40625 38 17.296875 28.59375 
L 17.296875 26.90625 
Q 17.296875 17 20.546875 11.640625 
Q 23.796875 6.296875 32.59375 6.296875 
Q 37.40625 6.296875 40.59375 8.9375 
Q 43.796875 11.59375 45.34375 16.296875 
Q 46.90625 21 46.90625 27 
Q 46.90625 36.203125 43.34375 41.703125 
Q 39.796875 47.203125 32.40625 47.203125 
z
" id="NotoSans-Regular-112"/>
       <path d="M 17.296875 0 
L 8.5 0 
L 8.5 76 
L 17.296875 76 
z
" id="NotoSans-Regular-108"/>
      </defs>
      <use xlink:href="#NotoSans-Regular-72"/>
      <use x="74.099991" xlink:href="#NotoSans-Regular-86"/>
      <use x="134.099976" xlink:href="#NotoSans-Regular-32"/>
      <use x="160.09996" xlink:href="#NotoSans-Regular-87"/>
      <use x="253.099945" xlink:href="#NotoSans-Regular-97"/>
      <use x="309.199936" xlink:href="#NotoSans-Regular-105"/>
      <use x="334.999924" xlink:href="#NotoSans-Regular-116"/>
      <use x="371.099915" xlink:href="#NotoSans-Regular-32"/>
      <use x="397.099899" xlink:href="#NotoSans-Regular-84"/>
      <use x="452.69989" xlink:href="#NotoSans-Regular-105"/>
      <use x="478.499878" xlink:href="#NotoSans-Regular-109"/>
      <use x="571.999863" xlink:href="#NotoSans-Regular-101"/>
      <use x="628.399857" xlink:href="#NotoSans-Regular-32"/>
      <use x="654.399841" xlink:href="#NotoSans-Regular-79"/>
      <use x="732.499832" xlink:href="#NotoSans-Regular-112"/>
      <use x="793.999817" xlink:href="#NotoSans-Regular-116"/>
      <use x="830.099808" xlink:href="#NotoSans-Regular-105"/>
      <use x="855.899796" xlink:href="#NotoSans-Regular-109"/>
      <use x="949.39978" xlink:href="#NotoSans-Regular-97"/>
      <use x="1005.499771" xlink:href="#NotoSans-Regular-108"/>
     </g>
    </g>
    <g id="line2d_25">
     <path d="M 269.293438 262.684 
L 289.293438 262.684 
" style="fill:none;stroke:#ff7f0e;stroke-linecap:square;stroke-width:1.5;"/>
    </g>
    <g id="line2d_26"/>
    <g id="text_22">
     <!-- CAV Wait Time Optimal -->
     <g transform="translate(297.293438 266.184)scale(0.1 -0.1)">
      <defs>
       <path d="M 40.296875 64.5 
Q 28.796875 64.5 22.1875 56.796875 
Q 15.59375 49.09375 15.59375 35.703125 
Q 15.59375 22.40625 21.75 14.65625 
Q 27.90625 6.90625 40.203125 6.90625 
Q 44.796875 6.90625 49 7.703125 
Q 53.203125 8.5 57.296875 9.703125 
L 57.296875 1.90625 
Q 53.296875 0.40625 49.046875 -0.296875 
Q 44.796875 -1 38.90625 -1 
Q 28 -1 20.703125 3.5 
Q 13.40625 8 9.75 16.296875 
Q 6.09375 24.59375 6.09375 35.796875 
Q 6.09375 46.59375 10.046875 54.84375 
Q 14 63.09375 21.703125 67.75 
Q 29.40625 72.40625 40.40625 72.40625 
Q 51.703125 72.40625 60.09375 68.203125 
L 56.5 60.59375 
Q 53.203125 62.09375 49.140625 63.296875 
Q 45.09375 64.5 40.296875 64.5 
z
" id="NotoSans-Regular-67"/>
      </defs>
      <use xlink:href="#NotoSans-Regular-67"/>
      <use x="63.199997" xlink:href="#NotoSans-Regular-65"/>
      <use x="127.099991" xlink:href="#NotoSans-Regular-86"/>
      <use x="187.099976" xlink:href="#NotoSans-Regular-32"/>
      <use x="213.09996" xlink:href="#NotoSans-Regular-87"/>
      <use x="306.099945" xlink:href="#NotoSans-Regular-97"/>
      <use x="362.199936" xlink:href="#NotoSans-Regular-105"/>
      <use x="387.999924" xlink:href="#NotoSans-Regular-116"/>
      <use x="424.099915" xlink:href="#NotoSans-Regular-32"/>
      <use x="450.099899" xlink:href="#NotoSans-Regular-84"/>
      <use x="505.69989" xlink:href="#NotoSans-Regular-105"/>
      <use x="531.499878" xlink:href="#NotoSans-Regular-109"/>
      <use x="624.999863" xlink:href="#NotoSans-Regular-101"/>
      <use x="681.399857" xlink:href="#NotoSans-Regular-32"/>
      <use x="707.399841" xlink:href="#NotoSans-Regular-79"/>
      <use x="785.499832" xlink:href="#NotoSans-Regular-112"/>
      <use x="846.999817" xlink:href="#NotoSans-Regular-116"/>
      <use x="883.099808" xlink:href="#NotoSans-Regular-105"/>
      <use x="908.899796" xlink:href="#NotoSans-Regular-109"/>
      <use x="1002.39978" xlink:href="#NotoSans-Regular-97"/>
      <use x="1058.499771" xlink:href="#NotoSans-Regular-108"/>
     </g>
    </g>
    <g id="line2d_27">
     <path d="M 269.293438 277.684 
L 289.293438 277.684 
" style="fill:none;stroke:#2ca02c;stroke-linecap:square;stroke-width:1.5;"/>
    </g>
    <g id="line2d_28"/>
    <g id="text_23">
     <!-- HV Wait Time FCFS -->
     <g transform="translate(297.293438 281.184)scale(0.1 -0.1)">
      <defs>
       <path d="M 18.703125 0 
L 9.703125 0 
L 9.703125 71.40625 
L 49.59375 71.40625 
L 49.59375 63.5 
L 18.703125 63.5 
L 18.703125 38.203125 
L 47.703125 38.203125 
L 47.703125 30.296875 
L 18.703125 30.296875 
z
" id="NotoSans-Regular-70"/>
       <path d="M 50.203125 19.09375 
Q 50.203125 9.59375 43.296875 4.296875 
Q 36.40625 -1 24.703125 -1 
Q 18.703125 -1 13.59375 -0.09375 
Q 8.5 0.796875 5.09375 2.40625 
L 5.09375 11 
Q 8.703125 9.40625 14.046875 8.09375 
Q 19.40625 6.796875 25.09375 6.796875 
Q 33 6.796875 37.09375 9.890625 
Q 41.203125 13 41.203125 18.296875 
Q 41.203125 21.796875 39.703125 24.1875 
Q 38.203125 26.59375 34.5 28.59375 
Q 30.796875 30.59375 24.40625 33 
Q 15.203125 36.296875 10.59375 41.09375 
Q 6 45.90625 6 54.203125 
Q 6 59.796875 8.890625 63.890625 
Q 11.796875 68 16.890625 70.203125 
Q 22 72.40625 28.796875 72.40625 
Q 34.59375 72.40625 39.5 71.296875 
Q 44.40625 70.203125 48.5 68.40625 
L 45.703125 60.703125 
Q 42 62.296875 37.59375 63.390625 
Q 33.203125 64.5 28.59375 64.5 
Q 21.90625 64.5 18.5 61.640625 
Q 15.09375 58.796875 15.09375 54.09375 
Q 15.09375 50.5 16.59375 48.09375 
Q 18.09375 45.703125 21.5 43.75 
Q 24.90625 41.796875 30.703125 39.703125 
Q 37 37.40625 41.34375 34.75 
Q 45.703125 32.09375 47.953125 28.390625 
Q 50.203125 24.703125 50.203125 19.09375 
z
" id="NotoSans-Regular-83"/>
      </defs>
      <use xlink:href="#NotoSans-Regular-72"/>
      <use x="74.099991" xlink:href="#NotoSans-Regular-86"/>
      <use x="134.099976" xlink:href="#NotoSans-Regular-32"/>
      <use x="160.09996" xlink:href="#NotoSans-Regular-87"/>
      <use x="253.099945" xlink:href="#NotoSans-Regular-97"/>
      <use x="309.199936" xlink:href="#NotoSans-Regular-105"/>
      <use x="334.999924" xlink:href="#NotoSans-Regular-116"/>
      <use x="371.099915" xlink:href="#NotoSans-Regular-32"/>
      <use x="397.099899" xlink:href="#NotoSans-Regular-84"/>
      <use x="452.69989" xlink:href="#NotoSans-Regular-105"/>
      <use x="478.499878" xlink:href="#NotoSans-Regular-109"/>
      <use x="571.999863" xlink:href="#NotoSans-Regular-101"/>
      <use x="628.399857" xlink:href="#NotoSans-Regular-32"/>
      <use x="654.399841" xlink:href="#NotoSans-Regular-70"/>
      <use x="706.299835" xlink:href="#NotoSans-Regular-67"/>
      <use x="769.499832" xlink:href="#NotoSans-Regular-70"/>
      <use x="821.399826" xlink:href="#NotoSans-Regular-83"/>
     </g>
    </g>
    <g id="line2d_29">
     <path d="M 269.293438 292.684 
L 289.293438 292.684 
" style="fill:none;stroke:#d62728;stroke-linecap:square;stroke-width:1.5;"/>
    </g>
    <g id="line2d_30"/>
    <g id="text_24">
     <!-- CAV Wait Time FCFS -->
     <g transform="translate(297.293438 296.184)scale(0.1 -0.1)">
      <use xlink:href="#NotoSans-Regular-67"/>
      <use x="63.199997" xlink:href="#NotoSans-Regular-65"/>
      <use x="127.099991" xlink:href="#NotoSans-Regular-86"/>
      <use x="187.099976" xlink:href="#NotoSans-Regular-32"/>
      <use x="213.09996" xlink:href="#NotoSans-Regular-87"/>
      <use x="306.099945" xlink:href="#NotoSans-Regular-97"/>
      <use x="362.199936" xlink:href="#NotoSans-Regular-105"/>
      <use x="387.999924" xlink:href="#NotoSans-Regular-116"/>
      <use x="424.099915" xlink:href="#NotoSans-Regular-32"/>
      <use x="450.099899" xlink:href="#NotoSans-Regular-84"/>
      <use x="505.69989" xlink:href="#NotoSans-Regular-105"/>
      <use x="531.499878" xlink:href="#NotoSans-Regular-109"/>
      <use x="624.999863" xlink:href="#NotoSans-Regular-101"/>
      <use x="681.399857" xlink:href="#NotoSans-Regular-32"/>
      <use x="707.399841" xlink:href="#NotoSans-Regular-70"/>
      <use x="759.299835" xlink:href="#NotoSans-Regular-67"/>
      <use x="822.499832" xlink:href="#NotoSans-Regular-70"/>
      <use x="874.399826" xlink:href="#NotoSans-Regular-83"/>
     </g>
    </g>
   </g>
  </g>
 </g>
 <defs>
  <clipPath id="peda4c194bf">
   <rect height="266.112" width="357.12" x="57.6" y="41.472"/>
  </clipPath>
 </defs>
</svg>
