<?xml version="1.0" encoding="utf-8" standalone="no"?>
<!DOCTYPE svg PUBLIC "-//W3C//DTD SVG 1.1//EN"
  "http://www.w3.org/Graphics/SVG/1.1/DTD/svg11.dtd">
<!-- Created with matplotlib (https://matplotlib.org/) -->
<svg height="288pt" version="1.1" viewBox="0 0 432 288" width="432pt" xmlns="http://www.w3.org/2000/svg" xmlns:xlink="http://www.w3.org/1999/xlink">
 <metadata>
  <rdf:RDF xmlns:cc="http://creativecommons.org/ns#" xmlns:dc="http://purl.org/dc/elements/1.1/" xmlns:rdf="http://www.w3.org/1999/02/22-rdf-syntax-ns#">
   <cc:Work>
    <dc:type rdf:resource="http://purl.org/dc/dcmitype/StillImage"/>
    <dc:date>2022-06-22T15:47:58.807297</dc:date>
    <dc:format>image/svg+xml</dc:format>
    <dc:creator>
     <cc:Agent>
      <dc:title>Matplotlib v3.3.3, https://matplotlib.org/</dc:title>
     </cc:Agent>
    </dc:creator>
   </cc:Work>
  </rdf:RDF>
 </metadata>
 <defs>
  <style type="text/css">*{stroke-linecap:butt;stroke-linejoin:round;}</style>
 </defs>
 <g id="figure_1">
  <g id="patch_1">
   <path d="M 0 288 
L 432 288 
L 432 0 
L 0 0 
z
" style="fill:#ffffff;"/>
  </g>
  <g id="axes_1">
   <g id="patch_2">
    <path d="M 54 256.32 
L 388.8 256.32 
L 388.8 34.56 
L 54 34.56 
z
" style="fill:#ffffff;"/>
   </g>
   <g id="matplotlib.axis_1">
    <g id="xtick_1">
     <g id="line2d_1">
      <path clip-path="url(#pc418267abd)" d="M 69.218182 256.32 
L 69.218182 34.56 
" style="fill:none;stroke:#b0b0b0;stroke-linecap:square;stroke-width:0.8;"/>
     </g>
     <g id="line2d_2">
      <defs>
       <path d="M 0 0 
L 0 3.5 
" id="m99cf378061" style="stroke:#000000;stroke-width:0.8;"/>
      </defs>
      <g>
       <use style="stroke:#000000;stroke-width:0.8;" x="69.218182" xlink:href="#m99cf378061" y="256.32"/>
      </g>
     </g>
     <g id="text_1">
      <!-- 0.0 -->
      <g transform="translate(62.158026 270.92)scale(0.1 -0.1)">
       <defs>
        <path d="M 52.296875 35.796875 
Q 52.296875 24.203125 49.890625 16 
Q 47.5 7.796875 42.25 3.390625 
Q 37 -1 28.5 -1 
Q 16.40625 -1 10.65625 8.75 
Q 4.90625 18.5 4.90625 35.796875 
Q 4.90625 47.40625 7.25 55.59375 
Q 9.59375 63.796875 14.796875 68.140625 
Q 20 72.5 28.5 72.5 
Q 40.5 72.5 46.390625 62.84375 
Q 52.296875 53.203125 52.296875 35.796875 
z
M 13.703125 35.796875 
Q 13.703125 21.09375 17.046875 13.796875 
Q 20.40625 6.5 28.5 6.5 
Q 36.5 6.5 39.953125 13.75 
Q 43.40625 21 43.40625 35.796875 
Q 43.40625 50.40625 39.953125 57.703125 
Q 36.5 65 28.5 65 
Q 20.40625 65 17.046875 57.703125 
Q 13.703125 50.40625 13.703125 35.796875 
z
" id="NotoSans-Regular-48"/>
        <path d="M 7.203125 5.40625 
Q 7.203125 9.09375 9 10.59375 
Q 10.796875 12.09375 13.296875 12.09375 
Q 15.796875 12.09375 17.6875 10.59375 
Q 19.59375 9.09375 19.59375 5.40625 
Q 19.59375 1.796875 17.6875 0.1875 
Q 15.796875 -1.40625 13.296875 -1.40625 
Q 10.796875 -1.40625 9 0.1875 
Q 7.203125 1.796875 7.203125 5.40625 
z
" id="NotoSans-Regular-46"/>
       </defs>
       <use xlink:href="#NotoSans-Regular-48"/>
       <use x="57.199997" xlink:href="#NotoSans-Regular-46"/>
       <use x="83.999985" xlink:href="#NotoSans-Regular-48"/>
      </g>
     </g>
    </g>
    <g id="xtick_2">
     <g id="line2d_3">
      <path clip-path="url(#pc418267abd)" d="M 130.090909 256.32 
L 130.090909 34.56 
" style="fill:none;stroke:#b0b0b0;stroke-linecap:square;stroke-width:0.8;"/>
     </g>
     <g id="line2d_4">
      <g>
       <use style="stroke:#000000;stroke-width:0.8;" x="130.090909" xlink:href="#m99cf378061" y="256.32"/>
      </g>
     </g>
     <g id="text_2">
      <!-- 0.2 -->
      <g transform="translate(123.030753 270.92)scale(0.1 -0.1)">
       <defs>
        <path d="M 52 0 
L 4.796875 0 
L 4.796875 7.296875 
L 23.5 26.203125 
Q 28.796875 31.59375 32.546875 35.796875 
Q 36.296875 40 38.1875 44 
Q 40.09375 48 40.09375 52.90625 
Q 40.09375 58.796875 36.59375 61.84375 
Q 33.09375 64.90625 27.5 64.90625 
Q 22.203125 64.90625 18.296875 63.09375 
Q 14.40625 61.296875 10.296875 58.09375 
L 5.59375 64 
Q 9.796875 67.5 15.25 69.953125 
Q 20.703125 72.40625 27.5 72.40625 
Q 37.5 72.40625 43.296875 67.296875 
Q 49.09375 62.203125 49.09375 53.40625 
Q 49.09375 47.796875 46.796875 42.890625 
Q 44.5 38 40.390625 33.203125 
Q 36.296875 28.40625 30.796875 23.09375 
L 15.90625 8.40625 
L 15.90625 8 
L 52 8 
z
" id="NotoSans-Regular-50"/>
       </defs>
       <use xlink:href="#NotoSans-Regular-48"/>
       <use x="57.199997" xlink:href="#NotoSans-Regular-46"/>
       <use x="83.999985" xlink:href="#NotoSans-Regular-50"/>
      </g>
     </g>
    </g>
    <g id="xtick_3">
     <g id="line2d_5">
      <path clip-path="url(#pc418267abd)" d="M 190.963636 256.32 
L 190.963636 34.56 
" style="fill:none;stroke:#b0b0b0;stroke-linecap:square;stroke-width:0.8;"/>
     </g>
     <g id="line2d_6">
      <g>
       <use style="stroke:#000000;stroke-width:0.8;" x="190.963636" xlink:href="#m99cf378061" y="256.32"/>
      </g>
     </g>
     <g id="text_3">
      <!-- 0.4 -->
      <g transform="translate(183.90348 270.92)scale(0.1 -0.1)">
       <defs>
        <path d="M 55.203125 16.203125 
L 44.796875 16.203125 
L 44.796875 0 
L 36.296875 0 
L 36.296875 16.203125 
L 2.09375 16.203125 
L 2.09375 23.703125 
L 35.703125 71.796875 
L 44.796875 71.796875 
L 44.796875 24.09375 
L 55.203125 24.09375 
z
M 36.296875 24.09375 
L 36.296875 46.59375 
Q 36.296875 51.796875 36.4375 55.4375 
Q 36.59375 59.09375 36.796875 62.40625 
L 36.40625 62.40625 
Q 35.59375 60.5 34.390625 58.296875 
Q 33.203125 56.09375 32.09375 54.59375 
L 10.703125 24.09375 
z
" id="NotoSans-Regular-52"/>
       </defs>
       <use xlink:href="#NotoSans-Regular-48"/>
       <use x="57.199997" xlink:href="#NotoSans-Regular-46"/>
       <use x="83.999985" xlink:href="#NotoSans-Regular-52"/>
      </g>
     </g>
    </g>
    <g id="xtick_4">
     <g id="line2d_7">
      <path clip-path="url(#pc418267abd)" d="M 251.836364 256.32 
L 251.836364 34.56 
" style="fill:none;stroke:#b0b0b0;stroke-linecap:square;stroke-width:0.8;"/>
     </g>
     <g id="line2d_8">
      <g>
       <use style="stroke:#000000;stroke-width:0.8;" x="251.836364" xlink:href="#m99cf378061" y="256.32"/>
      </g>
     </g>
     <g id="text_4">
      <!-- 0.6 -->
      <g transform="translate(244.776207 270.92)scale(0.1 -0.1)">
       <defs>
        <path d="M 5.5 30.5 
Q 5.5 38.203125 6.84375 45.640625 
Q 8.203125 53.09375 11.75 59.140625 
Q 15.296875 65.203125 21.6875 68.796875 
Q 28.09375 72.40625 38.203125 72.40625 
Q 40.296875 72.40625 42.84375 72.203125 
Q 45.40625 72 47 71.5 
L 47 64 
Q 45.203125 64.59375 42.890625 64.890625 
Q 40.59375 65.203125 38.40625 65.203125 
Q 31.5 65.203125 26.890625 62.890625 
Q 22.296875 60.59375 19.640625 56.59375 
Q 17 52.59375 15.796875 47.390625 
Q 14.59375 42.203125 14.296875 36.296875 
L 14.90625 36.296875 
Q 17.203125 39.796875 21.296875 42.25 
Q 25.40625 44.703125 31.796875 44.703125 
Q 41.09375 44.703125 46.796875 39.046875 
Q 52.5 33.40625 52.5 23 
Q 52.5 11.796875 46.34375 5.390625 
Q 40.203125 -1 29.796875 -1 
Q 23 -1 17.5 2.390625 
Q 12 5.796875 8.75 12.796875 
Q 5.5 19.796875 5.5 30.5 
z
M 29.703125 6.40625 
Q 36 6.40625 39.890625 10.453125 
Q 43.796875 14.5 43.796875 23 
Q 43.796875 29.796875 40.34375 33.796875 
Q 36.90625 37.796875 30 37.796875 
Q 25.296875 37.796875 21.796875 35.84375 
Q 18.296875 33.90625 16.34375 30.84375 
Q 14.40625 27.796875 14.40625 24.703125 
Q 14.40625 20.40625 16.09375 16.15625 
Q 17.796875 11.90625 21.1875 9.15625 
Q 24.59375 6.40625 29.703125 6.40625 
z
" id="NotoSans-Regular-54"/>
       </defs>
       <use xlink:href="#NotoSans-Regular-48"/>
       <use x="57.199997" xlink:href="#NotoSans-Regular-46"/>
       <use x="83.999985" xlink:href="#NotoSans-Regular-54"/>
      </g>
     </g>
    </g>
    <g id="xtick_5">
     <g id="line2d_9">
      <path clip-path="url(#pc418267abd)" d="M 312.709091 256.32 
L 312.709091 34.56 
" style="fill:none;stroke:#b0b0b0;stroke-linecap:square;stroke-width:0.8;"/>
     </g>
     <g id="line2d_10">
      <g>
       <use style="stroke:#000000;stroke-width:0.8;" x="312.709091" xlink:href="#m99cf378061" y="256.32"/>
      </g>
     </g>
     <g id="text_5">
      <!-- 0.8 -->
      <g transform="translate(305.648935 270.92)scale(0.1 -0.1)">
       <defs>
        <path d="M 28.5 72.40625 
Q 37.90625 72.40625 43.90625 68 
Q 49.90625 63.59375 49.90625 55.296875 
Q 49.90625 51 48.046875 47.796875 
Q 46.203125 44.59375 43.09375 42.140625 
Q 40 39.703125 36.296875 37.796875 
Q 40.703125 35.59375 44.296875 33 
Q 47.90625 30.40625 50.046875 26.90625 
Q 52.203125 23.40625 52.203125 18.5 
Q 52.203125 9.5 45.796875 4.25 
Q 39.40625 -1 28.796875 -1 
Q 17.203125 -1 11.046875 4.046875 
Q 4.90625 9.09375 4.90625 18.203125 
Q 4.90625 23 6.953125 26.640625 
Q 9 30.296875 12.390625 32.890625 
Q 15.796875 35.5 19.703125 37.296875 
Q 14.40625 40.296875 10.796875 44.546875 
Q 7.203125 48.796875 7.203125 55.40625 
Q 7.203125 60.796875 10 64.59375 
Q 12.796875 68.40625 17.59375 70.40625 
Q 22.40625 72.40625 28.5 72.40625 
z
M 28.40625 65.296875 
Q 22.796875 65.296875 19.296875 62.640625 
Q 15.796875 60 15.796875 55 
Q 15.796875 51.296875 17.546875 48.796875 
Q 19.296875 46.296875 22.296875 44.546875 
Q 25.296875 42.796875 28.90625 41.203125 
Q 34.09375 43.40625 37.640625 46.5 
Q 41.203125 49.59375 41.203125 55 
Q 41.203125 60 37.703125 62.640625 
Q 34.203125 65.296875 28.40625 65.296875 
z
M 13.5 18.09375 
Q 13.5 12.90625 17.203125 9.453125 
Q 20.90625 6 28.59375 6 
Q 35.90625 6 39.75 9.453125 
Q 43.59375 12.90625 43.59375 18.40625 
Q 43.59375 23.59375 39.5 27.046875 
Q 35.40625 30.5 28.59375 33.09375 
L 27 33.703125 
Q 20.40625 30.796875 16.953125 27.1875 
Q 13.5 23.59375 13.5 18.09375 
z
" id="NotoSans-Regular-56"/>
       </defs>
       <use xlink:href="#NotoSans-Regular-48"/>
       <use x="57.199997" xlink:href="#NotoSans-Regular-46"/>
       <use x="83.999985" xlink:href="#NotoSans-Regular-56"/>
      </g>
     </g>
    </g>
    <g id="xtick_6">
     <g id="line2d_11">
      <path clip-path="url(#pc418267abd)" d="M 373.581818 256.32 
L 373.581818 34.56 
" style="fill:none;stroke:#b0b0b0;stroke-linecap:square;stroke-width:0.8;"/>
     </g>
     <g id="line2d_12">
      <g>
       <use style="stroke:#000000;stroke-width:0.8;" x="373.581818" xlink:href="#m99cf378061" y="256.32"/>
      </g>
     </g>
     <g id="text_6">
      <!-- 1.0 -->
      <g transform="translate(366.521662 270.92)scale(0.1 -0.1)">
       <defs>
        <path d="M 35.5 0 
L 26.90625 0 
L 26.90625 49.90625 
Q 26.90625 54.203125 27 56.796875 
Q 27.09375 59.40625 27.296875 62.203125 
Q 25.703125 60.59375 24.34375 59.5 
Q 23 58.40625 21.09375 56.703125 
L 13.5 50.5 
L 8.90625 56.40625 
L 28.203125 71.40625 
L 35.5 71.40625 
z
" id="NotoSans-Regular-49"/>
       </defs>
       <use xlink:href="#NotoSans-Regular-49"/>
       <use x="57.199997" xlink:href="#NotoSans-Regular-46"/>
       <use x="83.999985" xlink:href="#NotoSans-Regular-48"/>
      </g>
     </g>
    </g>
    <g id="text_7">
     <!-- HV ratio -->
     <g transform="translate(202.40625 284.92)scale(0.1 -0.1)">
      <defs>
       <path d="M 64.296875 0 
L 55.296875 0 
L 55.296875 33.296875 
L 18.703125 33.296875 
L 18.703125 0 
L 9.703125 0 
L 9.703125 71.40625 
L 18.703125 71.40625 
L 18.703125 41.203125 
L 55.296875 41.203125 
L 55.296875 71.40625 
L 64.296875 71.40625 
z
" id="NotoSans-Regular-72"/>
       <path d="M 60 71.40625 
L 34.5 0 
L 25.5 0 
L 0 71.40625 
L 9.40625 71.40625 
L 25.5 25.59375 
Q 27.09375 21.203125 28.140625 17.34375 
Q 29.203125 13.5 30 10 
Q 30.703125 13.5 31.796875 17.390625 
Q 32.90625 21.296875 34.5 25.796875 
L 50.5 71.40625 
z
" id="NotoSans-Regular-86"/>
       <path id="NotoSans-Regular-32"/>
       <path d="M 33.5 54.59375 
Q 35 54.59375 36.703125 54.4375 
Q 38.40625 54.296875 39.796875 54 
L 38.703125 45.90625 
Q 37.40625 46.203125 35.796875 46.390625 
Q 34.203125 46.59375 32.90625 46.59375 
Q 28.796875 46.59375 25.1875 44.34375 
Q 21.59375 42.09375 19.4375 38.046875 
Q 17.296875 34 17.296875 28.59375 
L 17.296875 0 
L 8.5 0 
L 8.5 53.59375 
L 15.703125 53.59375 
L 16.703125 43.796875 
L 17.09375 43.796875 
Q 19.59375 48.203125 23.75 51.390625 
Q 27.90625 54.59375 33.5 54.59375 
z
" id="NotoSans-Regular-114"/>
       <path d="M 28.796875 54.5 
Q 38.59375 54.5 43.296875 50.203125 
Q 48 45.90625 48 36.5 
L 48 0 
L 41.59375 0 
L 39.90625 7.59375 
L 39.5 7.59375 
Q 36 3.203125 32.09375 1.09375 
Q 28.203125 -1 21.5 -1 
Q 14.203125 -1 9.390625 2.84375 
Q 4.59375 6.703125 4.59375 14.90625 
Q 4.59375 22.90625 10.890625 27.25 
Q 17.203125 31.59375 30.296875 32 
L 39.40625 32.296875 
L 39.40625 35.5 
Q 39.40625 42.203125 36.5 44.796875 
Q 33.59375 47.40625 28.296875 47.40625 
Q 24.09375 47.40625 20.296875 46.15625 
Q 16.5 44.90625 13.203125 43.296875 
L 10.5 49.90625 
Q 14 51.796875 18.796875 53.140625 
Q 23.59375 54.5 28.796875 54.5 
z
M 39.296875 26.203125 
L 31.40625 25.90625 
Q 21.40625 25.5 17.546875 22.703125 
Q 13.703125 19.90625 13.703125 14.796875 
Q 13.703125 10.296875 16.453125 8.1875 
Q 19.203125 6.09375 23.5 6.09375 
Q 30.203125 6.09375 34.75 9.84375 
Q 39.296875 13.59375 39.296875 21.40625 
z
" id="NotoSans-Regular-97"/>
       <path d="M 26.40625 6.203125 
Q 28.40625 6.203125 30.5 6.5 
Q 32.59375 6.796875 33.90625 7.296875 
L 33.90625 0.59375 
Q 32.5 -0.09375 29.890625 -0.546875 
Q 27.296875 -1 24.90625 -1 
Q 20.703125 -1 17.140625 0.453125 
Q 13.59375 1.90625 11.390625 5.5 
Q 9.203125 9.09375 9.203125 15.59375 
L 9.203125 46.796875 
L 1.59375 46.796875 
L 1.59375 51 
L 9.296875 54.5 
L 12.796875 65.90625 
L 18 65.90625 
L 18 53.59375 
L 33.5 53.59375 
L 33.5 46.796875 
L 18 46.796875 
L 18 15.796875 
Q 18 10.90625 20.34375 8.546875 
Q 22.703125 6.203125 26.40625 6.203125 
z
" id="NotoSans-Regular-116"/>
       <path d="M 13 73.703125 
Q 15 73.703125 16.546875 72.34375 
Q 18.09375 71 18.09375 68.09375 
Q 18.09375 65.203125 16.546875 63.84375 
Q 15 62.5 13 62.5 
Q 10.796875 62.5 9.296875 63.84375 
Q 7.796875 65.203125 7.796875 68.09375 
Q 7.796875 71 9.296875 72.34375 
Q 10.796875 73.703125 13 73.703125 
z
M 17.296875 53.59375 
L 17.296875 0 
L 8.5 0 
L 8.5 53.59375 
z
" id="NotoSans-Regular-105"/>
       <path d="M 55.09375 26.90625 
Q 55.09375 13.59375 48.34375 6.296875 
Q 41.59375 -1 30.09375 -1 
Q 23 -1 17.453125 2.25 
Q 11.90625 5.5 8.703125 11.75 
Q 5.5 18 5.5 26.90625 
Q 5.5 40.203125 12.140625 47.390625 
Q 18.796875 54.59375 30.40625 54.59375 
Q 37.59375 54.59375 43.1875 51.34375 
Q 48.796875 48.09375 51.9375 41.9375 
Q 55.09375 35.796875 55.09375 26.90625 
z
M 14.59375 26.90625 
Q 14.59375 17.40625 18.34375 11.84375 
Q 22.09375 6.296875 30.296875 6.296875 
Q 38.40625 6.296875 42.203125 11.84375 
Q 46 17.40625 46 26.90625 
Q 46 36.40625 42.203125 41.796875 
Q 38.40625 47.203125 30.203125 47.203125 
Q 22 47.203125 18.296875 41.796875 
Q 14.59375 36.40625 14.59375 26.90625 
z
" id="NotoSans-Regular-111"/>
      </defs>
      <use xlink:href="#NotoSans-Regular-72"/>
      <use x="74.099991" xlink:href="#NotoSans-Regular-86"/>
      <use x="134.099976" xlink:href="#NotoSans-Regular-32"/>
      <use x="160.09996" xlink:href="#NotoSans-Regular-114"/>
      <use x="201.399948" xlink:href="#NotoSans-Regular-97"/>
      <use x="257.499939" xlink:href="#NotoSans-Regular-116"/>
      <use x="293.59993" xlink:href="#NotoSans-Regular-105"/>
      <use x="319.399918" xlink:href="#NotoSans-Regular-111"/>
     </g>
    </g>
   </g>
   <g id="matplotlib.axis_2">
    <g id="ytick_1">
     <g id="line2d_13">
      <path clip-path="url(#pc418267abd)" d="M 54 236.707199 
L 388.8 236.707199 
" style="fill:none;stroke:#b0b0b0;stroke-linecap:square;stroke-width:0.8;"/>
     </g>
     <g id="line2d_14">
      <defs>
       <path d="M 0 0 
L -3.5 0 
" id="m38770ed13f" style="stroke:#000000;stroke-width:0.8;"/>
      </defs>
      <g>
       <use style="stroke:#000000;stroke-width:0.8;" x="54" xlink:href="#m38770ed13f" y="236.707199"/>
      </g>
     </g>
     <g id="text_8">
      <!-- 40 -->
      <g transform="translate(35.559375 240.507199)scale(0.1 -0.1)">
       <use xlink:href="#NotoSans-Regular-52"/>
       <use x="57.199997" xlink:href="#NotoSans-Regular-48"/>
      </g>
     </g>
    </g>
    <g id="ytick_2">
     <g id="line2d_15">
      <path clip-path="url(#pc418267abd)" d="M 54 204.116427 
L 388.8 204.116427 
" style="fill:none;stroke:#b0b0b0;stroke-linecap:square;stroke-width:0.8;"/>
     </g>
     <g id="line2d_16">
      <g>
       <use style="stroke:#000000;stroke-width:0.8;" x="54" xlink:href="#m38770ed13f" y="204.116427"/>
      </g>
     </g>
     <g id="text_9">
      <!-- 50 -->
      <g transform="translate(35.559375 207.916427)scale(0.1 -0.1)">
       <defs>
        <path d="M 27.5 43.796875 
Q 38.40625 43.796875 44.953125 38.296875 
Q 51.5 32.796875 51.5 22.796875 
Q 51.5 11.703125 44.453125 5.34375 
Q 37.40625 -1 24.796875 -1 
Q 19.203125 -1 14.390625 0 
Q 9.59375 1 6.296875 2.90625 
L 6.296875 11.203125 
Q 9.90625 9 15.046875 7.75 
Q 20.203125 6.5 24.90625 6.5 
Q 32.796875 6.5 37.640625 10.25 
Q 42.5 14 42.5 21.90625 
Q 42.5 28.90625 38.203125 32.65625 
Q 33.90625 36.40625 24.59375 36.40625 
Q 21.796875 36.40625 18.1875 35.90625 
Q 14.59375 35.40625 12.40625 34.90625 
L 8 37.703125 
L 10.703125 71.40625 
L 46.5 71.40625 
L 46.5 63.40625 
L 18.203125 63.40625 
L 16.5 42.703125 
Q 18.203125 43 21.09375 43.390625 
Q 24 43.796875 27.5 43.796875 
z
" id="NotoSans-Regular-53"/>
       </defs>
       <use xlink:href="#NotoSans-Regular-53"/>
       <use x="57.199997" xlink:href="#NotoSans-Regular-48"/>
      </g>
     </g>
    </g>
    <g id="ytick_3">
     <g id="line2d_17">
      <path clip-path="url(#pc418267abd)" d="M 54 171.525654 
L 388.8 171.525654 
" style="fill:none;stroke:#b0b0b0;stroke-linecap:square;stroke-width:0.8;"/>
     </g>
     <g id="line2d_18">
      <g>
       <use style="stroke:#000000;stroke-width:0.8;" x="54" xlink:href="#m38770ed13f" y="171.525654"/>
      </g>
     </g>
     <g id="text_10">
      <!-- 60 -->
      <g transform="translate(35.559375 175.325654)scale(0.1 -0.1)">
       <use xlink:href="#NotoSans-Regular-54"/>
       <use x="57.199997" xlink:href="#NotoSans-Regular-48"/>
      </g>
     </g>
    </g>
    <g id="ytick_4">
     <g id="line2d_19">
      <path clip-path="url(#pc418267abd)" d="M 54 138.934882 
L 388.8 138.934882 
" style="fill:none;stroke:#b0b0b0;stroke-linecap:square;stroke-width:0.8;"/>
     </g>
     <g id="line2d_20">
      <g>
       <use style="stroke:#000000;stroke-width:0.8;" x="54" xlink:href="#m38770ed13f" y="138.934882"/>
      </g>
     </g>
     <g id="text_11">
      <!-- 70 -->
      <g transform="translate(35.559375 142.734882)scale(0.1 -0.1)">
       <defs>
        <path d="M 13.59375 0 
L 42.90625 63.40625 
L 4.40625 63.40625 
L 4.40625 71.40625 
L 52.296875 71.40625 
L 52.296875 64.59375 
L 23.296875 0 
z
" id="NotoSans-Regular-55"/>
       </defs>
       <use xlink:href="#NotoSans-Regular-55"/>
       <use x="57.199997" xlink:href="#NotoSans-Regular-48"/>
      </g>
     </g>
    </g>
    <g id="ytick_5">
     <g id="line2d_21">
      <path clip-path="url(#pc418267abd)" d="M 54 106.344109 
L 388.8 106.344109 
" style="fill:none;stroke:#b0b0b0;stroke-linecap:square;stroke-width:0.8;"/>
     </g>
     <g id="line2d_22">
      <g>
       <use style="stroke:#000000;stroke-width:0.8;" x="54" xlink:href="#m38770ed13f" y="106.344109"/>
      </g>
     </g>
     <g id="text_12">
      <!-- 80 -->
      <g transform="translate(35.559375 110.144109)scale(0.1 -0.1)">
       <use xlink:href="#NotoSans-Regular-56"/>
       <use x="57.199997" xlink:href="#NotoSans-Regular-48"/>
      </g>
     </g>
    </g>
    <g id="ytick_6">
     <g id="line2d_23">
      <path clip-path="url(#pc418267abd)" d="M 54 73.753337 
L 388.8 73.753337 
" style="fill:none;stroke:#b0b0b0;stroke-linecap:square;stroke-width:0.8;"/>
     </g>
     <g id="line2d_24">
      <g>
       <use style="stroke:#000000;stroke-width:0.8;" x="54" xlink:href="#m38770ed13f" y="73.753337"/>
      </g>
     </g>
     <g id="text_13">
      <!-- 90 -->
      <g transform="translate(35.559375 77.553337)scale(0.1 -0.1)">
       <defs>
        <path d="M 52 40.90625 
Q 52 33.203125 50.640625 25.75 
Q 49.296875 18.296875 45.75 12.25 
Q 42.203125 6.203125 35.75 2.59375 
Q 29.296875 -1 19.203125 -1 
Q 17.203125 -1 14.5 -0.75 
Q 11.796875 -0.5 10.203125 0 
L 10.203125 7.5 
Q 14.09375 6.203125 19 6.203125 
Q 26 6.203125 30.546875 8.5 
Q 35.09375 10.796875 37.796875 14.75 
Q 40.5 18.703125 41.703125 23.953125 
Q 42.90625 29.203125 43.09375 35 
L 42.5 35 
Q 40.203125 31.59375 36.09375 29.140625 
Q 32 26.703125 25.5 26.703125 
Q 16.296875 26.703125 10.640625 32.34375 
Q 5 38 5 48.296875 
Q 5 55.796875 7.796875 61.1875 
Q 10.59375 66.59375 15.75 69.5 
Q 20.90625 72.40625 27.796875 72.40625 
Q 34.59375 72.40625 40.09375 68.953125 
Q 45.59375 65.5 48.796875 58.546875 
Q 52 51.59375 52 40.90625 
z
M 27.796875 65 
Q 21.59375 65 17.640625 60.890625 
Q 13.703125 56.796875 13.703125 48.40625 
Q 13.703125 41.5 17.046875 37.546875 
Q 20.40625 33.59375 27.40625 33.59375 
Q 32.203125 33.59375 35.703125 35.546875 
Q 39.203125 37.5 41.140625 40.5 
Q 43.09375 43.5 43.09375 46.703125 
Q 43.09375 51 41.390625 55.203125 
Q 39.703125 59.40625 36.296875 62.203125 
Q 32.90625 65 27.796875 65 
z
" id="NotoSans-Regular-57"/>
       </defs>
       <use xlink:href="#NotoSans-Regular-57"/>
       <use x="57.199997" xlink:href="#NotoSans-Regular-48"/>
      </g>
     </g>
    </g>
    <g id="ytick_7">
     <g id="line2d_25">
      <path clip-path="url(#pc418267abd)" d="M 54 41.162565 
L 388.8 41.162565 
" style="fill:none;stroke:#b0b0b0;stroke-linecap:square;stroke-width:0.8;"/>
     </g>
     <g id="line2d_26">
      <g>
       <use style="stroke:#000000;stroke-width:0.8;" x="54" xlink:href="#m38770ed13f" y="41.162565"/>
      </g>
     </g>
     <g id="text_14">
      <!-- 100 -->
      <g transform="translate(29.839063 44.962565)scale(0.1 -0.1)">
       <use xlink:href="#NotoSans-Regular-49"/>
       <use x="57.199997" xlink:href="#NotoSans-Regular-48"/>
       <use x="114.399994" xlink:href="#NotoSans-Regular-48"/>
      </g>
     </g>
    </g>
    <g id="text_15">
     <!-- Cost (second) -->
     <g transform="translate(23.439062 176.930625)rotate(-90)scale(0.1 -0.1)">
      <defs>
       <path d="M 40.296875 64.5 
Q 28.796875 64.5 22.1875 56.796875 
Q 15.59375 49.09375 15.59375 35.703125 
Q 15.59375 22.40625 21.75 14.65625 
Q 27.90625 6.90625 40.203125 6.90625 
Q 44.796875 6.90625 49 7.703125 
Q 53.203125 8.5 57.296875 9.703125 
L 57.296875 1.90625 
Q 53.296875 0.40625 49.046875 -0.296875 
Q 44.796875 -1 38.90625 -1 
Q 28 -1 20.703125 3.5 
Q 13.40625 8 9.75 16.296875 
Q 6.09375 24.59375 6.09375 35.796875 
Q 6.09375 46.59375 10.046875 54.84375 
Q 14 63.09375 21.703125 67.75 
Q 29.40625 72.40625 40.40625 72.40625 
Q 51.703125 72.40625 60.09375 68.203125 
L 56.5 60.59375 
Q 53.203125 62.09375 49.140625 63.296875 
Q 45.09375 64.5 40.296875 64.5 
z
" id="NotoSans-Regular-67"/>
       <path d="M 43.40625 14.796875 
Q 43.40625 7 37.59375 3 
Q 31.796875 -1 22 -1 
Q 16.40625 -1 12.34375 -0.09375 
Q 8.296875 0.796875 5.203125 2.40625 
L 5.203125 10.40625 
Q 8.40625 8.796875 12.953125 7.4375 
Q 17.5 6.09375 22.203125 6.09375 
Q 28.90625 6.09375 31.90625 8.25 
Q 34.90625 10.40625 34.90625 14 
Q 34.90625 16 33.796875 17.59375 
Q 32.703125 19.203125 29.84375 20.796875 
Q 27 22.40625 21.703125 24.40625 
Q 16.5 26.40625 12.796875 28.40625 
Q 9.09375 30.40625 7.09375 33.203125 
Q 5.09375 36 5.09375 40.40625 
Q 5.09375 47.203125 10.640625 50.890625 
Q 16.203125 54.59375 25.203125 54.59375 
Q 30.09375 54.59375 34.34375 53.59375 
Q 38.59375 52.59375 42.296875 51 
L 39.296875 44 
Q 35.90625 45.40625 32.203125 46.40625 
Q 28.5 47.40625 24.59375 47.40625 
Q 19.203125 47.40625 16.34375 45.65625 
Q 13.5 43.90625 13.5 40.90625 
Q 13.5 38.59375 14.796875 37.09375 
Q 16.09375 35.59375 19.140625 34.09375 
Q 22.203125 32.59375 27.296875 30.703125 
Q 32.40625 28.796875 36 26.796875 
Q 39.59375 24.796875 41.5 21.9375 
Q 43.40625 19.09375 43.40625 14.796875 
z
" id="NotoSans-Regular-115"/>
       <path d="M 4 27.40625 
Q 4 39.59375 7.546875 50.9375 
Q 11.09375 62.296875 18.703125 71.40625 
L 27 71.40625 
Q 20 62 16.453125 50.703125 
Q 12.90625 39.40625 12.90625 27.5 
Q 12.90625 15.90625 16.453125 4.75 
Q 20 -6.40625 26.90625 -15.796875 
L 18.703125 -15.796875 
Q 11.09375 -7 7.546875 4.140625 
Q 4 15.296875 4 27.40625 
z
" id="NotoSans-Regular-40"/>
       <path d="M 29.203125 54.59375 
Q 36 54.59375 41 51.59375 
Q 46 48.59375 48.640625 43.140625 
Q 51.296875 37.703125 51.296875 30.40625 
L 51.296875 25.09375 
L 14.59375 25.09375 
Q 14.796875 16 19.25 11.25 
Q 23.703125 6.5 31.703125 6.5 
Q 36.796875 6.5 40.75 7.453125 
Q 44.703125 8.40625 48.90625 10.203125 
L 48.90625 2.5 
Q 44.796875 0.703125 40.796875 -0.140625 
Q 36.796875 -1 31.296875 -1 
Q 23.59375 -1 17.796875 2.09375 
Q 12 5.203125 8.75 11.296875 
Q 5.5 17.40625 5.5 26.40625 
Q 5.5 35.203125 8.453125 41.5 
Q 11.40625 47.796875 16.75 51.1875 
Q 22.09375 54.59375 29.203125 54.59375 
z
M 29.09375 47.40625 
Q 22.796875 47.40625 19.140625 43.34375 
Q 15.5 39.296875 14.796875 32.09375 
L 42.09375 32.09375 
Q 42 38.90625 38.890625 43.15625 
Q 35.796875 47.40625 29.09375 47.40625 
z
" id="NotoSans-Regular-101"/>
       <path d="M 30 -1 
Q 22.796875 -1 17.296875 1.890625 
Q 11.796875 4.796875 8.640625 10.890625 
Q 5.5 17 5.5 26.5 
Q 5.5 36.40625 8.75 42.59375 
Q 12 48.796875 17.703125 51.6875 
Q 23.40625 54.59375 30.59375 54.59375 
Q 34.59375 54.59375 38.4375 53.75 
Q 42.296875 52.90625 44.703125 51.703125 
L 42 44.40625 
Q 39.59375 45.296875 36.390625 46.09375 
Q 33.203125 46.90625 30.40625 46.90625 
Q 14.59375 46.90625 14.59375 26.59375 
Q 14.59375 16.90625 18.4375 11.75 
Q 22.296875 6.59375 29.90625 6.59375 
Q 34.203125 6.59375 37.59375 7.5 
Q 41 8.40625 43.796875 9.703125 
L 43.796875 1.90625 
Q 41.09375 0.5 37.84375 -0.25 
Q 34.59375 -1 30 -1 
z
" id="NotoSans-Regular-99"/>
       <path d="M 34.296875 54.59375 
Q 43.90625 54.59375 48.796875 49.890625 
Q 53.703125 45.203125 53.703125 34.90625 
L 53.703125 0 
L 45 0 
L 45 34.296875 
Q 45 47.203125 33 47.203125 
Q 24.09375 47.203125 20.6875 42.203125 
Q 17.296875 37.203125 17.296875 27.796875 
L 17.296875 0 
L 8.5 0 
L 8.5 53.59375 
L 15.59375 53.59375 
L 16.90625 46.296875 
L 17.40625 46.296875 
Q 20 50.5 24.59375 52.546875 
Q 29.203125 54.59375 34.296875 54.59375 
z
" id="NotoSans-Regular-110"/>
       <path d="M 27.5 -1 
Q 17.5 -1 11.5 5.953125 
Q 5.5 12.90625 5.5 26.703125 
Q 5.5 40.5 11.546875 47.546875 
Q 17.59375 54.59375 27.59375 54.59375 
Q 33.796875 54.59375 37.75 52.296875 
Q 41.703125 50 44.203125 46.703125 
L 44.796875 46.703125 
Q 44.59375 48 44.390625 50.546875 
Q 44.203125 53.09375 44.203125 54.59375 
L 44.203125 76 
L 53 76 
L 53 0 
L 45.90625 0 
L 44.59375 7.203125 
L 44.203125 7.203125 
Q 41.796875 3.796875 37.796875 1.390625 
Q 33.796875 -1 27.5 -1 
z
M 28.90625 6.296875 
Q 37.40625 6.296875 40.84375 10.9375 
Q 44.296875 15.59375 44.296875 25 
L 44.296875 26.59375 
Q 44.296875 36.59375 41 41.9375 
Q 37.703125 47.296875 28.796875 47.296875 
Q 21.703125 47.296875 18.140625 41.640625 
Q 14.59375 36 14.59375 26.5 
Q 14.59375 16.90625 18.140625 11.59375 
Q 21.703125 6.296875 28.90625 6.296875 
z
" id="NotoSans-Regular-100"/>
       <path d="M 26 27.40625 
Q 26 15.296875 22.453125 4.140625 
Q 18.90625 -7 11.296875 -15.796875 
L 3.09375 -15.796875 
Q 10 -6.40625 13.546875 4.75 
Q 17.09375 15.90625 17.09375 27.5 
Q 17.09375 39.40625 13.546875 50.703125 
Q 10 62 3 71.40625 
L 11.296875 71.40625 
Q 18.90625 62.296875 22.453125 50.9375 
Q 26 39.59375 26 27.40625 
z
" id="NotoSans-Regular-41"/>
      </defs>
      <use xlink:href="#NotoSans-Regular-67"/>
      <use x="63.199997" xlink:href="#NotoSans-Regular-111"/>
      <use x="123.699982" xlink:href="#NotoSans-Regular-115"/>
      <use x="171.599976" xlink:href="#NotoSans-Regular-116"/>
      <use x="207.699966" xlink:href="#NotoSans-Regular-32"/>
      <use x="233.699951" xlink:href="#NotoSans-Regular-40"/>
      <use x="263.699936" xlink:href="#NotoSans-Regular-115"/>
      <use x="311.59993" xlink:href="#NotoSans-Regular-101"/>
      <use x="367.999924" xlink:href="#NotoSans-Regular-99"/>
      <use x="415.999908" xlink:href="#NotoSans-Regular-111"/>
      <use x="476.499893" xlink:href="#NotoSans-Regular-110"/>
      <use x="538.299881" xlink:href="#NotoSans-Regular-100"/>
      <use x="599.799866" xlink:href="#NotoSans-Regular-41"/>
     </g>
    </g>
   </g>
   <g id="line2d_27">
    <path clip-path="url(#pc418267abd)" d="M 69.218182 246.24 
L 99.654545 235.390532 
L 130.090909 228.732237 
L 160.527273 212.29997 
L 190.963636 198.002398 
L 221.4 175.400697 
L 251.836364 154.523048 
L 282.272727 129.063137 
L 312.709091 95.367537 
L 343.145455 76.588734 
L 373.581818 45.94689 
" style="fill:none;stroke:#ff0000;stroke-linecap:square;"/>
    <defs>
     <path d="M -2.5 2.5 
L 2.5 2.5 
L 2.5 -2.5 
L -2.5 -2.5 
z
" id="m0fd53749de" style="stroke:#ff0000;stroke-linejoin:miter;"/>
    </defs>
    <g clip-path="url(#pc418267abd)">
     <use style="fill:#ff0000;stroke:#ff0000;stroke-linejoin:miter;" x="69.218182" xlink:href="#m0fd53749de" y="246.24"/>
     <use style="fill:#ff0000;stroke:#ff0000;stroke-linejoin:miter;" x="99.654545" xlink:href="#m0fd53749de" y="235.390532"/>
     <use style="fill:#ff0000;stroke:#ff0000;stroke-linejoin:miter;" x="130.090909" xlink:href="#m0fd53749de" y="228.732237"/>
     <use style="fill:#ff0000;stroke:#ff0000;stroke-linejoin:miter;" x="160.527273" xlink:href="#m0fd53749de" y="212.29997"/>
     <use style="fill:#ff0000;stroke:#ff0000;stroke-linejoin:miter;" x="190.963636" xlink:href="#m0fd53749de" y="198.002398"/>
     <use style="fill:#ff0000;stroke:#ff0000;stroke-linejoin:miter;" x="221.4" xlink:href="#m0fd53749de" y="175.400697"/>
     <use style="fill:#ff0000;stroke:#ff0000;stroke-linejoin:miter;" x="251.836364" xlink:href="#m0fd53749de" y="154.523048"/>
     <use style="fill:#ff0000;stroke:#ff0000;stroke-linejoin:miter;" x="282.272727" xlink:href="#m0fd53749de" y="129.063137"/>
     <use style="fill:#ff0000;stroke:#ff0000;stroke-linejoin:miter;" x="312.709091" xlink:href="#m0fd53749de" y="95.367537"/>
     <use style="fill:#ff0000;stroke:#ff0000;stroke-linejoin:miter;" x="343.145455" xlink:href="#m0fd53749de" y="76.588734"/>
     <use style="fill:#ff0000;stroke:#ff0000;stroke-linejoin:miter;" x="373.581818" xlink:href="#m0fd53749de" y="45.94689"/>
    </g>
   </g>
   <g id="line2d_28">
    <path clip-path="url(#pc418267abd)" d="M 69.218182 242.351921 
L 99.654545 168.152509 
L 130.090909 122.000716 
L 160.527273 85.847773 
L 190.963636 65.944588 
L 221.4 56.382455 
L 251.836364 50.701884 
L 282.272727 44.64 
L 312.709091 44.913762 
L 343.145455 45.59491 
L 373.581818 46.924613 
" style="fill:none;stroke:#0000ff;stroke-linecap:square;"/>
    <defs>
     <path d="M -2.5 2.5 
L 2.5 2.5 
L 2.5 -2.5 
L -2.5 -2.5 
z
" id="md60a5a203b" style="stroke:#0000ff;stroke-linejoin:miter;"/>
    </defs>
    <g clip-path="url(#pc418267abd)">
     <use style="fill:#0000ff;stroke:#0000ff;stroke-linejoin:miter;" x="69.218182" xlink:href="#md60a5a203b" y="242.351921"/>
     <use style="fill:#0000ff;stroke:#0000ff;stroke-linejoin:miter;" x="99.654545" xlink:href="#md60a5a203b" y="168.152509"/>
     <use style="fill:#0000ff;stroke:#0000ff;stroke-linejoin:miter;" x="130.090909" xlink:href="#md60a5a203b" y="122.000716"/>
     <use style="fill:#0000ff;stroke:#0000ff;stroke-linejoin:miter;" x="160.527273" xlink:href="#md60a5a203b" y="85.847773"/>
     <use style="fill:#0000ff;stroke:#0000ff;stroke-linejoin:miter;" x="190.963636" xlink:href="#md60a5a203b" y="65.944588"/>
     <use style="fill:#0000ff;stroke:#0000ff;stroke-linejoin:miter;" x="221.4" xlink:href="#md60a5a203b" y="56.382455"/>
     <use style="fill:#0000ff;stroke:#0000ff;stroke-linejoin:miter;" x="251.836364" xlink:href="#md60a5a203b" y="50.701884"/>
     <use style="fill:#0000ff;stroke:#0000ff;stroke-linejoin:miter;" x="282.272727" xlink:href="#md60a5a203b" y="44.64"/>
     <use style="fill:#0000ff;stroke:#0000ff;stroke-linejoin:miter;" x="312.709091" xlink:href="#md60a5a203b" y="44.913762"/>
     <use style="fill:#0000ff;stroke:#0000ff;stroke-linejoin:miter;" x="343.145455" xlink:href="#md60a5a203b" y="45.59491"/>
     <use style="fill:#0000ff;stroke:#0000ff;stroke-linejoin:miter;" x="373.581818" xlink:href="#md60a5a203b" y="46.924613"/>
    </g>
   </g>
   <g id="patch_3">
    <path d="M 54 256.32 
L 54 34.56 
" style="fill:none;stroke:#000000;stroke-linecap:square;stroke-linejoin:miter;stroke-width:0.8;"/>
   </g>
   <g id="patch_4">
    <path d="M 388.8 256.32 
L 388.8 34.56 
" style="fill:none;stroke:#000000;stroke-linecap:square;stroke-linejoin:miter;stroke-width:0.8;"/>
   </g>
   <g id="patch_5">
    <path d="M 54 256.32 
L 388.8 256.32 
" style="fill:none;stroke:#000000;stroke-linecap:square;stroke-linejoin:miter;stroke-width:0.8;"/>
   </g>
   <g id="patch_6">
    <path d="M 54 34.56 
L 388.8 34.56 
" style="fill:none;stroke:#000000;stroke-linecap:square;stroke-linejoin:miter;stroke-width:0.8;"/>
   </g>
   <g id="legend_1">
    <g id="patch_7">
     <path d="M 252.578125 251.32 
L 381.8 251.32 
Q 383.8 251.32 383.8 249.32 
L 383.8 220.32 
Q 383.8 218.32 381.8 218.32 
L 252.578125 218.32 
Q 250.578125 218.32 250.578125 220.32 
L 250.578125 249.32 
Q 250.578125 251.32 252.578125 251.32 
z
" style="fill:#ffffff;opacity:0.8;stroke:#cccccc;stroke-linejoin:miter;"/>
    </g>
    <g id="line2d_29">
     <path d="M 254.578125 226.42 
L 274.578125 226.42 
" style="fill:none;stroke:#ff0000;stroke-linecap:square;"/>
    </g>
    <g id="line2d_30">
     <g>
      <use style="fill:#ff0000;stroke:#ff0000;stroke-linejoin:miter;" x="264.578125" xlink:href="#m0fd53749de" y="226.42"/>
     </g>
    </g>
    <g id="text_16">
     <!-- MILP as Subproblem -->
     <g transform="translate(282.578125 229.92)scale(0.1 -0.1)">
      <defs>
       <path d="M 41.203125 0 
L 17.703125 62.59375 
L 17.296875 62.59375 
Q 17.59375 59.5 17.796875 54.25 
Q 18 49 18 43.296875 
L 18 0 
L 9.703125 0 
L 9.703125 71.40625 
L 23 71.40625 
L 45 12.90625 
L 45.40625 12.90625 
L 67.796875 71.40625 
L 81 71.40625 
L 81 0 
L 72.09375 0 
L 72.09375 43.90625 
Q 72.09375 49.09375 72.34375 54.1875 
Q 72.59375 59.296875 72.796875 62.5 
L 72.40625 62.5 
L 48.59375 0 
z
" id="NotoSans-Regular-77"/>
       <path d="M 29.796875 0 
L 4 0 
L 4 5.203125 
L 12.40625 7.09375 
L 12.40625 64.203125 
L 4 66.203125 
L 4 71.40625 
L 29.796875 71.40625 
L 29.796875 66.203125 
L 21.40625 64.203125 
L 21.40625 7.09375 
L 29.796875 5.203125 
z
" id="NotoSans-Regular-73"/>
       <path d="M 9.703125 0 
L 9.703125 71.40625 
L 18.703125 71.40625 
L 18.703125 8 
L 49.90625 8 
L 49.90625 0 
z
" id="NotoSans-Regular-76"/>
       <path d="M 28.59375 71.40625 
Q 42.59375 71.40625 49 65.90625 
Q 55.40625 60.40625 55.40625 50.40625 
Q 55.40625 44.5 52.75 39.34375 
Q 50.09375 34.203125 43.84375 31 
Q 37.59375 27.796875 26.90625 27.796875 
L 18.703125 27.796875 
L 18.703125 0 
L 9.703125 0 
L 9.703125 71.40625 
z
M 27.796875 63.703125 
L 18.703125 63.703125 
L 18.703125 35.5 
L 25.90625 35.5 
Q 36.09375 35.5 41.09375 38.796875 
Q 46.09375 42.09375 46.09375 50 
Q 46.09375 56.90625 41.640625 60.296875 
Q 37.203125 63.703125 27.796875 63.703125 
z
" id="NotoSans-Regular-80"/>
       <path d="M 50.203125 19.09375 
Q 50.203125 9.59375 43.296875 4.296875 
Q 36.40625 -1 24.703125 -1 
Q 18.703125 -1 13.59375 -0.09375 
Q 8.5 0.796875 5.09375 2.40625 
L 5.09375 11 
Q 8.703125 9.40625 14.046875 8.09375 
Q 19.40625 6.796875 25.09375 6.796875 
Q 33 6.796875 37.09375 9.890625 
Q 41.203125 13 41.203125 18.296875 
Q 41.203125 21.796875 39.703125 24.1875 
Q 38.203125 26.59375 34.5 28.59375 
Q 30.796875 30.59375 24.40625 33 
Q 15.203125 36.296875 10.59375 41.09375 
Q 6 45.90625 6 54.203125 
Q 6 59.796875 8.890625 63.890625 
Q 11.796875 68 16.890625 70.203125 
Q 22 72.40625 28.796875 72.40625 
Q 34.59375 72.40625 39.5 71.296875 
Q 44.40625 70.203125 48.5 68.40625 
L 45.703125 60.703125 
Q 42 62.296875 37.59375 63.390625 
Q 33.203125 64.5 28.59375 64.5 
Q 21.90625 64.5 18.5 61.640625 
Q 15.09375 58.796875 15.09375 54.09375 
Q 15.09375 50.5 16.59375 48.09375 
Q 18.09375 45.703125 21.5 43.75 
Q 24.90625 41.796875 30.703125 39.703125 
Q 37 37.40625 41.34375 34.75 
Q 45.703125 32.09375 47.953125 28.390625 
Q 50.203125 24.703125 50.203125 19.09375 
z
" id="NotoSans-Regular-83"/>
       <path d="M 53.296875 53.59375 
L 53.296875 0 
L 46.09375 0 
L 44.796875 7.09375 
L 44.40625 7.09375 
Q 41.796875 2.90625 37.1875 0.953125 
Q 32.59375 -1 27.40625 -1 
Q 17.703125 -1 12.796875 3.640625 
Q 7.90625 8.296875 7.90625 18.5 
L 7.90625 53.59375 
L 16.796875 53.59375 
L 16.796875 19.09375 
Q 16.796875 6.296875 28.703125 6.296875 
Q 37.59375 6.296875 41.046875 11.296875 
Q 44.5 16.296875 44.5 25.703125 
L 44.5 53.59375 
z
" id="NotoSans-Regular-117"/>
       <path d="M 17.296875 76 
L 17.296875 57.5 
Q 17.296875 54.09375 17.140625 51.140625 
Q 17 48.203125 16.796875 46.5 
L 17.296875 46.5 
Q 19.59375 49.90625 23.59375 52.203125 
Q 27.59375 54.5 33.90625 54.5 
Q 43.90625 54.5 49.953125 47.546875 
Q 56 40.59375 56 26.796875 
Q 56 13 49.890625 6 
Q 43.796875 -1 33.90625 -1 
Q 27.59375 -1 23.59375 1.296875 
Q 19.59375 3.59375 17.296875 6.796875 
L 16.59375 6.796875 
L 14.796875 0 
L 8.5 0 
L 8.5 76 
z
M 32.40625 47.203125 
Q 23.796875 47.203125 20.546875 42.296875 
Q 17.296875 37.40625 17.296875 27.09375 
L 17.296875 26.703125 
Q 17.296875 16.796875 20.546875 11.546875 
Q 23.796875 6.296875 32.59375 6.296875 
Q 39.796875 6.296875 43.34375 11.59375 
Q 46.90625 16.90625 46.90625 26.90625 
Q 46.90625 47.203125 32.40625 47.203125 
z
" id="NotoSans-Regular-98"/>
       <path d="M 34 54.59375 
Q 43.90625 54.59375 49.953125 47.6875 
Q 56 40.796875 56 26.90625 
Q 56 13.203125 49.953125 6.09375 
Q 43.90625 -1 33.90625 -1 
Q 27.703125 -1 23.640625 1.296875 
Q 19.59375 3.59375 17.296875 6.796875 
L 16.703125 6.796875 
Q 16.796875 5.09375 17.046875 2.5 
Q 17.296875 -0.09375 17.296875 -2 
L 17.296875 -24 
L 8.5 -24 
L 8.5 53.59375 
L 15.703125 53.59375 
L 16.90625 46.296875 
L 17.296875 46.296875 
Q 19.703125 49.796875 23.59375 52.1875 
Q 27.5 54.59375 34 54.59375 
z
M 32.40625 47.203125 
Q 24.203125 47.203125 20.796875 42.59375 
Q 17.40625 38 17.296875 28.59375 
L 17.296875 26.90625 
Q 17.296875 17 20.546875 11.640625 
Q 23.796875 6.296875 32.59375 6.296875 
Q 37.40625 6.296875 40.59375 8.9375 
Q 43.796875 11.59375 45.34375 16.296875 
Q 46.90625 21 46.90625 27 
Q 46.90625 36.203125 43.34375 41.703125 
Q 39.796875 47.203125 32.40625 47.203125 
z
" id="NotoSans-Regular-112"/>
       <path d="M 17.296875 0 
L 8.5 0 
L 8.5 76 
L 17.296875 76 
z
" id="NotoSans-Regular-108"/>
       <path d="M 67.296875 54.59375 
Q 76.40625 54.59375 80.90625 49.890625 
Q 85.40625 45.203125 85.40625 34.90625 
L 85.40625 0 
L 76.703125 0 
L 76.703125 34.5 
Q 76.703125 47.203125 65.796875 47.203125 
Q 58 47.203125 54.640625 42.703125 
Q 51.296875 38.203125 51.296875 29.59375 
L 51.296875 0 
L 42.59375 0 
L 42.59375 34.5 
Q 42.59375 47.203125 31.59375 47.203125 
Q 23.5 47.203125 20.390625 42.203125 
Q 17.296875 37.203125 17.296875 27.796875 
L 17.296875 0 
L 8.5 0 
L 8.5 53.59375 
L 15.59375 53.59375 
L 16.90625 46.296875 
L 17.40625 46.296875 
Q 19.90625 50.5 24.15625 52.546875 
Q 28.40625 54.59375 33.203125 54.59375 
Q 45.796875 54.59375 49.59375 45.59375 
L 50.09375 45.59375 
Q 52.796875 50.203125 57.390625 52.390625 
Q 62 54.59375 67.296875 54.59375 
z
" id="NotoSans-Regular-109"/>
      </defs>
      <use xlink:href="#NotoSans-Regular-77"/>
      <use x="90.699982" xlink:href="#NotoSans-Regular-73"/>
      <use x="124.599976" xlink:href="#NotoSans-Regular-76"/>
      <use x="176.999969" xlink:href="#NotoSans-Regular-80"/>
      <use x="237.499954" xlink:href="#NotoSans-Regular-32"/>
      <use x="263.499939" xlink:href="#NotoSans-Regular-97"/>
      <use x="319.59993" xlink:href="#NotoSans-Regular-115"/>
      <use x="367.499924" xlink:href="#NotoSans-Regular-32"/>
      <use x="393.499908" xlink:href="#NotoSans-Regular-83"/>
      <use x="448.399902" xlink:href="#NotoSans-Regular-117"/>
      <use x="510.19989" xlink:href="#NotoSans-Regular-98"/>
      <use x="571.699875" xlink:href="#NotoSans-Regular-112"/>
      <use x="633.19986" xlink:href="#NotoSans-Regular-114"/>
      <use x="674.499847" xlink:href="#NotoSans-Regular-111"/>
      <use x="734.999832" xlink:href="#NotoSans-Regular-98"/>
      <use x="796.499817" xlink:href="#NotoSans-Regular-108"/>
      <use x="822.299805" xlink:href="#NotoSans-Regular-101"/>
      <use x="878.699799" xlink:href="#NotoSans-Regular-109"/>
     </g>
    </g>
    <g id="line2d_31">
     <path d="M 254.578125 241.42 
L 274.578125 241.42 
" style="fill:none;stroke:#0000ff;stroke-linecap:square;"/>
    </g>
    <g id="line2d_32">
     <g>
      <use style="fill:#0000ff;stroke:#0000ff;stroke-linejoin:miter;" x="264.578125" xlink:href="#md60a5a203b" y="241.42"/>
     </g>
    </g>
    <g id="text_17">
     <!-- FCFS -->
     <g transform="translate(282.578125 244.92)scale(0.1 -0.1)">
      <defs>
       <path d="M 18.703125 0 
L 9.703125 0 
L 9.703125 71.40625 
L 49.59375 71.40625 
L 49.59375 63.5 
L 18.703125 63.5 
L 18.703125 38.203125 
L 47.703125 38.203125 
L 47.703125 30.296875 
L 18.703125 30.296875 
z
" id="NotoSans-Regular-70"/>
      </defs>
      <use xlink:href="#NotoSans-Regular-70"/>
      <use x="51.899994" xlink:href="#NotoSans-Regular-67"/>
      <use x="115.099991" xlink:href="#NotoSans-Regular-70"/>
      <use x="166.999985" xlink:href="#NotoSans-Regular-83"/>
     </g>
    </g>
   </g>
  </g>
 </g>
 <defs>
  <clipPath id="pc418267abd">
   <rect height="221.76" width="334.8" x="54" y="34.56"/>
  </clipPath>
 </defs>
</svg>
